<svg width="16" height="16" viewBox="0 0 16 16" fill="none" xmlns="http://www.w3.org/2000/svg">
<path fill-rule="evenodd" clip-rule="evenodd" d="M5.85355 2.35355C6.04882 2.15829 6.04882 1.84171 5.85355 1.64645C5.65829 1.45118 5.34171 1.45118 5.14645 1.64645L1.64645 5.14645C1.45118 5.34171 1.45118 5.65829 1.64645 5.85355L5.14645 9.35355C5.34171 9.54882 5.65829 9.54882 5.85355 9.35355C6.04882 9.15829 6.04882 8.84171 5.85355 8.64645L3.20711 6H10.5C12.433 6 14 7.567 14 9.5C14 11.433 12.433 13 10.5 13H5.5C5.22386 13 5 13.2239 5 13.5C5 13.7761 5.22386 14 5.5 14H10.5C12.9853 14 15 11.9853 15 9.5C15 7.01472 12.9853 5 10.5 5H3.20711L5.85355 2.35355Z" fill="#CED0D6"/>
</svg>
