<svg width="24" height="24" viewBox="0 0 24 24" fill="none" xmlns="http://www.w3.org/2000/svg">
<path d="M23.989 11.7916C23.9856 11.6913 23.9796 11.5911 23.971 11.4912V11.489V11.4869C23.884 10.4031 23.5435 9.36064 22.9811 8.45691C22.7308 8.05114 22.4401 7.676 22.1142 7.33817C21.6311 6.84137 21.0776 6.43064 20.4745 6.12144C19.5207 5.63789 18.478 5.39204 17.4239 5.40217C16.5557 5.39836 15.6939 5.56022 14.8782 5.88025C14.2202 6.12717 13.6046 6.48954 13.0564 6.95269C12.9422 7.05265 12.8311 7.1568 12.7235 7.26495L12.6385 7.35647L12.5215 7.49106H12.5225L12.4665 7.55029L12.4405 7.58043L12.2995 7.73872C12.1955 7.8647 12.0975 7.99068 12.0036 8.1145V8.11235L11.9996 8.10912C11.8076 8.36 11.6296 8.62165 11.4996 8.85531C11.4106 9.00605 11.3236 9.16003 11.2407 9.31508L10.0938 11.8121L10.0958 11.8131L10.0358 11.9402L9.90983 12.2158C9.65887 12.7639 9.3889 13.3109 9.08894 13.761C8.41703 14.5545 7.65813 14.9433 6.68325 14.9433C6.61526 14.9433 6.54427 14.94 6.47428 14.9346C5.88636 14.9099 5.38242 14.7602 4.93548 14.4749C4.51355 14.2137 4.16895 13.8292 3.94161 13.3658C3.712 12.9149 3.5994 12.4057 3.61565 11.8917L3.61765 11.8551C3.64865 11.0368 3.93861 10.3994 4.52153 9.8513C4.66352 9.71778 4.8125 9.6058 4.96748 9.50674C4.98847 9.49274 5.01147 9.4809 5.03247 9.46798C5.46641 9.21279 5.95935 9.08573 6.52427 9.08573L6.70025 9.09112C7.59913 9.12773 8.29204 9.42922 8.84497 10.0204L10.5787 6.66843C10.1412 6.3567 9.67187 6.10019 9.17993 5.90393C9.16093 5.8964 9.13993 5.88671 9.11994 5.88025C9.05795 5.85656 8.99695 5.83179 8.93396 5.81026C8.37776 5.61292 7.80183 5.48714 7.21818 5.43555C7.20284 5.43346 7.18751 5.43131 7.17219 5.42909C7.0812 5.4237 6.98821 5.41186 6.89723 5.40755C6.79828 5.40345 6.69928 5.40094 6.60026 5.40001H6.54527C5.49869 5.39387 4.46414 5.64039 3.51766 6.12144C2.50229 6.6393 1.63734 7.44567 1.01599 8.45368C0.346351 9.53018 -0.00756465 10.7985 0.000122622 12.0942C-0.00187712 13.7782 0.568049 15.2577 1.7009 16.5013C2.88475 17.8053 4.42155 18.5084 6.26731 18.5913C6.38529 18.5967 6.50228 18.5999 6.62026 18.5999C7.66513 18.5999 8.631 18.3996 9.49789 17.9991C9.71486 17.8989 9.92483 17.7826 10.1398 17.6524C10.2568 17.5802 10.3678 17.5027 10.4778 17.4209L10.5577 17.3616L10.6947 17.2615C10.8587 17.1344 11.0117 16.9966 11.1617 16.8513L11.2137 16.7974C11.3017 16.7081 11.3896 16.6165 11.4726 16.5229L11.7836 16.1438L11.9016 15.9845L11.9576 15.8973L12.0126 15.8122C12.4745 14.9766 13.9773 11.9348 13.9773 11.9348V11.9284L14.0673 11.7432L14.1413 11.5978C14.3633 11.1639 14.5232 10.8559 14.7352 10.5318L14.7412 10.521C15.2341 9.74901 16.085 9.19987 17.0869 9.10727C18.7667 8.95114 20.2385 10.1399 20.3735 11.7615C20.5085 13.3841 19.2566 14.8259 17.5758 14.982C17.2376 15.0133 16.8969 14.99 16.565 14.9131L16.556 14.9163C15.3241 14.6396 14.5392 13.6727 14.1523 13.2388L12.5355 16.441C12.5355 16.441 13.0384 16.9859 13.3824 17.2583C13.7283 17.5307 14.1733 17.7977 14.5282 17.9646C15.424 18.3824 16.3897 18.5982 17.3659 18.5988C17.4868 18.5988 17.4629 18.5988 17.5878 18.5934C19.4316 18.5105 21.0764 17.7493 22.2622 16.4453C23.3851 15.2071 23.995 13.7933 24 12.1189V12.0683L23.989 11.7916V11.7916Z" fill="#4682FA"/>
</svg>
