<svg width="24" height="24" viewBox="0 0 24 24" fill="none" xmlns="http://www.w3.org/2000/svg">
<path d="M2 10C2 9.44772 2.44772 9 3 9H7C7.55228 9 8 9.44772 8 10V20C8 20.5523 7.55228 21 7 21H3C2.44772 21 2 20.5523 2 20V10Z" fill="#D6AE58"/>
<path d="M16 12C16 11.4477 16.4477 11 17 11H21C21.5523 11 22 11.4477 22 12V20C22 20.5523 21.5523 21 21 21H17C16.4477 21 16 20.5523 16 20V12Z" fill="#DB5C5C"/>
<path d="M9 4C9 3.44772 9.44772 3 10 3H14C14.5523 3 15 3.44772 15 4V20C15 20.5523 14.5523 21 14 21H10C9.44772 21 9 20.5523 9 20V4Z" fill="#548AF7"/>
</svg>
