<svg width="16" height="16" viewBox="0 0 16 16" fill="none" xmlns="http://www.w3.org/2000/svg">
<path d="M2 1.5H6C6.27614 1.5 6.5 1.72386 6.5 2V6C6.5 6.27614 6.27614 6.5 6 6.5H2C1.72386 6.5 1.5 6.27614 1.5 6V2C1.5 1.72386 1.72386 1.5 2 1.5Z" fill="#EBECF0" stroke="#6C707E"/>
<path d="M2 8.5H6C6.27614 8.5 6.5 8.72386 6.5 9V13C6.5 13.2761 6.27614 13.5 6 13.5H2C1.72386 13.5 1.5 13.2761 1.5 13V9C1.5 8.72386 1.72386 8.5 2 8.5Z" fill="#EBECF0" stroke="#6C707E"/>
<path d="M9 1.5H13C13.2761 1.5 13.5 1.72386 13.5 2V6C13.5 6.27614 13.2761 6.5 13 6.5H9C8.72386 6.5 8.5 6.27614 8.5 6V2C8.5 1.72386 8.72386 1.5 9 1.5Z" fill="#EBECF0" stroke="#6C707E"/>
<path d="M8 9C8 8.44772 8.44772 8 9 8H11V11H8V9Z" fill="#EBECF0"/>
<path d="M9 8C8.44772 8 8 8.44772 8 9V11H9V9H11V8H9Z" fill="#6C707E"/>
<path fill-rule="evenodd" clip-rule="evenodd" d="M12.5 9C12.7761 9 13 9.22386 13 9.5V12H15.5C15.7761 12 16 12.2239 16 12.5C16 12.7761 15.7761 13 15.5 13H13V15.5C13 15.7761 12.7761 16 12.5 16C12.2239 16 12 15.7761 12 15.5V13H9.5C9.22386 13 9 12.7761 9 12.5C9 12.2239 9.22386 12 9.5 12H12V9.5C12 9.22386 12.2239 9 12.5 9Z" fill="#3574F0"/>
</svg>
