<svg width="16" height="16" viewBox="0 0 16 16" fill="none" xmlns="http://www.w3.org/2000/svg">
<path d="M4 2C2.89543 2 2 2.89543 2 4V12C2 13.1046 2.89543 14 4 14H9C8.17157 14 7.5 13.3284 7.5 12.5C7.5 11.6716 8.17157 11 9 11H11V9C11 8.17157 11.6716 7.5 12.5 7.5C13.3284 7.5 14 8.17157 14 9V4C14 2.89543 13.1046 2 12 2H4Z" fill="#43454A"/>
<path d="M4 3H12C12.5523 3 13 3.44772 13 4V7.58535C13.5826 7.79127 14 8.34689 14 9V4C14 2.89543 13.1046 2 12 2H4C2.89543 2 2 2.89543 2 4V12C2 13.1046 2.89543 14 4 14H9C8.34689 14 7.79127 13.5826 7.58535 13H4C3.44772 13 3 12.5523 3 12V4C3 3.44772 3.44772 3 4 3Z" fill="#CED0D6"/>
<path fill-rule="evenodd" clip-rule="evenodd" d="M12.5 9C12.7761 9 13 9.22386 13 9.5V12H15.5C15.7761 12 16 12.2239 16 12.5C16 12.7761 15.7761 13 15.5 13H13V15.5C13 15.7761 12.7761 16 12.5 16C12.2239 16 12 15.7761 12 15.5V13H9.5C9.22386 13 9 12.7761 9 12.5C9 12.2239 9.22386 12 9.5 12H12V9.5C12 9.22386 12.2239 9 12.5 9Z" fill="#548AF7"/>
</svg>
