<svg width="24" height="24" viewBox="0 0 24 24" fill="none" xmlns="http://www.w3.org/2000/svg">
<circle cx="18" cy="12" r="4.25" fill="#EDF3FF" stroke="#3574F0" stroke-width="1.5"/>
<path d="M13.5636 7.24935C12.2938 8.43568 11.5 10.1251 11.5 12C11.5 13.8749 12.2938 15.5643 13.5636 16.7506C13.0717 16.9125 12.5461 17 12 17C9.23858 17 7 14.7614 7 12C7 9.23858 9.23858 7 12 7C12.5461 7 13.0717 7.08754 13.5636 7.24935Z" fill="#EDF3FF"/>
<path d="M13.5636 7.24935C13.0717 7.08754 12.5461 7 12 7C9.23858 7 7 9.23858 7 12C7 14.7614 9.23858 17 12 17C12.5461 17 13.0717 16.9125 13.5636 16.7506C13.1564 16.3702 12.7982 15.9381 12.4993 15.4646C12.3363 15.4879 12.1695 15.5 12 15.5C10.067 15.5 8.5 13.933 8.5 12C8.5 10.067 10.067 8.5 12 8.5C12.1695 8.5 12.3363 8.51205 12.4993 8.53535C12.7982 8.06193 13.1564 7.62977 13.5636 7.24935Z" fill="#3574F0"/>
<path d="M7.5636 7.24935C6.29378 8.43568 5.5 10.1251 5.5 12C5.5 13.8749 6.29378 15.5643 7.5636 16.7506C7.07169 16.9125 6.54607 17 6 17C3.23858 17 1 14.7614 1 12C1 9.23858 3.23858 7 6 7C6.54607 7 7.07169 7.08754 7.5636 7.24935Z" fill="#EDF3FF"/>
<path d="M7.5636 7.24935C7.07169 7.08754 6.54607 7 6 7C3.23858 7 1 9.23858 1 12C1 14.7614 3.23858 17 6 17C6.54607 17 7.07169 16.9125 7.5636 16.7506C7.1564 16.3702 6.79816 15.9381 6.49934 15.4646C6.33625 15.4879 6.16953 15.5 6 15.5C4.067 15.5 2.5 13.933 2.5 12C2.5 10.067 4.067 8.5 6 8.5C6.16953 8.5 6.33625 8.51205 6.49934 8.53535C6.79816 8.06193 7.1564 7.62977 7.5636 7.24935Z" fill="#3574F0"/>
</svg>
