<svg width="191" height="218" viewBox="0 0 191 218" fill="none" xmlns="http://www.w3.org/2000/svg">
  <g clip-path="url(#clip0_227_25585)">
    <path d="M129.58 2.32722L126.302 1.48558C123.451 0.753569 120.546 2.47134 119.814 5.32234L101.09 78.2468C100.358 81.0978 102.076 84.0024 104.927 84.7344L108.205 85.576C111.056 86.3081 113.961 84.5903 114.693 81.7393L133.417 8.81483C134.149 5.96384 132.431 3.05923 129.58 2.32722Z" fill="#13BC6F"/>
    <path d="M133.012 127.849H71.6768L92.7377 71.6309H162.822L152.518 112.633C150.271 121.578 142.232 127.841 133.012 127.841V127.849Z" fill="#13BC6F"/>
    <path d="M168.161 15.5469H143.494C138.682 15.5469 134.78 19.4482 134.78 24.2608V48.9281C134.78 53.7407 138.682 57.642 143.494 57.642H168.161C172.974 57.642 176.875 53.7407 176.875 48.9281V24.2608C176.875 19.4482 172.974 15.5469 168.161 15.5469Z" fill="#21D789"/>
    <path d="M173.136 43.6367H89.5411C83.502 43.6367 78.6064 48.5323 78.6064 54.5713V60.7892C78.6064 66.8282 83.502 71.7238 89.5411 71.7238H173.136C179.175 71.7238 184.071 66.8282 184.071 60.7892V54.5713C184.071 48.5323 179.175 43.6367 173.136 43.6367Z" fill="#21D789"/>
    <path d="M170.79 15.543H153.566C150.206 15.543 147.481 18.2672 147.481 21.6276V38.8512C147.481 42.2116 150.206 44.9358 153.566 44.9358H170.79C174.15 44.9358 176.874 42.2116 176.874 38.8512V21.6276C176.874 18.2672 174.15 15.543 170.79 15.543Z" fill="white"/>
    <mask id="mask0_227_25585" style="mask-type:luminance" maskUnits="userSpaceOnUse" x="147" y="15" width="30" height="30">
      <path d="M170.788 15.543H153.564C150.204 15.543 147.479 18.2672 147.479 21.6276V38.8512C147.479 42.2116 150.204 44.9358 153.564 44.9358H170.788C174.148 44.9358 176.872 42.2116 176.872 38.8512V21.6276C176.872 18.2672 174.148 15.543 170.788 15.543Z" fill="white"/>
    </mask>
    <g mask="url(#mask0_227_25585)">
      <path d="M179.139 6.86505H161.916C158.555 6.86505 155.831 9.58924 155.831 12.9497V30.1733C155.831 33.5337 158.555 36.2579 161.916 36.2579H179.139C182.5 36.2579 185.224 33.5337 185.224 30.1733V12.9497C185.224 9.58924 182.5 6.86505 179.139 6.86505Z" fill="black"/>
    </g>
    <path d="M92.8175 147.374L104.997 113.948C106.948 108.592 104.188 102.668 98.8323 100.716L91.7466 98.1346C86.3905 96.183 80.4665 98.9429 78.515 104.299L66.3358 137.725C64.3843 143.081 67.1442 149.005 72.5002 150.956L79.5859 153.538C84.942 155.489 90.866 152.73 92.8175 147.374Z" fill="#13BC6F"/>
    <path d="M42.027 162.607L66.0745 142.443C68.3563 140.53 68.655 137.129 66.7417 134.847L64.6757 132.383C62.7624 130.101 59.3615 129.802 57.0797 131.716L33.0322 151.88C30.7504 153.793 30.4517 157.194 32.365 159.476L34.4311 161.94C36.3444 164.221 39.7452 164.52 42.027 162.607Z" fill="#13BC6F"/>
    <path d="M99.9951 145.713V110.138C99.9951 104.438 95.3739 99.8164 89.6734 99.8164H82.132C76.4315 99.8164 71.8103 104.438 71.8103 110.138V145.713C71.8103 151.414 76.4315 156.035 82.132 156.035H89.6734C95.3739 156.035 99.9951 151.414 99.9951 145.713Z" fill="#21D789"/>
    <path d="M57.4985 177.414L73.1898 150.236C74.6787 147.657 73.7952 144.359 71.2163 142.871L68.4316 141.263C65.8527 139.774 62.5551 140.657 61.0662 143.236L45.3749 170.414C43.886 172.993 44.7696 176.291 47.3485 177.78L50.1332 179.388C52.7121 180.876 56.0096 179.993 57.4985 177.414Z" fill="#21D789"/>
    <mask id="mask1_227_25585" style="mask-type:luminance" maskUnits="userSpaceOnUse" x="120" y="43" width="65" height="29">
      <path d="M120.835 71.7288H173.136C179.177 71.7288 184.071 66.8344 184.071 60.7942V54.5674C184.071 48.5272 179.177 43.6328 173.136 43.6328H120.835V71.7199V71.7288Z" fill="white"/>
    </mask>
    <g mask="url(#mask1_227_25585)">
      <path d="M184.132 50.3301H141.753V57.685H184.132V50.3301Z" fill="black"/>
      <path d="M134.761 50.7129H141.823V43.6511H134.761V50.7129Z" fill="black"/>
    </g>
    <path d="M185.052 2.31746L181.774 1.47581C178.923 0.743803 176.019 2.46158 175.287 5.31257L156.563 78.237C155.831 81.088 157.549 83.9926 160.4 84.7246L163.678 85.5663C166.529 86.2983 169.433 84.5805 170.165 81.7295L188.889 8.80507C189.621 5.95407 187.903 3.04947 185.052 2.31746Z" fill="#21D789"/>
    <path d="M164.538 71.6406H147.11C144.166 71.6406 141.78 74.0268 141.78 76.9702V80.3901C141.78 83.3336 144.166 85.7197 147.11 85.7197H164.538C167.481 85.7197 169.867 83.3336 169.867 80.3901V76.9702C169.867 74.0268 167.481 71.6406 164.538 71.6406Z" fill="#21D789"/>
  </g>
  <defs>
    <clipPath id="clip0_227_25585">
      <rect width="161.312" height="181.933" fill="white" transform="translate(28.9014 0.150391)"/>
    </clipPath>
  </defs>
</svg>
