<svg width="119" height="174" viewBox="0 0 119 174" fill="none" xmlns="http://www.w3.org/2000/svg">
<path d="M13.0251 81.8617H9.7465C6.89812 81.8617 4.58328 79.5468 4.58328 76.6985V5.46321C4.57467 2.61483 6.88951 0.299988 9.73789 0.299988H13.0165C15.8649 0.299988 18.1798 2.61483 18.1798 5.46321V76.6985C18.1798 79.5468 15.8649 81.8617 13.0165 81.8617" fill="#13BC6F"/>
<path d="M10.6687 68.2911H107.075C112.926 68.2911 117.668 63.5495 117.668 57.6978V51.786C117.668 45.9343 112.926 41.1927 107.075 41.1927H10.6687C4.81706 41.1927 0.0755005 45.9343 0.0755005 51.786V57.6978C0.0755005 63.5495 4.81706 68.2911 10.6687 68.2911Z" fill="#21D789"/>
<path d="M83.8316 116.894H34.041C25.2119 116.894 18.0522 109.734 18.0522 100.897V68.2824H99.829V100.897C99.829 109.726 92.6693 116.894 83.8316 116.894Z" fill="#13BC6F"/>
<path d="M86.1731 150.008V105.544C86.1731 100.019 90.6479 95.5441 96.1725 95.5441H103.478C108.995 95.5441 113.478 100.019 113.478 105.544V140.008C113.478 145.533 109.003 150.008 103.478 150.008H86.1731Z" fill="#13BC6F"/>
<path d="M4.39575 140.008V105.544C4.39575 100.019 8.87054 95.5441 14.3952 95.5441H21.7011C27.2172 95.5441 31.7006 100.019 31.7006 105.544V150.008H14.3952C8.87054 150.008 4.39575 145.533 4.39575 140.008Z" fill="#13BC6F"/>
<path d="M72.636 167.847V137.436C72.636 134.553 74.9766 132.212 77.8594 132.212H86.1981V167.847C86.1981 170.73 83.8574 173.07 80.9746 173.07H77.8594C74.9766 173.07 72.636 170.73 72.636 167.847Z" fill="#13BC6F"/>
<path d="M31.8215 167.847V132.212H40.1601C43.0429 132.212 45.3836 134.553 45.3836 137.436V167.847C45.3836 170.73 43.0429 173.07 40.1601 173.07H37.045C34.1622 173.07 31.8215 170.73 31.8215 167.847Z" fill="#13BC6F"/>
<path d="M74.1071 54.6863H98.0043C102.668 54.6863 106.446 50.9085 106.446 46.2444V22.3473C106.446 17.6832 102.668 13.9055 98.0043 13.9055H74.1071C69.443 13.9055 65.6653 17.6832 65.6653 22.3473V46.2444C65.6653 50.9085 69.443 54.6863 74.1071 54.6863Z" fill="#21D789"/>
<path d="M19.7302 54.6863H43.6273C48.2914 54.6863 52.0692 50.9085 52.0692 46.2444V22.3473C52.0692 17.6832 48.2914 13.9055 43.6273 13.9055H19.7302C15.0661 13.9055 11.2883 17.6832 11.2883 22.3473V46.2444C11.2883 50.9085 15.0661 54.6863 19.7302 54.6863Z" fill="#21D789"/>
<path d="M71.0434 27.5109H48.179V45.978H71.0434V27.5109Z" fill="#21D789"/>
<path d="M92.8849 54.3586H24.8508V61.4838H92.8849V54.3586Z" fill="black"/>
<path d="M22.4662 42.3806H39.152C42.4049 42.3806 45.0467 39.7388 45.0467 36.4859V19.8001C45.0467 16.5473 42.4049 13.9055 39.152 13.9055H22.4662C19.2134 13.9055 16.5715 16.5473 16.5715 19.8001V36.4859C16.5715 39.7388 19.2134 42.3806 22.4662 42.3806Z" fill="white"/>
<mask id="mask0_23355_47641" style="mask-type:luminance" maskUnits="userSpaceOnUse" x="16" y="13" width="30" height="30">
<path d="M39.152 13.9055H22.4662C19.2107 13.9055 16.5715 16.5446 16.5715 19.8001V36.4859C16.5715 39.7415 19.2107 42.3806 22.4662 42.3806H39.152C42.4076 42.3806 45.0467 39.7415 45.0467 36.4859V19.8001C45.0467 16.5446 42.4076 13.9055 39.152 13.9055Z" fill="white"/>
</mask>
<g mask="url(#mask0_23355_47641)">
<path d="M22.4662 34.2927H39.152C42.4049 34.2927 45.0467 31.6509 45.0467 28.3981V11.7122C45.0467 8.45941 42.4049 5.81757 39.152 5.81757H22.4662C19.2134 5.81757 16.5715 8.45941 16.5715 11.7122V28.3981C16.5715 31.6509 19.2134 34.2927 22.4662 34.2927Z" fill="black"/>
</g>
<path d="M76.8529 42.3806H93.5387C96.7916 42.3806 99.4334 39.7388 99.4334 36.4859V19.8001C99.4334 16.5473 96.7916 13.9055 93.5387 13.9055H76.8529C73.6001 13.9055 70.9583 16.5473 70.9583 19.8001V36.4859C70.9583 39.7388 73.6001 42.3806 76.8529 42.3806Z" fill="white"/>
<mask id="mask1_23355_47641" style="mask-type:luminance" maskUnits="userSpaceOnUse" x="70" y="13" width="30" height="30">
<path d="M76.8529 13.9055H93.5387C96.7916 13.9055 99.4334 16.5473 99.4334 19.8001V36.4859C99.4334 39.7388 96.7916 42.3806 93.5387 42.3806H76.8529C73.6001 42.3806 70.9583 39.7388 70.9583 36.4859V19.8001C70.9583 16.5473 73.6001 13.9055 76.8529 13.9055Z" fill="white"/>
</mask>
<g mask="url(#mask1_23355_47641)">
<path d="M76.8529 34.2927H93.5387C96.7916 34.2927 99.4334 31.6509 99.4334 28.3981V11.7122C99.4334 8.45941 96.7916 5.81757 93.5387 5.81757H76.8529C73.6001 5.81757 70.9583 8.45941 70.9583 11.7122V28.3981C70.9583 31.6509 73.6001 34.2927 76.8529 34.2927Z" fill="black"/>
</g>
<path d="M99.7253 47.8879H92.884V54.7291H99.7253V47.8879Z" fill="black"/>
<path d="M24.9284 47.8879H18.0872V54.7291H24.9284V47.8879Z" fill="black"/>
<path d="M9.73866 68.2394H26.6224C29.4708 68.2394 31.7856 70.5543 31.7856 73.4027V76.7157C31.7856 79.5641 29.4708 81.879 26.6224 81.879H9.73866C6.89028 81.879 4.57544 79.5641 4.57544 76.7157V73.4027C4.57544 70.5543 6.89028 68.2394 9.73866 68.2394Z" fill="#13BC6F"/>
<path d="M108.271 68.2394H91.3871C88.5387 68.2394 86.2239 70.5543 86.2239 73.4027V76.7157C86.2239 79.5641 88.5387 81.879 91.3871 81.879H108.271C111.119 81.879 113.434 79.5641 113.434 76.7157V73.4027C113.434 70.5543 111.119 68.2394 108.271 68.2394Z" fill="#13BC6F"/>
<path d="M104.993 81.8617H108.271C111.12 81.8617 113.434 79.5468 113.434 76.6985V5.46321C113.434 2.61483 111.12 0.299988 108.271 0.299988H104.993C102.144 0.299988 99.8293 2.61483 99.8293 5.46321V76.6985C99.8293 79.5468 102.144 81.8617 104.993 81.8617Z" fill="#13BC6F"/>
</svg>
