<svg width="121" height="113" viewBox="0 0 121 113" fill="none" xmlns="http://www.w3.org/2000/svg">
  <path d="M91.2824 98.9H14.3525L28.1768 56.125H98.1857L91.2824 98.9Z" fill="#13BC6F"/>
  <path d="M103.518 0.0996094H78.8774C74.07 0.0996094 70.1729 3.99676 70.1729 8.80413V33.4448C70.1729 38.2522 74.07 42.1493 78.8774 42.1493H103.518C108.325 42.1493 112.223 38.2522 112.223 33.4448V8.80413C112.223 3.99676 108.325 0.0996094 103.518 0.0996094Z" fill="#21D789"/>
  <path d="M108.485 28.1562H24.9804C18.9479 28.1562 14.0576 33.0466 14.0576 39.0791V45.2902C14.0576 51.3227 18.9479 56.213 24.9804 56.213H108.485C114.518 56.213 119.408 51.3227 119.408 45.2902V39.0791C119.408 33.0466 114.518 28.1562 108.485 28.1562Z" fill="#21D789"/>
  <path d="M106.143 7.3418H88.9384C85.5816 7.3418 82.8604 10.063 82.8604 13.4199V30.6248C82.8604 33.9817 85.5816 36.7029 88.9384 36.7029H106.143C109.5 36.7029 112.221 33.9817 112.221 30.6248V13.4199C112.221 10.063 109.5 7.3418 106.143 7.3418Z" fill="white"/>
  <mask id="mask0_227_25584" style="mask-type:luminance" maskUnits="userSpaceOnUse" x="82" y="7" width="31" height="30">
    <path d="M106.141 7.34589H88.9365C85.5797 7.34589 82.8584 10.0671 82.8584 13.424V30.6289C82.8584 33.9858 85.5797 36.707 88.9365 36.707H106.141C109.498 36.707 112.22 33.9858 112.22 30.6289V13.424C112.22 10.0671 109.498 7.34589 106.141 7.34589Z" fill="white"/>
  </mask>
  <g mask="url(#mask0_227_25584)">
    <path d="M114.022 -0.654114H96.8173C93.4605 -0.654114 90.7393 2.06714 90.7393 5.42397V22.6289C90.7393 25.9858 93.4605 28.707 96.8173 28.707H114.022C117.379 28.707 120.1 25.9858 120.1 22.6289V5.42397C120.1 2.06714 117.379 -0.654114 114.022 -0.654114Z" fill="black"/>
  </g>
  <path d="M45.948 70.9004H10.4111C4.71678 70.9004 0.100586 75.5166 0.100586 81.211V88.7442C0.100586 94.4386 4.71678 99.0548 10.4111 99.0548H45.948C51.6423 99.0548 56.2585 94.4386 56.2585 88.7442V81.211C56.2585 75.5166 51.6423 70.9004 45.948 70.9004Z" fill="#21D789"/>
  <path d="M50.8646 98.3594H19.5159C16.5413 98.3594 14.1299 100.771 14.1299 103.745V106.957C14.1299 109.932 16.5413 112.343 19.5159 112.343H50.8646C53.8392 112.343 56.2506 109.932 56.2506 106.957V103.745C56.2506 100.771 53.8392 98.3594 50.8646 98.3594Z" fill="#21D789"/>
  <path d="M89.5163 70.9004H92.8792C95.8162 70.9004 98.203 73.2873 98.203 76.2243V99.1258H89.5163C86.5793 99.1258 84.1924 96.7389 84.1924 93.8019V76.2243C84.1924 73.2873 86.5793 70.9004 89.5163 70.9004Z" fill="#21D789"/>
  <path d="M98.2139 84.2246H106.901C109.838 84.2246 112.225 86.6115 112.225 89.5485V99.6372C112.225 102.574 109.838 104.961 106.901 104.961H98.2139V84.2246Z" fill="#21D789"/>
  <path d="M114.218 98.4219H103.526C100.586 98.4219 98.2021 100.805 98.2021 103.746V106.958C98.2021 109.898 100.586 112.282 103.526 112.282H114.218C117.158 112.282 119.542 109.898 119.542 106.958V103.746C119.542 100.805 117.158 98.4219 114.218 98.4219Z" fill="#21D789"/>
  <mask id="mask1_227_25584" style="mask-type:luminance" maskUnits="userSpaceOnUse" x="56" y="28" width="64" height="29">
    <path d="M56.2432 56.2239H108.488C114.522 56.2239 119.411 51.3348 119.411 45.3011V39.081C119.411 33.0473 114.522 28.1582 108.488 28.1582H56.2432V56.215V56.2239Z" fill="white"/>
  </mask>
  <g mask="url(#mask1_227_25584)">
    <path d="M119.471 48.8672H77.1377V56.2141H119.471V48.8672Z" fill="black"/>
    <path d="M70.1558 49.2539H77.21V42.1998H70.1558V49.2539Z" fill="black"/>
  </g>
</svg>