<svg width="121" height="113" viewBox="0 0 121 113" fill="none" xmlns="http://www.w3.org/2000/svg">
  <path d="M28.9187 98.9H105.849L92.0243 56.125H22.0155L28.9187 98.9Z" fill="#13BC6F"/>
  <path d="M16.6832 0.0996094H41.3238C46.1312 0.0996094 50.0283 3.99676 50.0283 8.80413V33.4448C50.0283 38.2522 46.1312 42.1493 41.3238 42.1493H16.6832C11.8758 42.1493 7.97863 38.2522 7.97863 33.4448V8.80413C7.97863 3.99676 11.8758 0.0996094 16.6832 0.0996094Z" fill="#21D789"/>
  <path d="M11.7159 28.1562H95.2208C101.253 28.1562 106.144 33.0466 106.144 39.0791V45.2902C106.144 51.3227 101.253 56.213 95.2208 56.213H11.7159C5.68339 56.213 0.793068 51.3227 0.793068 45.2902V39.0791C0.793068 33.0466 5.68339 28.1562 11.7159 28.1562Z" fill="#21D789"/>
  <path d="M14.0578 7.3418H31.2627C34.6196 7.3418 37.3408 10.063 37.3408 13.4199V30.6248C37.3408 33.9817 34.6196 36.7029 31.2627 36.7029H14.0578C10.7009 36.7029 7.97968 33.9817 7.97968 30.6248V13.4199C7.97968 10.063 10.7009 7.3418 14.0578 7.3418Z" fill="white"/>
  <mask id="mask0_227_25586" style="mask-type:luminance" maskUnits="userSpaceOnUse" x="7" y="7" width="31" height="30">
    <path d="M14.0597 7.34589H31.2647C34.6215 7.34589 37.3428 10.0671 37.3428 13.424V30.6289C37.3428 33.9858 34.6215 36.707 31.2647 36.707H14.0597C10.7029 36.707 7.98163 33.9858 7.98163 30.6289V13.424C7.98163 10.0671 10.7029 7.34589 14.0597 7.34589Z" fill="white"/>
  </mask>
  <g mask="url(#mask0_227_25586)">
    <path d="M6.17886 -0.654114H23.3838C26.7407 -0.654114 29.4619 2.06714 29.4619 5.42397V22.6289C29.4619 25.9858 26.7407 28.707 23.3838 28.707H6.17886C2.82203 28.707 0.100775 25.9858 0.100775 22.6289V5.42397C0.100775 2.06714 2.82203 -0.654114 6.17886 -0.654114Z" fill="black"/>
  </g>
  <path d="M74.2532 70.9004H109.79C115.484 70.9004 120.101 75.5166 120.101 81.211V88.7442C120.101 94.4386 115.484 99.0548 109.79 99.0548H74.2532C68.5588 99.0548 63.9426 94.4386 63.9426 88.7442V81.211C63.9426 75.5166 68.5588 70.9004 74.2532 70.9004Z" fill="#21D789"/>
  <path d="M69.3366 98.3594H100.685C103.66 98.3594 106.071 100.771 106.071 103.745V106.957C106.071 109.932 103.66 112.343 100.685 112.343H69.3366C66.362 112.343 63.9506 109.932 63.9506 106.957V103.745C63.9506 100.771 66.362 98.3594 69.3366 98.3594Z" fill="#21D789"/>
  <path d="M30.6849 70.9004H27.322C24.385 70.9004 21.9981 73.2873 21.9981 76.2243V99.1258H30.6849C33.6219 99.1258 36.0088 96.7389 36.0088 93.8019V76.2243C36.0088 73.2873 33.6219 70.9004 30.6849 70.9004Z" fill="#21D789"/>
  <path d="M21.9873 84.2246H13.3005C10.3635 84.2246 7.97666 86.6115 7.97666 89.5485V99.6372C7.97666 102.574 10.3635 104.961 13.3005 104.961H21.9873V84.2246Z" fill="#21D789"/>
  <path d="M5.98305 98.4219H16.6752C19.6154 98.4219 21.999 100.805 21.999 103.746V106.958C21.999 109.898 19.6154 112.282 16.6752 112.282H5.98305C3.04276 112.282 0.659184 109.898 0.659184 106.958V103.746C0.659184 100.805 3.04276 98.4219 5.98305 98.4219Z" fill="#21D789"/>
  <mask id="mask1_227_25586" style="mask-type:luminance" maskUnits="userSpaceOnUse" x="0" y="28" width="64" height="29">
    <path d="M63.958 56.2239H11.7131C5.67939 56.2239 0.790306 51.3348 0.790306 45.3011V39.081C0.790306 33.0473 5.67939 28.1582 11.7131 28.1582H63.958V56.215V56.2239Z" fill="white"/>
  </mask>
  <g mask="url(#mask1_227_25586)">
    <path d="M0.731804 48.8672H43.0654V56.2141H0.731804V48.8672Z" fill="black"/>
    <path d="M50.0473 49.2539H42.9932V42.1998H50.0473V49.2539Z" fill="black"/>
  </g>
</svg>
