<svg width="163" height="218" viewBox="0 0 163 218" fill="none" xmlns="http://www.w3.org/2000/svg">
  <g clip-path="url(#clip0_227_25587)">
    <path d="M61.5315 2.32722L64.8095 1.48558C67.6605 0.753569 70.5651 2.47134 71.2971 5.32234L90.0209 78.2468C90.7529 81.0978 89.0352 84.0024 86.1842 84.7344L82.9062 85.576C80.0552 86.3081 77.1506 84.5903 76.4186 81.7393L57.6948 8.81483C56.9627 5.96384 58.6805 3.05923 61.5315 2.32722Z" fill="#13BC6F"/>
    <path d="M58.1014 127.849H119.437L98.3756 71.6309H28.2911L38.595 112.633C40.8423 121.578 48.8812 127.841 58.1014 127.841V127.849Z" fill="#13BC6F"/>
    <path d="M22.9498 15.5469H47.6171C52.4297 15.5469 56.3311 19.4482 56.3311 24.2608V48.9281C56.3311 53.7407 52.4297 57.642 47.6171 57.642H22.9498C18.1373 57.642 14.2359 53.7407 14.2359 48.9281V24.2608C14.2359 19.4482 18.1373 15.5469 22.9498 15.5469Z" fill="#21D789"/>
    <path d="M17.9771 43.6367H101.572C107.611 43.6367 112.507 48.5323 112.507 54.5713V60.7892C112.507 66.8282 107.611 71.7238 101.572 71.7238H17.9771C11.938 71.7238 7.04246 66.8282 7.04246 60.7892V54.5713C7.04246 48.5323 11.938 43.6367 17.9771 43.6367Z" fill="#21D789"/>
    <path d="M20.3256 15.543H37.5491C40.9096 15.543 43.6338 18.2672 43.6338 21.6276V38.8512C43.6338 42.2116 40.9096 44.9358 37.5491 44.9358H20.3256C16.9651 44.9358 14.2409 42.2116 14.2409 38.8512V21.6276C14.2409 18.2672 16.9651 15.543 20.3256 15.543Z" fill="white"/>
    <mask id="mask0_227_25587" style="mask-type:luminance" maskUnits="userSpaceOnUse" x="14" y="15" width="30" height="30">
      <path d="M20.3275 15.543H37.5511C40.9115 15.543 43.6357 18.2672 43.6357 21.6276V38.8512C43.6357 42.2116 40.9115 44.9358 37.5511 44.9358H20.3275C16.9671 44.9358 14.2429 42.2116 14.2429 38.8512V21.6276C14.2429 18.2672 16.9671 15.543 20.3275 15.543Z" fill="white"/>
    </mask>
    <g mask="url(#mask0_227_25587)">
      <path d="M11.976 6.86499H29.1995C32.56 6.86499 35.2842 9.58918 35.2842 12.9496V30.1732C35.2842 33.5337 32.56 36.2579 29.1995 36.2579H11.976C8.61551 36.2579 5.89131 33.5337 5.89131 30.1732V12.9496C5.89131 9.58918 8.61551 6.86499 11.976 6.86499Z" fill="black"/>
    </g>
    <path d="M98.2938 147.374L86.1147 113.948C84.1631 108.592 86.923 102.668 92.279 100.716L99.3648 98.1346C104.721 96.183 110.645 98.9429 112.596 104.299L124.775 137.725C126.727 143.081 123.967 149.005 118.611 150.956L111.525 153.538C106.169 155.489 100.245 152.73 98.2938 147.374Z" fill="#13BC6F"/>
    <path d="M149.084 162.607L125.037 142.443C122.755 140.53 122.456 137.129 124.37 134.847L126.436 132.383C128.349 130.101 131.75 129.802 134.032 131.716L158.079 151.88C160.361 153.793 160.66 157.194 158.746 159.476L156.68 161.94C154.767 164.221 151.366 164.52 149.084 162.607Z" fill="#13BC6F"/>
    <path d="M91.1162 145.713V110.138C91.1162 104.438 95.7374 99.8164 101.438 99.8164H108.979C114.68 99.8164 119.301 104.438 119.301 110.138V145.713C119.301 151.414 114.68 156.035 108.979 156.035H101.438C95.7374 156.035 91.1162 151.414 91.1162 145.713Z" fill="#21D789"/>
    <path d="M133.617 177.414L117.925 150.236C116.436 147.657 117.32 144.359 119.899 142.871L122.684 141.263C125.263 139.774 128.56 140.657 130.049 143.236L145.74 170.414C147.229 172.993 146.346 176.291 143.767 177.78L140.982 179.388C138.403 180.876 135.106 179.993 133.617 177.414Z" fill="#21D789"/>
    <mask id="mask1_227_25587" style="mask-type:luminance" maskUnits="userSpaceOnUse" x="7" y="43" width="64" height="29">
      <path d="M70.2764 71.7288H17.975C11.9348 71.7288 7.04039 66.8344 7.04039 60.7942V54.5674C7.04039 48.5272 11.9348 43.6328 17.975 43.6328H70.2764V71.7199V71.7288Z" fill="white"/>
    </mask>
    <g mask="url(#mask1_227_25587)">
      <path d="M6.979 50.3301H49.3584V57.685H6.979V50.3301Z" fill="black"/>
      <path d="M56.3498 50.7148H49.2881V43.6531H56.3498V50.7148Z" fill="black"/>
    </g>
    <path d="M6.06276 2.31746L9.34075 1.47581C12.1917 0.743803 15.0963 2.46158 15.8284 5.31257L34.5522 78.237C35.2842 81.088 33.5664 83.9926 30.7154 84.7246L27.4374 85.5663C24.5864 86.2983 21.6818 84.5805 20.9498 81.7295L2.226 8.80507C1.49399 5.95407 3.21177 3.04947 6.06276 2.31746Z" fill="#21D789"/>
    <path d="M26.5775 71.6406H44.0053C46.9488 71.6406 49.335 74.0268 49.335 76.9702V80.3901C49.335 83.3336 46.9488 85.7197 44.0053 85.7197H26.5775C23.634 85.7197 21.2478 83.3336 21.2478 80.3901V76.9702C21.2478 74.0268 23.634 71.6406 26.5775 71.6406Z" fill="#21D789"/>
  </g>
  <defs>
    <clipPath id="clip0_227_25587">
      <rect width="161.312" height="181.933" fill="white" transform="matrix(-1 0 0 1 162.212 0.150391)"/>
    </clipPath>
  </defs>
</svg>
