<svg width="122" height="179" viewBox="0 0 122 179" fill="none" xmlns="http://www.w3.org/2000/svg">
  <path d="M10.1204 108.078L27.351 108.078C30.2612 108.078 32.6204 105.723 32.6204 102.817L32.6204 99.4408C32.6204 96.535 30.2612 94.1795 27.351 94.1795L10.1204 94.1795C7.21019 94.1795 4.85104 96.535 4.85104 99.4408L4.85104 102.817C4.85104 105.723 7.21019 108.078 10.1204 108.078Z" fill="#13BC6F"/>
  <path d="M10.1124 177.309L13.4585 177.309C16.3686 177.309 18.7278 174.953 18.7278 172.047L18.7278 99.4586C18.7278 96.5528 16.3686 94.1972 13.4585 94.1972L10.1124 94.1972C7.20227 94.1972 4.84312 96.5528 4.84312 99.4586L4.84312 172.047C4.84312 174.953 7.20227 177.309 10.1124 177.309Z" fill="#13BC6F"/>
  <path d="M110.657 94.1816L93.4268 94.1816C90.5166 94.1816 88.1575 96.5372 88.1575 99.443L88.1575 102.819C88.1575 105.725 90.5166 108.08 93.4268 108.08L110.657 108.08C113.568 108.08 115.927 105.725 115.927 102.819L115.927 99.443C115.927 96.5372 113.568 94.1816 110.657 94.1816Z" fill="#13BC6F"/>
  <path d="M110.657 94.1992L107.311 94.1992C104.401 94.1992 102.042 96.5548 102.042 99.4605L102.042 172.049C102.042 174.955 104.401 177.311 107.311 177.311L110.657 177.311C113.568 177.311 115.927 174.955 115.927 172.049L115.927 99.4605C115.927 96.5548 113.567 94.1992 110.657 94.1992Z" fill="#13BC6F"/>
  <path d="M23.2505 163.262L44.9953 163.262C49.7534 163.262 53.6106 159.41 53.6106 154.659L53.6106 135.666C53.6106 130.915 49.7534 127.064 44.9952 127.064L23.2505 127.064C18.4924 127.064 14.6352 130.915 14.6352 135.666L14.6352 154.659C14.6352 159.41 18.4924 163.262 23.2505 163.262Z" fill="#21D789"/>
  <path d="M76.1009 163.262L97.6085 163.262C102.367 163.262 106.224 159.41 106.224 154.659L106.224 135.666C106.224 130.915 102.367 127.064 97.6085 127.064L76.1009 127.064C71.3428 127.064 67.4856 130.915 67.4856 135.666L67.4856 154.659C67.4856 159.41 71.3428 163.262 76.1009 163.262Z" fill="#21D789"/>
  <path d="M11.3414 135.639L109.72 135.639C115.69 135.639 120.531 130.806 120.531 124.844L120.531 118.82C120.531 112.858 115.69 108.025 109.72 108.025L11.3414 108.026C5.37071 108.026 0.530516 112.858 0.530516 118.82L0.530517 124.844C0.530517 130.806 5.37071 135.639 11.3414 135.639Z" fill="#21D789"/>
  <path d="M48.1298 153.344L71.4641 153.344L71.4641 134.798L48.1298 134.798L48.1298 153.344Z" fill="#21D789"/>
  <path d="M35.0529 58.5L85.8667 58.5C94.8773 58.5 102.184 65.8045 102.184 74.7926L102.184 108.027L18.7356 108.027L18.7356 74.7926C18.7356 65.7957 26.0512 58.5 35.0529 58.5Z" fill="#13BC6F"/>
  <path d="M4.79809 70.0664L4.79809 34.9471C4.79809 29.3262 9.37362 24.7577 15.003 24.7577L32.664 24.7577L32.664 70.0664C32.664 75.6873 28.0885 80.2559 22.4591 80.2559L15.003 80.2559C9.37362 80.2559 4.7981 75.6873 4.79809 70.0664Z" fill="#13BC6F"/>
  <path d="M88.2551 70.0664L88.2551 24.7577L105.916 24.7577C111.546 24.7577 116.121 29.3263 116.121 34.9471L116.121 70.0664C116.121 75.6873 111.546 80.2559 105.916 80.2559L98.46 80.2559C92.8307 80.2559 88.2551 75.6873 88.2551 70.0664Z" fill="#13BC6F"/>
  <path d="M32.6379 42.8926L32.6379 6.58068C32.6379 3.64311 35.0267 1.25797 37.9687 1.25797L41.1479 1.25797C44.0899 1.25797 46.4787 3.64311 46.4787 6.58068L46.4787 37.5699C46.4787 40.5074 44.0899 42.8926 41.1479 42.8926L32.6379 42.8926Z" fill="#13BC6F"/>
  <path d="M74.2922 37.5601L74.2922 6.57092C74.2922 3.63335 76.681 1.24821 79.623 1.24821L82.8022 1.24821C85.7442 1.24821 88.133 3.63335 88.133 6.57092L88.133 42.8828L79.623 42.8828C76.681 42.8828 74.2922 40.4977 74.2922 37.5601Z" fill="#13BC6F"/>
</svg>
