<svg width="121" height="107" viewBox="0 0 121 107" fill="none" xmlns="http://www.w3.org/2000/svg">
  <g clip-path="url(#clip0_227_25581)">
    <path d="M35.0504 93.4933H5.15357C2.36288 93.4933 0.100586 95.7556 0.100586 98.5463V101.654C0.100586 104.445 2.36288 106.707 5.15357 106.707H35.0504C37.8411 106.707 40.1034 104.445 40.1034 101.654V98.5463C40.1034 95.7556 37.8411 93.4933 35.0504 93.4933Z" fill="#13BC6F"/>
    <path d="M114.947 93.4933H85.1262C82.3355 93.4933 80.0732 95.7556 80.0732 98.5463V101.654C80.0732 104.445 82.3355 106.707 85.1262 106.707H114.947C117.738 106.707 120 104.445 120 101.654V98.5463C120 95.7556 117.738 93.4933 114.947 93.4933Z" fill="#13BC6F"/>
    <path d="M109.725 26.7199H10.4676C4.74207 26.7199 0.100586 31.3614 0.100586 37.087V42.9821C0.100586 48.7077 4.74207 53.3491 10.4676 53.3491H109.725C115.451 53.3491 120.092 48.7077 120.092 42.9821V37.087C120.092 31.3614 115.451 26.7199 109.725 26.7199Z" fill="#21D789"/>
    <path d="M98.3312 0.0910034H74.9443C70.3815 0.0910034 66.6826 3.78986 66.6826 8.35264V31.7395C66.6826 36.3023 70.3815 40.0012 74.9443 40.0012H98.3312C102.894 40.0012 106.593 36.3023 106.593 31.7395V8.35264C106.593 3.78986 102.894 0.0910034 98.3312 0.0910034Z" fill="#21D789"/>
    <path d="M45.1144 0.0910034H21.7275C17.1647 0.0910034 13.4658 3.78986 13.4658 8.35264V31.7395C13.4658 36.3023 17.1647 40.0012 21.7275 40.0012H45.1144C49.6771 40.0012 53.376 36.3023 53.376 31.7395V8.35264C53.376 3.78986 49.6771 0.0910034 45.1144 0.0910034Z" fill="#21D789"/>
    <path d="M71.9456 13.4035H49.5693V31.4763H71.9456V13.4035Z" fill="#21D789"/>
    <path d="M93.3188 46.5285H26.7373V53.5016H93.3188V46.5285Z" fill="black"/>
    <path d="M40.7361 6.96188H24.4065C21.2205 6.96188 18.6377 9.54468 18.6377 12.7307V29.0603C18.6377 32.2463 21.2205 34.8291 24.4065 34.8291H40.7361C43.9221 34.8291 46.5049 32.2463 46.5049 29.0603V12.7307C46.5049 9.54468 43.9221 6.96188 40.7361 6.96188Z" fill="white"/>
    <mask id="mask0_227_25581" style="mask-type:luminance" maskUnits="userSpaceOnUse" x="18" y="6" width="29" height="29">
      <path d="M40.7341 6.95819H24.4046C21.2185 6.95819 18.6357 9.54098 18.6357 12.727V29.0566C18.6357 32.2426 21.2185 34.8254 24.4046 34.8254H40.7341C43.9202 34.8254 46.503 32.2426 46.503 29.0566V12.727C46.503 9.54098 43.9202 6.95819 40.7341 6.95819Z" fill="white"/>
    </mask>
    <g mask="url(#mask0_227_25581)">
      <path d="M48.2127 6.95819H31.8831C28.6971 6.95819 26.1143 9.54098 26.1143 12.727V29.0566C26.1143 32.2426 28.6971 34.8254 31.8831 34.8254H48.2127C51.3987 34.8254 53.9815 32.2426 53.9815 29.0566V12.727C53.9815 9.54098 51.3987 6.95819 48.2127 6.95819Z" fill="black"/>
    </g>
    <path d="M93.9607 6.96188H77.6311C74.4451 6.96188 71.8623 9.54468 71.8623 12.7307V29.0603C71.8623 32.2463 74.4451 34.8291 77.6311 34.8291H93.9607C97.1467 34.8291 99.7295 32.2463 99.7295 29.0603V12.7307C99.7295 9.54468 97.1467 6.96188 93.9607 6.96188Z" fill="white"/>
    <mask id="mask1_227_25581" style="mask-type:luminance" maskUnits="userSpaceOnUse" x="71" y="6" width="29" height="29">
      <path d="M93.9607 6.95819H77.6311C74.4451 6.95819 71.8623 9.54098 71.8623 12.727V29.0566C71.8623 32.2426 74.4451 34.8254 77.6311 34.8254H93.9607C97.1467 34.8254 99.7295 32.2426 99.7295 29.0566V12.727C99.7295 9.54098 97.1467 6.95819 93.9607 6.95819Z" fill="white"/>
    </mask>
    <g mask="url(#mask1_227_25581)">
      <path d="M101.447 6.95819H85.1175C81.9314 6.95819 79.3486 9.54098 79.3486 12.727V29.0566C79.3486 32.2426 81.9314 34.8254 85.1175 34.8254H101.447C104.633 34.8254 107.216 32.2426 107.216 29.0566V12.727C107.216 9.54098 104.633 6.95819 101.447 6.95819Z" fill="black"/>
    </g>
    <path d="M93.3194 46.8957H100.015V40.2005H93.3194V46.8957Z" fill="black"/>
    <path d="M20.1183 46.8957H26.8135V40.2005H20.1183V46.8957Z" fill="black"/>
    <path d="M13.5004 93.4933L106.425 93.4933V53.3558L13.5004 53.3558V93.4933Z" fill="#13BC6F"/>
    <path d="M45.2061 66.7082H8.74879C4.09765 66.7082 0.327148 70.4787 0.327148 75.1298V85.0842C0.327148 89.7354 4.09765 93.5059 8.74879 93.5059H45.2061C49.8572 93.5059 53.6277 89.7354 53.6277 85.0842V75.1298C53.6277 70.4787 49.8572 66.7082 45.2061 66.7082Z" fill="#13BC6F"/>
    <path d="M111.554 66.7082H75.0964C70.4453 66.7082 66.6748 70.4787 66.6748 75.1298V85.0758C66.6748 89.7269 70.4453 93.4974 75.0964 93.4974H111.554C116.205 93.4974 119.975 89.7269 119.975 85.0758V75.1298C119.975 70.4787 116.205 66.7082 111.554 66.7082Z" fill="#13BC6F"/>
    <path d="M18.552 66.7062H21.7438C24.5314 66.7062 26.7968 68.9717 26.7968 71.7592V93.4955H18.552C15.7644 93.4955 13.499 91.2301 13.499 88.4425V71.7592C13.499 68.9717 15.7644 66.7062 18.552 66.7062Z" fill="#21D789"/>
    <path d="M26.8057 80.0187H35.0505C37.838 80.0187 40.1034 82.2842 40.1034 85.0717V94.6471C40.1034 97.4347 37.838 99.7001 35.0505 99.7001H26.8057V80.0187Z" fill="#21D789"/>
    <path d="M41.9989 93.507H31.8508C29.0602 93.507 26.7979 95.7693 26.7979 98.56V101.609C26.7979 104.399 29.0602 106.662 31.8508 106.662H41.9989C44.7896 106.662 47.0519 104.399 47.0519 101.609V98.56C47.0519 95.7693 44.7896 93.507 41.9989 93.507Z" fill="#21D789"/>
    <path d="M101.624 93.4933H93.379V71.7571C93.379 68.9695 95.6444 66.7041 98.432 66.7041H101.624C104.411 66.7041 106.677 68.9695 106.677 71.7571V88.4404C106.677 91.2279 104.411 93.4933 101.624 93.4933Z" fill="#21D789"/>
    <path d="M93.3701 99.7043H85.1253C82.3378 99.7043 80.0723 97.4389 80.0723 94.6513V85.0759C80.0723 82.2883 82.3378 80.0229 85.1253 80.0229H93.3701V99.7043Z" fill="#21D789"/>
    <path d="M77.9585 106.654H88.3171C91.1078 106.654 93.3701 104.391 93.3701 101.601V98.552C93.3701 95.7613 91.1078 93.499 88.3171 93.499H77.9585C75.1678 93.499 72.9055 95.7613 72.9055 98.552V101.601C72.9055 104.391 75.1678 106.654 77.9585 106.654Z" fill="#21D789"/>
  </g>
  <defs>
    <clipPath id="clip0_227_25581">
      <rect width="120" height="106.618" fill="white" transform="translate(0.100586 0.0910034)"/>
    </clipPath>
  </defs>
</svg>
