<svg width="121" height="107" viewBox="0 0 121 107" fill="none" xmlns="http://www.w3.org/2000/svg">
  <path d="M35.0504 93.4062H5.15357C2.36288 93.4062 0.100586 95.6685 0.100586 98.4592V101.567C0.100586 104.358 2.36288 106.62 5.15357 106.62H35.0504C37.8411 106.62 40.1034 104.358 40.1034 101.567V98.4592C40.1034 95.6685 37.8411 93.4062 35.0504 93.4062Z" fill="#13BC6F"/>
  <path d="M114.947 93.4062H85.1262C82.3355 93.4062 80.0732 95.6685 80.0732 98.4592V101.567C80.0732 104.358 82.3355 106.62 85.1262 106.62H114.947C117.738 106.62 120 104.358 120 101.567V98.4592C120 95.6685 117.738 93.4062 114.947 93.4062Z" fill="#13BC6F"/>
  <path d="M109.725 26.6348H10.4676C4.74207 26.6348 0.100586 31.2762 0.100586 37.0018V42.897C0.100586 48.6225 4.74207 53.264 10.4676 53.264H109.725C115.451 53.264 120.092 48.6225 120.092 42.897V37.0018C120.092 31.2762 115.451 26.6348 109.725 26.6348Z" fill="#21D789"/>
  <path d="M98.3312 0H74.9443C70.3815 0 66.6826 3.69886 66.6826 8.26163V31.6485C66.6826 36.2113 70.3815 39.9102 74.9443 39.9102H98.3312C102.894 39.9102 106.593 36.2113 106.593 31.6485V8.26163C106.593 3.69886 102.894 0 98.3312 0Z" fill="#21D789"/>
  <path d="M45.1144 0H21.7275C17.1647 0 13.4658 3.69886 13.4658 8.26163V31.6485C13.4658 36.2113 17.1647 39.9102 21.7275 39.9102H45.1144C49.6771 39.9102 53.376 36.2113 53.376 31.6485V8.26163C53.376 3.69886 49.6771 0 45.1144 0Z" fill="#21D789"/>
  <path d="M71.9456 13.3125H49.5693V31.3853H71.9456V13.3125Z" fill="#21D789"/>
  <path d="M93.3208 46.4375H26.7393V53.4106H93.3208V46.4375Z" fill="black"/>
  <path d="M40.7361 6.875H24.4065C21.2205 6.875 18.6377 9.45779 18.6377 12.6438V28.9734C18.6377 32.1594 21.2205 34.7422 24.4065 34.7422H40.7361C43.9221 34.7422 46.5049 32.1594 46.5049 28.9734V12.6438C46.5049 9.45779 43.9221 6.875 40.7361 6.875Z" fill="white"/>
  <mask id="mask0_227_25590" style="mask-type:luminance" maskUnits="userSpaceOnUse" x="18" y="6" width="29" height="29">
    <path d="M40.7341 6.87695H24.4046C21.2185 6.87695 18.6357 9.45974 18.6357 12.6458V28.9753C18.6357 32.1614 21.2185 34.7442 24.4046 34.7442H40.7341C43.9202 34.7442 46.503 32.1614 46.503 28.9753V12.6458C46.503 9.45974 43.9202 6.87695 40.7341 6.87695Z" fill="white"/>
  </mask>
  <g mask="url(#mask0_227_25590)">
    <path d="M40.7341 18.7051H24.4046C21.2185 18.7051 18.6357 21.2879 18.6357 24.4739V40.8035C18.6357 43.9895 21.2185 46.5723 24.4046 46.5723H40.7341C43.9202 46.5723 46.503 43.9895 46.503 40.8035V24.4739C46.503 21.2879 43.9202 18.7051 40.7341 18.7051Z" fill="black"/>
  </g>
  <path d="M93.9607 6.875H77.6311C74.4451 6.875 71.8623 9.45779 71.8623 12.6438V28.9734C71.8623 32.1594 74.4451 34.7422 77.6311 34.7422H93.9607C97.1467 34.7422 99.7295 32.1594 99.7295 28.9734V12.6438C99.7295 9.45779 97.1467 6.875 93.9607 6.875Z" fill="white"/>
  <mask id="mask1_227_25590" style="mask-type:luminance" maskUnits="userSpaceOnUse" x="71" y="6" width="29" height="29">
    <path d="M93.9607 6.87695H77.6311C74.4451 6.87695 71.8623 9.45974 71.8623 12.6458V28.9753C71.8623 32.1614 74.4451 34.7442 77.6311 34.7442H93.9607C97.1467 34.7442 99.7295 32.1614 99.7295 28.9753V12.6458C99.7295 9.45974 97.1467 6.87695 93.9607 6.87695Z" fill="white"/>
  </mask>
  <g mask="url(#mask1_227_25590)">
    <path d="M93.9607 18.7051H77.6311C74.4451 18.7051 71.8623 21.2879 71.8623 24.4739V40.8035C71.8623 43.9895 74.4451 46.5723 77.6311 46.5723H93.9607C97.1467 46.5723 99.7295 43.9895 99.7295 40.8035V24.4739C99.7295 21.2879 97.1467 18.7051 93.9607 18.7051Z" fill="black"/>
  </g>
  <path d="M93.3194 46.8066H100.015V40.1114H93.3194V46.8066Z" fill="black"/>
  <path d="M20.1183 46.8066H26.8135V40.1114H20.1183V46.8066Z" fill="black"/>
  <path d="M13.5004 93.4062L106.425 93.4062V53.2687L13.5004 53.2687V93.4062Z" fill="#13BC6F"/>
  <path d="M45.2061 66.6191H8.74879C4.09765 66.6191 0.327148 70.3896 0.327148 75.0408V84.9952C0.327148 89.6463 4.09765 93.4168 8.74879 93.4168H45.2061C49.8572 93.4168 53.6277 89.6463 53.6277 84.9952V75.0408C53.6277 70.3896 49.8572 66.6191 45.2061 66.6191Z" fill="#13BC6F"/>
  <path d="M111.554 66.6191H75.0964C70.4453 66.6191 66.6748 70.3896 66.6748 75.0408V84.9867C66.6748 89.6379 70.4453 93.4084 75.0964 93.4084H111.554C116.205 93.4084 119.975 89.6379 119.975 84.9867V75.0408C119.975 70.3896 116.205 66.6191 111.554 66.6191Z" fill="#13BC6F"/>
  <path d="M18.552 66.6152H21.7438C24.5314 66.6152 26.7968 68.8807 26.7968 71.6682V93.4045H18.552C15.7644 93.4045 13.499 91.1391 13.499 88.3515V71.6682C13.499 68.8807 15.7644 66.6152 18.552 66.6152Z" fill="#21D789"/>
  <path d="M26.8076 79.9277H35.0524C37.84 79.9277 40.1054 82.1932 40.1054 84.9807V94.5561C40.1054 97.3437 37.84 99.6091 35.0524 99.6091H26.8076V79.9277Z" fill="#21D789"/>
  <path d="M41.9989 93.4062H31.8508C29.0602 93.4062 26.7979 95.6685 26.7979 98.4592V101.508C26.7979 104.299 29.0602 106.561 31.8508 106.561H41.9989C44.7896 106.561 47.0519 104.299 47.0519 101.508V98.4592C47.0519 95.6685 44.7896 93.4062 41.9989 93.4062Z" fill="#21D789"/>
  <path d="M101.624 93.3965H93.379V71.6602C93.379 68.8727 95.6444 66.6072 98.432 66.6072H101.624C104.411 66.6072 106.677 68.8727 106.677 71.6602V88.3435C106.677 91.1311 104.411 93.3965 101.624 93.3965Z" fill="#21D789"/>
  <path d="M93.3701 99.6074H85.1253C82.3378 99.6074 80.0723 97.342 80.0723 94.5544V84.979C80.0723 82.1915 82.3378 79.926 85.1253 79.926H93.3701V99.6074Z" fill="#21D789"/>
  <path d="M77.9585 106.568H88.3171C91.1078 106.568 93.3701 104.306 93.3701 101.515V98.4667C93.3701 95.6761 91.1078 93.4138 88.3171 93.4138H77.9585C75.1678 93.4138 72.9055 95.6761 72.9055 98.4667V101.515C72.9055 104.306 75.1678 106.568 77.9585 106.568Z" fill="#21D789"/>
</svg>
