<svg width="121" height="107" viewBox="0 0 121 107" fill="none" xmlns="http://www.w3.org/2000/svg">
<g clip-path="url(#clip0_227_25588)">
<path d="M35.0504 93.4973H5.15357C2.36288 93.4973 0.100586 95.7596 0.100586 98.5503V101.658C0.100586 104.449 2.36288 106.711 5.15357 106.711H35.0504C37.8411 106.711 40.1034 104.449 40.1034 101.658V98.5503C40.1034 95.7596 37.8411 93.4973 35.0504 93.4973Z" fill="#13BC6F"/>
<path d="M114.947 93.4974H85.1262C82.3355 93.4974 80.0732 95.7597 80.0732 98.5504V101.658C80.0732 104.449 82.3355 106.711 85.1262 106.711H114.947C117.738 106.711 120 104.449 120 101.658V98.5504C120 95.7597 117.738 93.4974 114.947 93.4974Z" fill="#13BC6F"/>
<path d="M109.725 26.7258H10.4676C4.74207 26.7258 0.100586 31.3673 0.100586 37.0928V42.988C0.100586 48.7135 4.74207 53.355 10.4676 53.355H109.725C115.451 53.355 120.092 48.7135 120.092 42.988V37.0928C120.092 31.3673 115.451 26.7258 109.725 26.7258Z" fill="#21D789"/>
<path d="M98.3312 0.0910034H74.9443C70.3815 0.0910034 66.6826 3.78986 66.6826 8.35264V31.7395C66.6826 36.3023 70.3815 40.0012 74.9443 40.0012H98.3312C102.894 40.0012 106.593 36.3023 106.593 31.7395V8.35264C106.593 3.78986 102.894 0.0910034 98.3312 0.0910034Z" fill="#21D789"/>
<path d="M45.1144 0.0910034H21.7275C17.1647 0.0910034 13.4658 3.78986 13.4658 8.35264V31.7395C13.4658 36.3023 17.1647 40.0012 21.7275 40.0012H45.1144C49.6771 40.0012 53.376 36.3023 53.376 31.7395V8.35264C53.376 3.78986 49.6771 0.0910034 45.1144 0.0910034Z" fill="#21D789"/>
<path d="M71.9456 13.4035H49.5693V31.4763H71.9456V13.4035Z" fill="#21D789"/>
<path d="M93.3188 46.5285H26.7373V53.5016H93.3188V46.5285Z" fill="black"/>
<path d="M40.7341 6.966H24.4046C21.2185 6.966 18.6357 9.54879 18.6357 12.7348V29.0644C18.6357 32.2504 21.2185 34.8332 24.4046 34.8332H40.7341C43.9202 34.8332 46.503 32.2504 46.503 29.0644V12.7348C46.503 9.54879 43.9202 6.966 40.7341 6.966Z" fill="white"/>
<mask id="mask0_227_25588" style="mask-type:luminance" maskUnits="userSpaceOnUse" x="18" y="6" width="29" height="29">
<path d="M40.7341 6.96982H24.4046C21.2185 6.96982 18.6357 9.55261 18.6357 12.7386V29.0682C18.6357 32.2542 21.2185 34.837 24.4046 34.837H40.7341C43.9202 34.837 46.503 32.2542 46.503 29.0682V12.7386C46.503 9.55261 43.9202 6.96982 40.7341 6.96982Z" fill="white"/>
</mask>
<g mask="url(#mask0_227_25588)">
<path d="M40.7341 -3.60263H24.4046C21.2185 -3.60263 18.6357 -1.01984 18.6357 2.16619V18.4958C18.6357 21.6818 21.2185 24.2646 24.4046 24.2646H40.7341C43.9202 24.2646 46.503 21.6818 46.503 18.4958V2.16619C46.503 -1.01984 43.9202 -3.60263 40.7341 -3.60263Z" fill="black"/>
</g>
<path d="M93.9607 6.966H77.6311C74.4451 6.966 71.8623 9.54879 71.8623 12.7348V29.0644C71.8623 32.2504 74.4451 34.8332 77.6311 34.8332H93.9607C97.1467 34.8332 99.7295 32.2504 99.7295 29.0644V12.7348C99.7295 9.54879 97.1467 6.966 93.9607 6.966Z" fill="white"/>
<mask id="mask1_227_25588" style="mask-type:luminance" maskUnits="userSpaceOnUse" x="71" y="6" width="29" height="29">
<path d="M93.9607 6.96991H77.6311C74.4451 6.96991 71.8623 9.5527 71.8623 12.7387V29.0683C71.8623 32.2543 74.4451 34.8371 77.6311 34.8371H93.9607C97.1467 34.8371 99.7295 32.2543 99.7295 29.0683V12.7387C99.7295 9.5527 97.1467 6.96991 93.9607 6.96991Z" fill="white"/>
</mask>
<g mask="url(#mask1_227_25588)">
<path d="M93.9607 -3.60254H77.6311C74.4451 -3.60254 71.8623 -1.01975 71.8623 2.16629V18.4959C71.8623 21.6819 74.4451 24.2647 77.6311 24.2647H93.9607C97.1467 24.2647 99.7295 21.6819 99.7295 18.4959V2.16629C99.7295 -1.01975 97.1467 -3.60254 93.9607 -3.60254Z" fill="black"/>
</g>
<path d="M93.3194 46.8976H100.015V40.2024H93.3194V46.8976Z" fill="black"/>
<path d="M20.1183 46.8976H26.8135V40.2024H20.1183V46.8976Z" fill="black"/>
<path d="M13.5004 93.4974L106.425 93.4974V53.3598L13.5004 53.3598V93.4974Z" fill="#13BC6F"/>
<path d="M45.2061 66.7101H8.74879C4.09765 66.7101 0.327148 70.4806 0.327148 75.1318V85.0862C0.327148 89.7373 4.09765 93.5078 8.74879 93.5078H45.2061C49.8572 93.5078 53.6277 89.7373 53.6277 85.0862V75.1318C53.6277 70.4806 49.8572 66.7101 45.2061 66.7101Z" fill="#13BC6F"/>
<path d="M111.554 66.7101H75.0964C70.4453 66.7101 66.6748 70.4806 66.6748 75.1318V85.0778C66.6748 89.7289 70.4453 93.4994 75.0964 93.4994H111.554C116.205 93.4994 119.975 89.7289 119.975 85.0778V75.1318C119.975 70.4806 116.205 66.7101 111.554 66.7101Z" fill="#13BC6F"/>
<path d="M18.552 66.7062H21.7438C24.5314 66.7062 26.7968 68.9717 26.7968 71.7592V93.4955H18.552C15.7644 93.4955 13.499 91.2301 13.499 88.4425V71.7592C13.499 68.9717 15.7644 66.7062 18.552 66.7062Z" fill="#21D789"/>
<path d="M26.8057 80.0187H35.0505C37.838 80.0187 40.1034 82.2842 40.1034 85.0717V94.6471C40.1034 97.4347 37.838 99.7001 35.0505 99.7001H26.8057V80.0187Z" fill="#21D789"/>
<path d="M41.997 93.4973H31.8489C29.0582 93.4973 26.7959 95.7596 26.7959 98.5502V101.599C26.7959 104.39 29.0582 106.652 31.8489 106.652H41.997C44.7877 106.652 47.0499 104.39 47.0499 101.599V98.5502C47.0499 95.7596 44.7877 93.4973 41.997 93.4973Z" fill="#21D789"/>
<path d="M101.624 93.4894H93.379V71.7532C93.379 68.9656 95.6444 66.7002 98.432 66.7002H101.624C104.411 66.7002 106.677 68.9656 106.677 71.7532V88.4365C106.677 91.224 104.411 93.4894 101.624 93.4894Z" fill="#21D789"/>
<path d="M93.3701 99.6965H85.1253C82.3378 99.6965 80.0723 97.431 80.0723 94.6435V85.0681C80.0723 82.2805 82.3378 80.0151 85.1253 80.0151H93.3701V99.6965Z" fill="#21D789"/>
<path d="M77.9585 106.661H88.3171C91.1078 106.661 93.3701 104.399 93.3701 101.608V98.5597C93.3701 95.769 91.1078 93.5067 88.3171 93.5067H77.9585C75.1678 93.5067 72.9055 95.769 72.9055 98.5597V101.608C72.9055 104.399 75.1678 106.661 77.9585 106.661Z" fill="#21D789"/>
</g>
<defs>
<clipPath id="clip0_227_25588">
<rect width="120" height="106.618" fill="white" transform="translate(0.100586 0.0910034)"/>
</clipPath>
</defs>
</svg>
