<svg width="121" height="107" viewBox="0 0 121 107" fill="none" xmlns="http://www.w3.org/2000/svg">
  <g clip-path="url(#clip0_227_25580)">
    <path d="M35.0504 93.4973H5.15357C2.36288 93.4973 0.100586 95.7596 0.100586 98.5503V101.658C0.100586 104.449 2.36288 106.711 5.15357 106.711H35.0504C37.8411 106.711 40.1034 104.449 40.1034 101.658V98.5503C40.1034 95.7596 37.8411 93.4973 35.0504 93.4973Z" fill="#13BC6F"/>
    <path d="M114.947 93.4973H85.1262C82.3355 93.4973 80.0732 95.7596 80.0732 98.5503V101.658C80.0732 104.449 82.3355 106.711 85.1262 106.711H114.947C117.738 106.711 120 104.449 120 101.658V98.5503C120 95.7596 117.738 93.4973 114.947 93.4973Z" fill="#13BC6F"/>
    <path d="M109.725 26.7238H10.4676C4.74207 26.7238 0.100586 31.3653 0.100586 37.0909V42.986C0.100586 48.7116 4.74207 53.3531 10.4676 53.3531H109.725C115.451 53.3531 120.092 48.7116 120.092 42.986V37.0909C120.092 31.3653 115.451 26.7238 109.725 26.7238Z" fill="#21D789"/>
    <path d="M98.3312 0.0949097H74.9443C70.3815 0.0949097 66.6826 3.79377 66.6826 8.35654V31.7434C66.6826 36.3062 70.3815 40.0051 74.9443 40.0051H98.3312C102.894 40.0051 106.593 36.3062 106.593 31.7434V8.35654C106.593 3.79377 102.894 0.0949097 98.3312 0.0949097Z" fill="#21D789"/>
    <path d="M45.1144 0.0949097H21.7275C17.1647 0.0949097 13.4658 3.79377 13.4658 8.35654V31.7434C13.4658 36.3062 17.1647 40.0051 21.7275 40.0051H45.1144C49.6771 40.0051 53.376 36.3062 53.376 31.7434V8.35654C53.376 3.79377 49.6771 0.0949097 45.1144 0.0949097Z" fill="#21D789"/>
    <path d="M71.9456 13.4074H49.5693V31.4803H71.9456V13.4074Z" fill="#21D789"/>
    <path d="M93.3208 46.5324H26.7393V53.5055H93.3208V46.5324Z" fill="black"/>
    <path d="M40.7361 6.966H24.4065C21.2205 6.966 18.6377 9.54879 18.6377 12.7348V29.0644C18.6377 32.2504 21.2205 34.8332 24.4065 34.8332H40.7361C43.9221 34.8332 46.5049 32.2504 46.5049 29.0644V12.7348C46.5049 9.54879 43.9221 6.966 40.7361 6.966Z" fill="white"/>
    <mask id="mask0_227_25580" style="mask-type:luminance" maskUnits="userSpaceOnUse" x="18" y="6" width="29" height="29">
      <path d="M40.7341 6.966H24.4046C21.2185 6.966 18.6357 9.54879 18.6357 12.7348V29.0644C18.6357 32.2504 21.2185 34.8332 24.4046 34.8332H40.7341C43.9202 34.8332 46.503 32.2504 46.503 29.0644V12.7348C46.503 9.54879 43.9202 6.966 40.7341 6.966Z" fill="white"/>
    </mask>
    <g mask="url(#mask0_227_25580)">
      <path d="M33.5974 6.96609H17.2678C14.0818 6.96609 11.499 9.54889 11.499 12.7349V29.0645C11.499 32.2505 14.0818 34.8333 17.2678 34.8333H33.5974C36.7834 34.8333 39.3662 32.2505 39.3662 29.0645V12.7349C39.3662 9.54889 36.7834 6.96609 33.5974 6.96609Z" fill="black"/>
    </g>
    <path d="M93.9607 6.966H77.6311C74.4451 6.966 71.8623 9.54879 71.8623 12.7348V29.0644C71.8623 32.2504 74.4451 34.8332 77.6311 34.8332H93.9607C97.1467 34.8332 99.7295 32.2504 99.7295 29.0644V12.7348C99.7295 9.54879 97.1467 6.966 93.9607 6.966Z" fill="white"/>
    <mask id="mask1_227_25580" style="mask-type:luminance" maskUnits="userSpaceOnUse" x="71" y="6" width="29" height="29">
      <path d="M93.9607 6.966H77.6311C74.4451 6.966 71.8623 9.54879 71.8623 12.7348V29.0644C71.8623 32.2504 74.4451 34.8332 77.6311 34.8332H93.9607C97.1467 34.8332 99.7295 32.2504 99.7295 29.0644V12.7348C99.7295 9.54879 97.1467 6.966 93.9607 6.966Z" fill="white"/>
    </mask>
    <g mask="url(#mask1_227_25580)">
      <path d="M86.824 6.96609H70.4944C67.3084 6.96609 64.7256 9.54889 64.7256 12.7349V29.0645C64.7256 32.2505 67.3084 34.8333 70.4944 34.8333H86.824C90.01 34.8333 92.5928 32.2505 92.5928 29.0645V12.7349C92.5928 9.54889 90.01 6.96609 86.824 6.96609Z" fill="black"/>
    </g>
    <path d="M93.3194 46.8976H100.015V40.2024H93.3194V46.8976Z" fill="black"/>
    <path d="M20.1183 46.8976H26.8135V40.2024H20.1183V46.8976Z" fill="black"/>
    <path d="M13.5004 93.4973L106.425 93.4973V53.3598L13.5004 53.3598V93.4973Z" fill="#13BC6F"/>
    <path d="M45.2061 66.7101H8.74879C4.09765 66.7101 0.327148 70.4806 0.327148 75.1318V85.0862C0.327148 89.7373 4.09765 93.5078 8.74879 93.5078H45.2061C49.8572 93.5078 53.6277 89.7373 53.6277 85.0862V75.1318C53.6277 70.4806 49.8572 66.7101 45.2061 66.7101Z" fill="#13BC6F"/>
    <path d="M111.554 66.7101H75.0964C70.4453 66.7101 66.6748 70.4806 66.6748 75.1318V85.0778C66.6748 89.7289 70.4453 93.4994 75.0964 93.4994H111.554C116.205 93.4994 119.975 89.7289 119.975 85.0778V75.1318C119.975 70.4806 116.205 66.7101 111.554 66.7101Z" fill="#13BC6F"/>
    <path d="M18.552 66.7062H21.7438C24.5314 66.7062 26.7968 68.9717 26.7968 71.7592V93.4955H18.552C15.7644 93.4955 13.499 91.2301 13.499 88.4425V71.7592C13.499 68.9717 15.7644 66.7062 18.552 66.7062Z" fill="#21D789"/>
    <path d="M26.8057 80.0187H35.0505C37.838 80.0187 40.1034 82.2842 40.1034 85.0717V94.6471C40.1034 97.4347 37.838 99.7001 35.0505 99.7001H26.8057V80.0187Z" fill="#21D789"/>
    <path d="M41.9989 93.5031H31.8508C29.0602 93.5031 26.7979 95.7654 26.7979 98.5561V101.605C26.7979 104.395 29.0602 106.658 31.8508 106.658H41.9989C44.7896 106.658 47.0519 104.395 47.0519 101.605V98.5561C47.0519 95.7654 44.7896 93.5031 41.9989 93.5031Z" fill="#21D789"/>
    <path d="M101.624 93.4973H93.379V71.761C93.379 68.9734 95.6444 66.708 98.432 66.708H101.624C104.411 66.708 106.677 68.9734 106.677 71.761V88.4443C106.677 91.2318 104.411 93.4973 101.624 93.4973Z" fill="#21D789"/>
    <path d="M93.3701 99.7082H85.1253C82.3378 99.7082 80.0723 97.4428 80.0723 94.6552V85.0798C80.0723 82.2922 82.3378 80.0268 85.1253 80.0268H93.3701V99.7082Z" fill="#21D789"/>
    <path d="M77.9585 106.657H88.3171C91.1078 106.657 93.3701 104.395 93.3701 101.604V98.5558C93.3701 95.7651 91.1078 93.5028 88.3171 93.5028H77.9585C75.1678 93.5028 72.9055 95.7651 72.9055 98.5558V101.604C72.9055 104.395 75.1678 106.657 77.9585 106.657Z" fill="#21D789"/>
  </g>
  <defs>
    <clipPath id="clip0_227_25580">
      <rect width="120" height="106.618" fill="white" transform="translate(0.100586 0.0910034)"/>
    </clipPath>
  </defs>
</svg>
