<svg width="230" height="107" viewBox="0 0 230 107" fill="none" xmlns="http://www.w3.org/2000/svg">
<path d="M35.0253 93.4963H5.12843C2.33774 93.4963 0.0754395 95.7586 0.0754395 98.5493V101.657C0.0754395 104.448 2.33774 106.71 5.12843 106.71H35.0253C37.8159 106.71 40.0782 104.448 40.0782 101.657V98.5493C40.0782 95.7586 37.8159 93.4963 35.0253 93.4963Z" fill="#13BC6F"/>
<path d="M114.922 93.4963H85.1011C82.3104 93.4963 80.0481 95.7586 80.0481 98.5493V101.657C80.0481 104.448 82.3104 106.71 85.1011 106.71H114.922C117.713 106.71 119.975 104.448 119.975 101.657V98.5493C119.975 95.7586 117.713 93.4963 114.922 93.4963Z" fill="#13BC6F"/>
<path d="M109.7 27.01H10.4425C4.71692 27.01 0.0754395 31.6515 0.0754395 37.3771V43.2722C0.0754395 48.9978 4.71692 53.6392 10.4425 53.6392H109.7C115.426 53.6392 120.067 48.9978 120.067 43.2722V37.3771C120.067 31.6515 115.426 27.01 109.7 27.01Z" fill="#21D789"/>
<path d="M98.306 0.0939941H74.9191C70.3563 0.0939941 66.6575 3.79285 66.6575 8.35563V31.7425C66.6575 36.3053 70.3563 40.0042 74.9191 40.0042H98.306C102.869 40.0042 106.568 36.3053 106.568 31.7425V8.35563C106.568 3.79285 102.869 0.0939941 98.306 0.0939941Z" fill="#21D789"/>
<path d="M45.0892 0.0939941H21.7023C17.1395 0.0939941 13.4407 3.79285 13.4407 8.35563V31.7425C13.4407 36.3053 17.1395 40.0042 21.7023 40.0042H45.0892C49.652 40.0042 53.3508 36.3053 53.3508 31.7425V8.35563C53.3508 3.79285 49.652 0.0939941 45.0892 0.0939941Z" fill="#21D789"/>
<path d="M71.9205 13.4065H49.5442V31.4793H71.9205V13.4065Z" fill="#21D789"/>
<path d="M84.8747 40.6096H35.2747V53.4096H84.8747V40.6096Z" fill="black"/>
<path d="M64.2747 40.6096H225.061C227.716 40.6096 229.875 42.7944 229.875 45.4827V48.5365C229.875 51.2248 227.716 53.4096 225.061 53.4096H64.2747V40.6096Z" fill="#6B57FF"/>
<path d="M40.7109 6.9649H24.3814C21.1953 6.9649 18.6125 9.5477 18.6125 12.7337V29.0633C18.6125 32.2493 21.1953 34.8321 24.3814 34.8321H40.7109C43.897 34.8321 46.4798 32.2493 46.4798 29.0633V12.7337C46.4798 9.5477 43.897 6.9649 40.7109 6.9649Z" fill="white"/>
<mask id="mask0_227_25582" style="mask-type:luminance" maskUnits="userSpaceOnUse" x="18" y="6" width="29" height="29">
<path d="M40.709 6.96118H24.3794C21.1934 6.96118 18.6106 9.54397 18.6106 12.73V29.0596C18.6106 32.2456 21.1934 34.8284 24.3794 34.8284H40.709C43.895 34.8284 46.4778 32.2456 46.4778 29.0596V12.73C46.4778 9.54397 43.895 6.96118 40.709 6.96118Z" fill="white"/>
</mask>
<g mask="url(#mask0_227_25582)">
<path d="M48.1875 6.96118H31.8579C28.6719 6.96118 26.0891 9.54397 26.0891 12.73V29.0596C26.0891 32.2456 28.6719 34.8284 31.8579 34.8284H48.1875C51.3735 34.8284 53.9563 32.2456 53.9563 29.0596V12.73C53.9563 9.54397 51.3735 6.96118 48.1875 6.96118Z" fill="black"/>
</g>
<path d="M93.9355 6.9649H77.606C74.4199 6.9649 71.8372 9.5477 71.8372 12.7337V29.0633C71.8372 32.2493 74.4199 34.8321 77.606 34.8321H93.9355C97.1216 34.8321 99.7044 32.2493 99.7044 29.0633V12.7337C99.7044 9.5477 97.1216 6.9649 93.9355 6.9649Z" fill="white"/>
<mask id="mask1_227_25582" style="mask-type:luminance" maskUnits="userSpaceOnUse" x="71" y="6" width="29" height="29">
<path d="M93.9355 6.96118H77.606C74.4199 6.96118 71.8372 9.54397 71.8372 12.73V29.0596C71.8372 32.2456 74.4199 34.8284 77.606 34.8284H93.9355C97.1216 34.8284 99.7044 32.2456 99.7044 29.0596V12.73C99.7044 9.54397 97.1216 6.96118 93.9355 6.96118Z" fill="white"/>
</mask>
<g mask="url(#mask1_227_25582)">
<path d="M101.422 6.96118H85.0923C81.9063 6.96118 79.3235 9.54397 79.3235 12.73V29.0596C79.3235 32.2456 81.9063 34.8284 85.0923 34.8284H101.422C104.608 34.8284 107.191 32.2456 107.191 29.0596V12.73C107.191 9.54397 104.608 6.96118 101.422 6.96118Z" fill="black"/>
</g>
<path d="M13.4753 93.4963L106.4 93.4963V53.3588L13.4753 53.3588V93.4963Z" fill="#13BC6F"/>
<path d="M45.1809 66.7112H8.72364C4.0725 66.7112 0.302002 70.4817 0.302002 75.1328V85.0872C0.302002 89.7384 4.0725 93.5089 8.72364 93.5089H45.1809C49.8321 93.5089 53.6026 89.7384 53.6026 85.0872V75.1328C53.6026 70.4817 49.8321 66.7112 45.1809 66.7112Z" fill="#13BC6F"/>
<path d="M111.529 66.7112H75.0713C70.4202 66.7112 66.6497 70.4817 66.6497 75.1328V85.0788C66.6497 89.7299 70.4202 93.5004 75.0713 93.5004H111.529C116.18 93.5004 119.95 89.7299 119.95 85.0788V75.1328C119.95 70.4817 116.18 66.7112 111.529 66.7112Z" fill="#13BC6F"/>
<path d="M18.5269 66.7092H21.7187C24.5062 66.7092 26.7717 68.9747 26.7717 71.7622V93.4985H18.5269C15.7393 93.4985 13.4739 91.2331 13.4739 88.4455V71.7622C13.4739 68.9747 15.7393 66.7092 18.5269 66.7092Z" fill="#21D789"/>
<path d="M26.7805 80.0217H35.0253C37.8129 80.0217 40.0783 82.2872 40.0783 85.0747V94.6501C40.0783 97.4377 37.8129 99.7031 35.0253 99.7031H26.7805V80.0217Z" fill="#21D789"/>
<path d="M41.9738 93.51H31.8257C29.035 93.51 26.7727 95.7723 26.7727 98.563V101.612C26.7727 104.402 29.035 106.665 31.8257 106.665H41.9738C44.7645 106.665 47.0268 104.402 47.0268 101.612V98.563C47.0268 95.7723 44.7645 93.51 41.9738 93.51Z" fill="#21D789"/>
<path d="M101.599 93.4963H93.3538V71.7601C93.3538 68.9725 95.6193 66.7071 98.4068 66.7071H101.599C104.386 66.7071 106.652 68.9725 106.652 71.7601V88.4434C106.652 91.2309 104.386 93.4963 101.599 93.4963Z" fill="#21D789"/>
<path d="M93.345 99.7073H85.1002C82.3126 99.7073 80.0472 97.4419 80.0472 94.6543V85.0789C80.0472 82.2913 82.3126 80.0259 85.1002 80.0259H93.345V99.7073Z" fill="#21D789"/>
<path d="M77.9334 106.657H88.292C91.0827 106.657 93.345 104.394 93.345 101.604V98.555C93.345 95.7643 91.0827 93.502 88.292 93.502H77.9334C75.1427 93.502 72.8804 95.7643 72.8804 98.555V101.604C72.8804 104.394 75.1427 106.657 77.9334 106.657Z" fill="#21D789"/>
</svg>
