<svg width="231" height="107" viewBox="0 0 231 107" fill="none" xmlns="http://www.w3.org/2000/svg">
<path d="M195.126 93.4963H225.022C227.813 93.4963 230.075 95.7586 230.075 98.5493V101.657C230.075 104.448 227.813 106.71 225.022 106.71H195.126C192.335 106.71 190.073 104.448 190.073 101.657V98.5493C190.073 95.7586 192.335 93.4963 195.126 93.4963Z" fill="#13BC6F"/>
<path d="M115.229 93.4963H145.05C147.84 93.4963 150.103 95.7586 150.103 98.5493V101.657C150.103 104.448 147.84 106.71 145.05 106.71H115.229C112.438 106.71 110.176 104.448 110.176 101.657V98.5493C110.176 95.7586 112.438 93.4963 115.229 93.4963Z" fill="#13BC6F"/>
<path d="M120.451 27.01H219.708C225.434 27.01 230.075 31.6515 230.075 37.3771V43.2722C230.075 48.9978 225.434 53.6392 219.708 53.6392H120.451C114.725 53.6392 110.084 48.9978 110.084 43.2722V37.3771C110.084 31.6515 114.725 27.01 120.451 27.01Z" fill="#21D789"/>
<path d="M131.845 0.0939941H155.232C159.795 0.0939941 163.493 3.79285 163.493 8.35563V31.7425C163.493 36.3053 159.795 40.0042 155.232 40.0042H131.845C127.282 40.0042 123.583 36.3053 123.583 31.7425V8.35563C123.583 3.79285 127.282 0.0939941 131.845 0.0939941Z" fill="#21D789"/>
<path d="M185.062 0.0939941H208.449C213.011 0.0939941 216.71 3.79285 216.71 8.35563V31.7425C216.71 36.3053 213.011 40.0042 208.449 40.0042H185.062C180.499 40.0042 176.8 36.3053 176.8 31.7425V8.35563C176.8 3.79285 180.499 0.0939941 185.062 0.0939941Z" fill="#21D789"/>
<path d="M158.23 13.4065H180.607V31.4793H158.23V13.4065Z" fill="#21D789"/>
<path d="M145.276 40.6096H194.876V53.4096H145.276V40.6096Z" fill="black"/>
<path d="M165.876 40.6096H5.0901C2.43445 40.6096 0.276215 42.7944 0.276215 45.4827V48.5365C0.276215 51.2248 2.43445 53.4096 5.0901 53.4096H165.876V40.6096Z" fill="#6B57FF"/>
<path d="M189.44 6.96484H205.77C208.956 6.96484 211.538 9.54764 211.538 12.7337V29.0632C211.538 32.2493 208.956 34.8321 205.77 34.8321H189.44C186.254 34.8321 183.671 32.2493 183.671 29.0632V12.7337C183.671 9.54764 186.254 6.96484 189.44 6.96484Z" fill="white"/>
<mask id="mask0_276_29118" style="mask-type:luminance" maskUnits="userSpaceOnUse" x="183" y="6" width="29" height="29">
<path d="M189.442 6.96118H205.771C208.957 6.96118 211.54 9.54397 211.54 12.73V29.0596C211.54 32.2456 208.957 34.8284 205.771 34.8284H189.442C186.256 34.8284 183.673 32.2456 183.673 29.0596V12.73C183.673 9.54397 186.256 6.96118 189.442 6.96118Z" fill="white"/>
</mask>
<g mask="url(#mask0_276_29118)">
<path d="M181.963 -1.03882H198.293C201.479 -1.03882 204.062 1.54397 204.062 4.73001V21.0596C204.062 24.2456 201.479 26.8284 198.293 26.8284H181.963C178.777 26.8284 176.195 24.2456 176.195 21.0596V4.73001C176.195 1.54397 178.777 -1.03882 181.963 -1.03882Z" fill="black"/>
</g>
<path d="M136.215 6.9649H152.545C155.731 6.9649 158.314 9.5477 158.314 12.7337V29.0633C158.314 32.2493 155.731 34.8321 152.545 34.8321H136.215C133.029 34.8321 130.447 32.2493 130.447 29.0633V12.7337C130.447 9.5477 133.029 6.9649 136.215 6.9649Z" fill="white"/>
<mask id="mask1_276_29118" style="mask-type:luminance" maskUnits="userSpaceOnUse" x="130" y="6" width="29" height="29">
<path d="M136.215 6.96118H152.545C155.731 6.96118 158.314 9.54397 158.314 12.73V29.0596C158.314 32.2456 155.731 34.8284 152.545 34.8284H136.215C133.029 34.8284 130.447 32.2456 130.447 29.0596V12.73C130.447 9.54397 133.029 6.96118 136.215 6.96118Z" fill="white"/>
</mask>
<g mask="url(#mask1_276_29118)">
<path d="M128.729 -1.03882H145.059C148.245 -1.03882 150.827 1.54397 150.827 4.73001V21.0596C150.827 24.2456 148.245 26.8284 145.059 26.8284H128.729C125.543 26.8284 122.96 24.2456 122.96 21.0596V4.73001C122.96 1.54397 125.543 -1.03882 128.729 -1.03882Z" fill="black"/>
</g>
<path d="M216.676 93.4963L123.751 93.4963V53.3588L216.676 53.3588V93.4963Z" fill="#13BC6F"/>
<path d="M184.97 66.7112H221.427C226.078 66.7112 229.849 70.4817 229.849 75.1328V85.0872C229.849 89.7384 226.078 93.5089 221.427 93.5089H184.97C180.319 93.5089 176.548 89.7384 176.548 85.0872V75.1328C176.548 70.4817 180.319 66.7112 184.97 66.7112Z" fill="#13BC6F"/>
<path d="M118.622 66.7112H155.08C159.731 66.7112 163.501 70.4817 163.501 75.1328V85.0788C163.501 89.7299 159.731 93.5004 155.08 93.5004H118.622C113.971 93.5004 110.201 89.7299 110.201 85.0788V75.1328C110.201 70.4817 113.971 66.7112 118.622 66.7112Z" fill="#13BC6F"/>
<path d="M211.624 66.7092H208.432C205.645 66.7092 203.379 68.9747 203.379 71.7622V93.4985H211.624C214.412 93.4985 216.677 91.2331 216.677 88.4455V71.7622C216.677 68.9747 214.412 66.7092 211.624 66.7092Z" fill="#21D789"/>
<path d="M203.37 80.0217H195.126C192.338 80.0217 190.073 82.2872 190.073 85.0747V94.6501C190.073 97.4377 192.338 99.7031 195.126 99.7031H203.37V80.0217Z" fill="#21D789"/>
<path d="M188.177 93.51H198.325C201.116 93.51 203.378 95.7723 203.378 98.563V101.612C203.378 104.402 201.116 106.665 198.325 106.665H188.177C185.386 106.665 183.124 104.402 183.124 101.612V98.563C183.124 95.7723 185.386 93.51 188.177 93.51Z" fill="#21D789"/>
<path d="M128.552 93.4963H136.797V71.7601C136.797 68.9725 134.532 66.7071 131.744 66.7071H128.552C125.765 66.7071 123.499 68.9725 123.499 71.7601V88.4434C123.499 91.2309 125.765 93.4963 128.552 93.4963Z" fill="#21D789"/>
<path d="M136.806 99.7073H145.051C147.838 99.7073 150.104 97.4419 150.104 94.6543V85.0789C150.104 82.2913 147.838 80.0259 145.051 80.0259H136.806V99.7073Z" fill="#21D789"/>
<path d="M152.218 106.657H141.859C139.068 106.657 136.806 104.394 136.806 101.604V98.555C136.806 95.7643 139.068 93.502 141.859 93.502H152.218C155.008 93.502 157.271 95.7643 157.271 98.555V101.604C157.271 104.394 155.008 106.657 152.218 106.657Z" fill="#21D789"/>
</svg>
