<svg width="230" height="107" viewBox="0 0 230 107" fill="none" xmlns="http://www.w3.org/2000/svg">
<path d="M35.0504 93.4963H5.15357C2.36288 93.4963 0.100586 95.7586 0.100586 98.5493V101.657C0.100586 104.448 2.36288 106.71 5.15357 106.71H35.0504C37.8411 106.71 40.1034 104.448 40.1034 101.657V98.5493C40.1034 95.7586 37.8411 93.4963 35.0504 93.4963Z" fill="#13BC6F"/>
<path d="M114.947 93.4963H85.1262C82.3355 93.4963 80.0732 95.7586 80.0732 98.5493V101.657C80.0732 104.448 82.3355 106.71 85.1262 106.71H114.947C117.738 106.71 120 104.448 120 101.657V98.5493C120 95.7586 117.738 93.4963 114.947 93.4963Z" fill="#13BC6F"/>
<path d="M109.725 27.01H10.4676C4.74207 27.01 0.100586 31.6515 0.100586 37.3771V43.2722C0.100586 48.9978 4.74207 53.6392 10.4676 53.6392H109.725C115.451 53.6392 120.092 48.9978 120.092 43.2722V37.3771C120.092 31.6515 115.451 27.01 109.725 27.01Z" fill="#21D789"/>
<path d="M98.3312 0.0939941H74.9443C70.3815 0.0939941 66.6826 3.79285 66.6826 8.35563V31.7425C66.6826 36.3053 70.3815 40.0042 74.9443 40.0042H98.3312C102.894 40.0042 106.593 36.3053 106.593 31.7425V8.35563C106.593 3.79285 102.894 0.0939941 98.3312 0.0939941Z" fill="#21D789"/>
<path d="M45.1144 0.0939941H21.7275C17.1647 0.0939941 13.4658 3.79285 13.4658 8.35563V31.7425C13.4658 36.3053 17.1647 40.0042 21.7275 40.0042H45.1144C49.6771 40.0042 53.376 36.3053 53.376 31.7425V8.35563C53.376 3.79285 49.6771 0.0939941 45.1144 0.0939941Z" fill="#21D789"/>
<path d="M71.9456 13.4065H49.5693V31.4793H71.9456V13.4065Z" fill="#21D789"/>
<path d="M84.8998 40.6096H35.2998V53.4096H84.8998V40.6096Z" fill="black"/>
<path d="M64.2998 40.6096H225.086C227.742 40.6096 229.9 42.7944 229.9 45.4827V48.5365C229.9 51.2248 227.742 53.4096 225.086 53.4096H64.2998V40.6096Z" fill="#6B57FF"/>
<path d="M40.7361 6.9649H24.4065C21.2205 6.9649 18.6377 9.5477 18.6377 12.7337V29.0633C18.6377 32.2493 21.2205 34.8321 24.4065 34.8321H40.7361C43.9221 34.8321 46.5049 32.2493 46.5049 29.0633V12.7337C46.5049 9.5477 43.9221 6.9649 40.7361 6.9649Z" fill="white"/>
<mask id="mask0_227_25583" style="mask-type:luminance" maskUnits="userSpaceOnUse" x="18" y="6" width="29" height="29">
<path d="M40.7341 6.96118H24.4046C21.2185 6.96118 18.6357 9.54397 18.6357 12.73V29.0596C18.6357 32.2456 21.2185 34.8284 24.4046 34.8284H40.7341C43.9202 34.8284 46.503 32.2456 46.503 29.0596V12.73C46.503 9.54397 43.9202 6.96118 40.7341 6.96118Z" fill="white"/>
</mask>
<g mask="url(#mask0_227_25583)">
<path d="M48.2127 -1.03882H31.8831C28.6971 -1.03882 26.1143 1.54397 26.1143 4.73001V21.0596C26.1143 24.2456 28.6971 26.8284 31.8831 26.8284H48.2127C51.3987 26.8284 53.9815 24.2456 53.9815 21.0596V4.73001C53.9815 1.54397 51.3987 -1.03882 48.2127 -1.03882Z" fill="black"/>
</g>
<path d="M93.9607 6.9649H77.6311C74.4451 6.9649 71.8623 9.5477 71.8623 12.7337V29.0633C71.8623 32.2493 74.4451 34.8321 77.6311 34.8321H93.9607C97.1467 34.8321 99.7295 32.2493 99.7295 29.0633V12.7337C99.7295 9.5477 97.1467 6.9649 93.9607 6.9649Z" fill="white"/>
<mask id="mask1_227_25583" style="mask-type:luminance" maskUnits="userSpaceOnUse" x="71" y="6" width="29" height="29">
<path d="M93.9607 6.96118H77.6311C74.4451 6.96118 71.8623 9.54397 71.8623 12.73V29.0596C71.8623 32.2456 74.4451 34.8284 77.6311 34.8284H93.9607C97.1467 34.8284 99.7295 32.2456 99.7295 29.0596V12.73C99.7295 9.54397 97.1467 6.96118 93.9607 6.96118Z" fill="white"/>
</mask>
<g mask="url(#mask1_227_25583)">
<path d="M101.447 -1.03882H85.1175C81.9314 -1.03882 79.3486 1.54397 79.3486 4.73001V21.0596C79.3486 24.2456 81.9314 26.8284 85.1175 26.8284H101.447C104.633 26.8284 107.216 24.2456 107.216 21.0596V4.73001C107.216 1.54397 104.633 -1.03882 101.447 -1.03882Z" fill="black"/>
</g>
<path d="M13.5004 93.4963L106.425 93.4963V53.3588L13.5004 53.3588V93.4963Z" fill="#13BC6F"/>
<path d="M45.2061 66.7112H8.74879C4.09765 66.7112 0.327148 70.4817 0.327148 75.1328V85.0872C0.327148 89.7384 4.09765 93.5089 8.74879 93.5089H45.2061C49.8572 93.5089 53.6277 89.7384 53.6277 85.0872V75.1328C53.6277 70.4817 49.8572 66.7112 45.2061 66.7112Z" fill="#13BC6F"/>
<path d="M111.554 66.7112H75.0964C70.4453 66.7112 66.6748 70.4817 66.6748 75.1328V85.0788C66.6748 89.7299 70.4453 93.5004 75.0964 93.5004H111.554C116.205 93.5004 119.975 89.7299 119.975 85.0788V75.1328C119.975 70.4817 116.205 66.7112 111.554 66.7112Z" fill="#13BC6F"/>
<path d="M18.552 66.7092H21.7438C24.5314 66.7092 26.7968 68.9747 26.7968 71.7622V93.4985H18.552C15.7644 93.4985 13.499 91.2331 13.499 88.4455V71.7622C13.499 68.9747 15.7644 66.7092 18.552 66.7092Z" fill="#21D789"/>
<path d="M26.8057 80.0217H35.0505C37.838 80.0217 40.1034 82.2872 40.1034 85.0747V94.6501C40.1034 97.4377 37.838 99.7031 35.0505 99.7031H26.8057V80.0217Z" fill="#21D789"/>
<path d="M41.9989 93.51H31.8508C29.0602 93.51 26.7979 95.7723 26.7979 98.563V101.612C26.7979 104.402 29.0602 106.665 31.8508 106.665H41.9989C44.7896 106.665 47.0519 104.402 47.0519 101.612V98.563C47.0519 95.7723 44.7896 93.51 41.9989 93.51Z" fill="#21D789"/>
<path d="M101.624 93.4963H93.379V71.7601C93.379 68.9725 95.6444 66.7071 98.432 66.7071H101.624C104.411 66.7071 106.677 68.9725 106.677 71.7601V88.4434C106.677 91.2309 104.411 93.4963 101.624 93.4963Z" fill="#21D789"/>
<path d="M93.3701 99.7073H85.1253C82.3378 99.7073 80.0723 97.4419 80.0723 94.6543V85.0789C80.0723 82.2913 82.3378 80.0259 85.1253 80.0259H93.3701V99.7073Z" fill="#21D789"/>
<path d="M77.9585 106.657H88.3171C91.1078 106.657 93.3701 104.394 93.3701 101.604V98.555C93.3701 95.7643 91.1078 93.502 88.3171 93.502H77.9585C75.1678 93.502 72.9055 95.7643 72.9055 98.555V101.604C72.9055 104.394 75.1678 106.657 77.9585 106.657Z" fill="#21D789"/>
</svg>
