<svg width="231" height="107" viewBox="0 0 231 107" fill="none" xmlns="http://www.w3.org/2000/svg">
<path d="M195.1 93.4963H224.997C227.788 93.4963 230.05 95.7586 230.05 98.5493V101.657C230.05 104.448 227.788 106.71 224.997 106.71H195.1C192.31 106.71 190.047 104.448 190.047 101.657V98.5493C190.047 95.7586 192.31 93.4963 195.1 93.4963Z" fill="#13BC6F"/>
<path d="M115.204 93.4963H145.025C147.815 93.4963 150.078 95.7586 150.078 98.5493V101.657C150.078 104.448 147.815 106.71 145.025 106.71H115.204C112.413 106.71 110.151 104.448 110.151 101.657V98.5493C110.151 95.7586 112.413 93.4963 115.204 93.4963Z" fill="#13BC6F"/>
<path d="M120.426 27.01H219.683C225.409 27.01 230.05 31.6515 230.05 37.3771V43.2722C230.05 48.9978 225.409 53.6392 219.683 53.6392H120.426C114.7 53.6392 110.059 48.9978 110.059 43.2722V37.3771C110.059 31.6515 114.7 27.01 120.426 27.01Z" fill="#21D789"/>
<path d="M131.82 0.0939941H155.207C159.769 0.0939941 163.468 3.79285 163.468 8.35563V31.7425C163.468 36.3053 159.769 40.0042 155.207 40.0042H131.82C127.257 40.0042 123.558 36.3053 123.558 31.7425V8.35563C123.558 3.79285 127.257 0.0939941 131.82 0.0939941Z" fill="#21D789"/>
<path d="M185.037 0.0939941H208.423C212.986 0.0939941 216.685 3.79285 216.685 8.35563V31.7425C216.685 36.3053 212.986 40.0042 208.423 40.0042H185.037C180.474 40.0042 176.775 36.3053 176.775 31.7425V8.35563C176.775 3.79285 180.474 0.0939941 185.037 0.0939941Z" fill="#21D789"/>
<path d="M158.205 13.4065H180.582V31.4793H158.205V13.4065Z" fill="#21D789"/>
<path d="M145.251 40.6096H194.851V53.4096H145.251V40.6096Z" fill="black"/>
<path d="M165.851 40.6096H5.06496C2.4093 40.6096 0.251068 42.7944 0.251068 45.4827V48.5365C0.251068 51.2248 2.4093 53.4096 5.06496 53.4096H165.851V40.6096Z" fill="#6B57FF"/>
<path d="M189.415 6.96484H205.744C208.93 6.96484 211.513 9.54764 211.513 12.7337V29.0632C211.513 32.2493 208.93 34.8321 205.744 34.8321H189.415C186.229 34.8321 183.646 32.2493 183.646 29.0632V12.7337C183.646 9.54764 186.229 6.96484 189.415 6.96484Z" fill="white"/>
<mask id="mask0_276_29119" style="mask-type:luminance" maskUnits="userSpaceOnUse" x="183" y="6" width="29" height="29">
<path d="M189.417 6.96118H205.746C208.932 6.96118 211.515 9.54397 211.515 12.73V29.0596C211.515 32.2456 208.932 34.8284 205.746 34.8284H189.417C186.231 34.8284 183.648 32.2456 183.648 29.0596V12.73C183.648 9.54397 186.231 6.96118 189.417 6.96118Z" fill="white"/>
</mask>
<g mask="url(#mask0_276_29119)">
<path d="M181.938 6.96118H198.268C201.454 6.96118 204.037 9.54397 204.037 12.73V29.0596C204.037 32.2456 201.454 34.8284 198.268 34.8284H181.938C178.752 34.8284 176.169 32.2456 176.169 29.0596V12.73C176.169 9.54397 178.752 6.96118 181.938 6.96118Z" fill="black"/>
</g>
<path d="M136.19 6.9649H152.52C155.706 6.9649 158.289 9.5477 158.289 12.7337V29.0633C158.289 32.2493 155.706 34.8321 152.52 34.8321H136.19C133.004 34.8321 130.421 32.2493 130.421 29.0633V12.7337C130.421 9.5477 133.004 6.9649 136.19 6.9649Z" fill="white"/>
<mask id="mask1_276_29119" style="mask-type:luminance" maskUnits="userSpaceOnUse" x="130" y="6" width="29" height="29">
<path d="M136.19 6.96118H152.52C155.706 6.96118 158.289 9.54397 158.289 12.73V29.0596C158.289 32.2456 155.706 34.8284 152.52 34.8284H136.19C133.004 34.8284 130.421 32.2456 130.421 29.0596V12.73C130.421 9.54397 133.004 6.96118 136.19 6.96118Z" fill="white"/>
</mask>
<g mask="url(#mask1_276_29119)">
<path d="M128.704 6.96118H145.033C148.219 6.96118 150.802 9.54397 150.802 12.73V29.0596C150.802 32.2456 148.219 34.8284 145.033 34.8284H128.704C125.518 34.8284 122.935 32.2456 122.935 29.0596V12.73C122.935 9.54397 125.518 6.96118 128.704 6.96118Z" fill="black"/>
</g>
<path d="M216.65 93.4963L123.726 93.4963V53.3588L216.65 53.3588V93.4963Z" fill="#13BC6F"/>
<path d="M184.945 66.7112H221.402C226.053 66.7112 229.824 70.4817 229.824 75.1328V85.0872C229.824 89.7384 226.053 93.5089 221.402 93.5089H184.945C180.294 93.5089 176.523 89.7384 176.523 85.0872V75.1328C176.523 70.4817 180.294 66.7112 184.945 66.7112Z" fill="#13BC6F"/>
<path d="M118.597 66.7112H155.054C159.706 66.7112 163.476 70.4817 163.476 75.1328V85.0788C163.476 89.7299 159.706 93.5004 155.054 93.5004H118.597C113.946 93.5004 110.175 89.7299 110.175 85.0788V75.1328C110.175 70.4817 113.946 66.7112 118.597 66.7112Z" fill="#13BC6F"/>
<path d="M211.599 66.7092H208.407C205.62 66.7092 203.354 68.9747 203.354 71.7622V93.4985H211.599C214.386 93.4985 216.652 91.2331 216.652 88.4455V71.7622C216.652 68.9747 214.386 66.7092 211.599 66.7092Z" fill="#21D789"/>
<path d="M203.345 80.0217H195.1C192.313 80.0217 190.047 82.2872 190.047 85.0747V94.6501C190.047 97.4377 192.313 99.7031 195.1 99.7031H203.345V80.0217Z" fill="#21D789"/>
<path d="M188.152 93.51H198.3C201.091 93.51 203.353 95.7723 203.353 98.563V101.612C203.353 104.402 201.091 106.665 198.3 106.665H188.152C185.361 106.665 183.099 104.402 183.099 101.612V98.563C183.099 95.7723 185.361 93.51 188.152 93.51Z" fill="#21D789"/>
<path d="M128.527 93.4963H136.772V71.7601C136.772 68.9725 134.506 66.7071 131.719 66.7071H128.527C125.74 66.7071 123.474 68.9725 123.474 71.7601V88.4434C123.474 91.2309 125.74 93.4963 128.527 93.4963Z" fill="#21D789"/>
<path d="M136.781 99.7073H145.026C147.813 99.7073 150.079 97.4419 150.079 94.6543V85.0789C150.079 82.2913 147.813 80.0259 145.026 80.0259H136.781V99.7073Z" fill="#21D789"/>
<path d="M152.192 106.657H141.834C139.043 106.657 136.781 104.394 136.781 101.604V98.555C136.781 95.7643 139.043 93.502 141.834 93.502H152.192C154.983 93.502 157.245 95.7643 157.245 98.555V101.604C157.245 104.394 154.983 106.657 152.192 106.657Z" fill="#21D789"/>
</svg>
