<svg width="121" height="107" viewBox="0 0 121 107" fill="none" xmlns="http://www.w3.org/2000/svg">
<g clip-path="url(#clip0_393_30247)">
<path d="M35.0253 93.4973H5.12843C2.33774 93.4973 0.0754395 95.7596 0.0754395 98.5503V101.658C0.0754395 104.449 2.33774 106.711 5.12843 106.711H35.0253C37.8159 106.711 40.0782 104.449 40.0782 101.658V98.5503C40.0782 95.7596 37.8159 93.4973 35.0253 93.4973Z" fill="#13BC6F"/>
<path d="M114.922 93.4974H85.1011C82.3104 93.4974 80.0481 95.7597 80.0481 98.5504V101.658C80.0481 104.449 82.3104 106.711 85.1011 106.711H114.922C117.713 106.711 119.975 104.449 119.975 101.658V98.5504C119.975 95.7597 117.713 93.4974 114.922 93.4974Z" fill="#13BC6F"/>
<path d="M109.7 26.7258H10.4425C4.71692 26.7258 0.0754395 31.3673 0.0754395 37.0928V42.988C0.0754395 48.7135 4.71692 53.355 10.4425 53.355H109.7C115.426 53.355 120.067 48.7135 120.067 42.988V37.0928C120.067 31.3673 115.426 26.7258 109.7 26.7258Z" fill="#21D789"/>
<path d="M98.306 0.0910034H74.9191C70.3563 0.0910034 66.6575 3.78986 66.6575 8.35264V31.7395C66.6575 36.3023 70.3563 40.0012 74.9191 40.0012H98.306C102.869 40.0012 106.568 36.3023 106.568 31.7395V8.35264C106.568 3.78986 102.869 0.0910034 98.306 0.0910034Z" fill="#21D789"/>
<path d="M45.0892 0.0910034H21.7023C17.1395 0.0910034 13.4407 3.78986 13.4407 8.35264V31.7395C13.4407 36.3023 17.1395 40.0012 21.7023 40.0012H45.0892C49.652 40.0012 53.3508 36.3023 53.3508 31.7395V8.35264C53.3508 3.78986 49.652 0.0910034 45.0892 0.0910034Z" fill="#21D789"/>
<path d="M71.9205 13.4035H49.5442V31.4763H71.9205V13.4035Z" fill="#21D789"/>
<path d="M40.709 6.966H24.3794C21.1934 6.966 18.6106 9.54879 18.6106 12.7348V29.0644C18.6106 32.2504 21.1934 34.8332 24.3794 34.8332H40.709C43.895 34.8332 46.4778 32.2504 46.4778 29.0644V12.7348C46.4778 9.54879 43.895 6.966 40.709 6.966Z" fill="white"/>
<mask id="mask0_393_30247" style="mask-type:luminance" maskUnits="userSpaceOnUse" x="18" y="6" width="29" height="29">
<path d="M40.709 6.96982H24.3794C21.1934 6.96982 18.6106 9.55261 18.6106 12.7386V29.0682C18.6106 32.2542 21.1934 34.837 24.3794 34.837H40.709C43.895 34.837 46.4778 32.2542 46.4778 29.0682V12.7386C46.4778 9.55261 43.895 6.96982 40.709 6.96982Z" fill="white"/>
</mask>
<g mask="url(#mask0_393_30247)">
<path d="M40.709 15.2901H24.3794C21.1934 15.2901 18.6106 17.8729 18.6106 21.059V37.3885C18.6106 40.5746 21.1934 43.1573 24.3794 43.1573H40.709C43.895 43.1573 46.4778 40.5746 46.4778 37.3885V21.059C46.4778 17.8729 43.895 15.2901 40.709 15.2901Z" fill="black"/>
</g>
<path d="M93.9355 6.966H77.606C74.4199 6.966 71.8372 9.54879 71.8372 12.7348V29.0644C71.8372 32.2504 74.4199 34.8332 77.606 34.8332H93.9355C97.1216 34.8332 99.7044 32.2504 99.7044 29.0644V12.7348C99.7044 9.54879 97.1216 6.966 93.9355 6.966Z" fill="white"/>
<mask id="mask1_393_30247" style="mask-type:luminance" maskUnits="userSpaceOnUse" x="71" y="6" width="29" height="29">
<path d="M93.9355 6.96991H77.606C74.4199 6.96991 71.8372 9.5527 71.8372 12.7387V29.0683C71.8372 32.2543 74.4199 34.8371 77.606 34.8371H93.9355C97.1216 34.8371 99.7044 32.2543 99.7044 29.0683V12.7387C99.7044 9.5527 97.1216 6.96991 93.9355 6.96991Z" fill="white"/>
</mask>
<g mask="url(#mask1_393_30247)">
<path d="M93.9355 15.2902H77.606C74.4199 15.2902 71.8372 17.873 71.8372 21.059V37.3886C71.8372 40.5746 74.4199 43.1574 77.606 43.1574H93.9355C97.1216 43.1574 99.7044 40.5746 99.7044 37.3886V21.059C99.7044 17.873 97.1216 15.2902 93.9355 15.2902Z" fill="black"/>
</g>
<path d="M13.4753 93.4974L106.4 93.4974V53.3598L13.4753 53.3598V93.4974Z" fill="#13BC6F"/>
<path d="M45.1809 66.7101H8.72364C4.0725 66.7101 0.302002 70.4806 0.302002 75.1318V85.0862C0.302002 89.7373 4.0725 93.5078 8.72364 93.5078H45.1809C49.8321 93.5078 53.6026 89.7373 53.6026 85.0862V75.1318C53.6026 70.4806 49.8321 66.7101 45.1809 66.7101Z" fill="#13BC6F"/>
<path d="M111.529 66.7101H75.0713C70.4202 66.7101 66.6497 70.4806 66.6497 75.1318V85.0778C66.6497 89.7289 70.4202 93.4994 75.0713 93.4994H111.529C116.18 93.4994 119.95 89.7289 119.95 85.0778V75.1318C119.95 70.4806 116.18 66.7101 111.529 66.7101Z" fill="#13BC6F"/>
<path d="M18.5269 66.7062H21.7187C24.5062 66.7062 26.7717 68.9717 26.7717 71.7592V93.4955H18.5269C15.7393 93.4955 13.4739 91.2301 13.4739 88.4425V71.7592C13.4739 68.9717 15.7393 66.7062 18.5269 66.7062Z" fill="#21D789"/>
<path d="M26.7805 80.0187H35.0253C37.8129 80.0187 40.0783 82.2842 40.0783 85.0717V94.6471C40.0783 97.4347 37.8129 99.7001 35.0253 99.7001H26.7805V80.0187Z" fill="#21D789"/>
<path d="M41.9718 93.4973H31.8237C29.0331 93.4973 26.7708 95.7596 26.7708 98.5502V101.599C26.7708 104.39 29.0331 106.652 31.8237 106.652H41.9718C44.7625 106.652 47.0248 104.39 47.0248 101.599V98.5502C47.0248 95.7596 44.7625 93.4973 41.9718 93.4973Z" fill="#21D789"/>
<path d="M93.2937 46.4914H26.7122V53.4645H93.2937V46.4914Z" fill="black"/>
<path d="M93.2943 59.5871H99.9895V52.8919H93.2943V59.5871Z" fill="black"/>
<path d="M20.0931 59.5871H26.7883V52.8919H20.0931V59.5871Z" fill="black"/>
<path d="M101.599 93.4894H93.3538V71.7532C93.3538 68.9656 95.6193 66.7002 98.4068 66.7002H101.599C104.386 66.7002 106.652 68.9656 106.652 71.7532V88.4365C106.652 91.224 104.386 93.4894 101.599 93.4894Z" fill="#21D789"/>
<path d="M93.345 99.6965H85.1002C82.3126 99.6965 80.0472 97.431 80.0472 94.6435V85.0681C80.0472 82.2805 82.3126 80.0151 85.1002 80.0151H93.345V99.6965Z" fill="#21D789"/>
<path d="M77.9334 106.661H88.292C91.0827 106.661 93.345 104.399 93.345 101.608V98.5597C93.345 95.769 91.0827 93.5067 88.292 93.5067H77.9334C75.1427 93.5067 72.8804 95.769 72.8804 98.5597V101.608C72.8804 104.399 75.1427 106.661 77.9334 106.661Z" fill="#21D789"/>
</g>
<defs>
<clipPath id="clip0_393_30247">
<rect width="120" height="106.618" fill="white" transform="translate(0.0754395 0.0910034)"/>
</clipPath>
</defs>
</svg>
