<svg width="146" height="145" viewBox="0 0 146 145" fill="none" xmlns="http://www.w3.org/2000/svg">
<g clip-path="url(#clip0_23323_293)">
<path d="M72.2818 7.17709C72.7535 7.06077 73.2465 7.06077 73.7182 7.17709L138.125 23.0582C140.153 23.5583 140.153 26.4417 138.125 26.9418L73.7182 42.8229C73.2465 42.9392 72.7535 42.9392 72.2818 42.8229L7.87523 26.9418C5.84698 26.4417 5.84699 23.5583 7.87524 23.0582L72.2818 7.17709Z" fill="#6B57FF"/>
<path d="M53 33C53 27.4772 57.4772 23 63 23L83 23C88.5228 23 93 27.4772 93 33L93 59L53 59L53 33Z" fill="#5844EE"/>
<rect x="10" y="26" width="4" height="21" fill="#6B57FF"/>
<path d="M5 44C5 40.6863 7.68629 38 11 38H13C16.3137 38 19 40.6863 19 44V57H5V44Z" fill="#5844EE"/>
<g clip-path="url(#clip1_23323_293)">
<path d="M47.9498 131.402H18.053C15.2623 131.402 13 133.665 13 136.455V139.563C13 142.354 15.2623 144.616 18.053 144.616H47.9498C50.7405 144.616 53.0028 142.354 53.0028 139.563V136.455C53.0028 133.665 50.7405 131.402 47.9498 131.402Z" fill="#13BC6F"/>
<path d="M127.847 131.402H98.0256C95.235 131.402 92.9727 133.665 92.9727 136.455V139.563C92.9727 142.354 95.235 144.616 98.0256 144.616H127.847C130.637 144.616 132.9 142.354 132.9 139.563V136.455C132.9 133.665 130.637 131.402 127.847 131.402Z" fill="#13BC6F"/>
<path d="M122.625 64.6289H23.367C17.6415 64.6289 13 69.2704 13 74.9959V80.8911C13 86.6167 17.6415 91.2581 23.367 91.2581H122.625C128.35 91.2581 132.992 86.6167 132.992 80.8911V74.9959C132.992 69.2704 128.35 64.6289 122.625 64.6289Z" fill="#21D789"/>
<path d="M111.231 38H87.8437C83.2809 38 79.582 41.6989 79.582 46.2616V69.6485C79.582 74.2113 83.2809 77.9102 87.8437 77.9102H111.231C115.793 77.9102 119.492 74.2113 119.492 69.6485V46.2616C119.492 41.6989 115.793 38 111.231 38Z" fill="#21D789"/>
<path d="M58.0138 38H34.6269C30.0641 38 26.3652 41.6989 26.3652 46.2616V69.6485C26.3652 74.2113 30.0641 77.9102 34.6269 77.9102H58.0138C62.5765 77.9102 66.2754 74.2113 66.2754 69.6485V46.2616C66.2754 41.6989 62.5765 38 58.0138 38Z" fill="#21D789"/>
<path d="M84.8451 51.3125H62.4688V69.3853H84.8451V51.3125Z" fill="#21D789"/>
<path d="M106.218 84.4375H39.6367V91.4106H106.218V84.4375Z" fill="black"/>
<path d="M53.6355 44.8709H37.3059C34.1199 44.8709 31.5371 47.4537 31.5371 50.6397V66.9693C31.5371 70.1553 34.1199 72.7381 37.3059 72.7381H53.6355C56.8215 72.7381 59.4043 70.1553 59.4043 66.9693V50.6397C59.4043 47.4537 56.8215 44.8709 53.6355 44.8709Z" fill="white"/>
<mask id="mask0_23323_293" style="mask-type:luminance" maskUnits="userSpaceOnUse" x="31" y="44" width="29" height="29">
<path d="M53.6335 44.8672H37.304C34.1179 44.8672 31.5352 47.45 31.5352 50.636V66.9656C31.5352 70.1516 34.1179 72.7344 37.304 72.7344H53.6335C56.8196 72.7344 59.4024 70.1516 59.4024 66.9656V50.636C59.4024 47.45 56.8196 44.8672 53.6335 44.8672Z" fill="white"/>
</mask>
<g mask="url(#mask0_23323_293)">
<path d="M61.1121 44.8672H44.7825C41.5965 44.8672 39.0137 47.45 39.0137 50.636V66.9656C39.0137 70.1516 41.5965 72.7344 44.7825 72.7344H61.1121C64.2981 72.7344 66.8809 70.1516 66.8809 66.9656V50.636C66.8809 47.45 64.2981 44.8672 61.1121 44.8672Z" fill="black"/>
</g>
<path d="M106.86 44.8709H90.5305C87.3445 44.8709 84.7617 47.4537 84.7617 50.6397V66.9693C84.7617 70.1553 87.3445 72.7381 90.5305 72.7381H106.86C110.046 72.7381 112.629 70.1553 112.629 66.9693V50.6397C112.629 47.4537 110.046 44.8709 106.86 44.8709Z" fill="white"/>
<mask id="mask1_23323_293" style="mask-type:luminance" maskUnits="userSpaceOnUse" x="84" y="44" width="29" height="29">
<path d="M106.86 44.8672H90.5305C87.3445 44.8672 84.7617 47.45 84.7617 50.636V66.9656C84.7617 70.1516 87.3445 72.7344 90.5305 72.7344H106.86C110.046 72.7344 112.629 70.1516 112.629 66.9656V50.636C112.629 47.45 110.046 44.8672 106.86 44.8672Z" fill="white"/>
</mask>
<g mask="url(#mask1_23323_293)">
<path d="M114.346 44.8672H98.0169C94.8308 44.8672 92.248 47.45 92.248 50.636V66.9656C92.248 70.1516 94.8308 72.7344 98.0169 72.7344H114.346C117.532 72.7344 120.115 70.1516 120.115 66.9656V50.636C120.115 47.45 117.532 44.8672 114.346 44.8672Z" fill="black"/>
</g>
<path d="M106.219 84.8047H112.914V78.1095H106.219V84.8047Z" fill="black"/>
<path d="M33.0177 84.8047H39.7129V78.1095H33.0177V84.8047Z" fill="black"/>
<path d="M26.3998 131.402H119.324V91.2648L26.3998 91.2648V131.402Z" fill="#13BC6F"/>
<path d="M58.1055 104.617H21.6482C16.9971 104.617 13.2266 108.388 13.2266 113.039V122.993C13.2266 127.644 16.9971 131.415 21.6482 131.415H58.1055C62.7566 131.415 66.5271 127.644 66.5271 122.993V113.039C66.5271 108.388 62.7566 104.617 58.1055 104.617Z" fill="#13BC6F"/>
<path d="M124.453 104.617H87.9959C83.3447 104.617 79.5742 108.388 79.5742 113.039V122.985C79.5742 127.636 83.3447 131.406 87.9959 131.406H124.453C129.104 131.406 132.875 127.636 132.875 122.985V113.039C132.875 108.388 129.104 104.617 124.453 104.617Z" fill="#13BC6F"/>
<path d="M31.4514 104.615H34.6432C37.4308 104.615 39.6962 106.881 39.6962 109.668V131.404H31.4514C28.6639 131.404 26.3984 129.139 26.3984 126.351V109.668C26.3984 106.881 28.6639 104.615 31.4514 104.615Z" fill="#21D789"/>
<path d="M39.7051 117.928H47.9499C50.7374 117.928 53.0029 120.193 53.0029 122.981V132.556C53.0029 135.344 50.7374 137.609 47.9499 137.609H39.7051V117.928Z" fill="#21D789"/>
<path d="M54.8983 131.416H44.7503C41.9596 131.416 39.6973 133.678 39.6973 136.469V139.518C39.6973 142.308 41.9596 144.571 44.7503 144.571H54.8983C57.689 144.571 59.9513 142.308 59.9513 139.518V136.469C59.9513 133.678 57.689 131.416 54.8983 131.416Z" fill="#21D789"/>
<path d="M114.523 131.402H106.278V109.666C106.278 106.879 108.544 104.613 111.331 104.613H114.523C117.311 104.613 119.576 106.879 119.576 109.666V126.349C119.576 129.137 117.311 131.402 114.523 131.402Z" fill="#21D789"/>
<path d="M106.27 137.613H98.0247C95.2372 137.613 92.9718 135.348 92.9718 132.56V122.985C92.9718 120.197 95.2372 117.932 98.0247 117.932H106.27V137.613Z" fill="#21D789"/>
<path d="M90.8579 144.563H101.217C104.007 144.563 106.27 142.3 106.27 139.51V136.461C106.27 133.67 104.007 131.408 101.217 131.408H90.8579C88.0672 131.408 85.8049 133.67 85.8049 136.461V139.51C85.8049 142.3 88.0672 144.563 90.8579 144.563Z" fill="#21D789"/>
</g>
</g>
<defs>
<clipPath id="clip0_23323_293">
<rect width="146" height="144.618" fill="white"/>
</clipPath>
<clipPath id="clip1_23323_293">
<rect width="120" height="106.618" fill="white" transform="translate(13 38)"/>
</clipPath>
</defs>
</svg>
