<svg width="146" height="145" viewBox="0 0 146 145" fill="none" xmlns="http://www.w3.org/2000/svg">
<path d="M72.2818 7.17709C72.7535 7.06077 73.2465 7.06077 73.7182 7.17709L138.125 23.0582C140.153 23.5583 140.153 26.4417 138.125 26.9418L73.7182 42.8229C73.2465 42.9392 72.7535 42.9392 72.2818 42.8229L7.87523 26.9418C5.84698 26.4417 5.84699 23.5583 7.87524 23.0582L72.2818 7.17709Z" fill="#6B57FF"/>
<path d="M53 33C53 27.4772 57.4772 23 63 23L83 23C88.5228 23 93 27.4772 93 33L93 59L53 59L53 33Z" fill="#5844EE"/>
<rect x="10" y="26" width="4" height="21" fill="#6B57FF"/>
<path d="M5 44C5 40.6863 7.68629 38 11 38H13C16.3137 38 19 40.6863 19 44V57H5V44Z" fill="#5844EE"/>
<g clip-path="url(#clip0_23323_289)">
<path d="M47.9498 131.406H18.053C15.2623 131.406 13 133.669 13 136.459V139.567C13 142.358 15.2623 144.62 18.053 144.62H47.9498C50.7405 144.62 53.0028 142.358 53.0028 139.567V136.459C53.0028 133.669 50.7405 131.406 47.9498 131.406Z" fill="#13BC6F"/>
<path d="M127.847 131.406H98.0256C95.235 131.406 92.9727 133.669 92.9727 136.459V139.567C92.9727 142.358 95.235 144.62 98.0256 144.62H127.847C130.637 144.62 132.9 142.358 132.9 139.567V136.459C132.9 133.669 130.637 131.406 127.847 131.406Z" fill="#13BC6F"/>
<path d="M122.625 64.6348H23.367C17.6415 64.6348 13 69.2762 13 75.0018V80.897C13 86.6225 17.6415 91.264 23.367 91.264H122.625C128.35 91.264 132.992 86.6225 132.992 80.897V75.0018C132.992 69.2762 128.35 64.6348 122.625 64.6348Z" fill="#21D789"/>
<path d="M111.231 38H87.8437C83.2809 38 79.582 41.6989 79.582 46.2616V69.6485C79.582 74.2113 83.2809 77.9102 87.8437 77.9102H111.231C115.793 77.9102 119.492 74.2113 119.492 69.6485V46.2616C119.492 41.6989 115.793 38 111.231 38Z" fill="#21D789"/>
<path d="M58.0138 38H34.6269C30.0641 38 26.3652 41.6989 26.3652 46.2616V69.6485C26.3652 74.2113 30.0641 77.9102 34.6269 77.9102H58.0138C62.5765 77.9102 66.2754 74.2113 66.2754 69.6485V46.2616C66.2754 41.6989 62.5765 38 58.0138 38Z" fill="#21D789"/>
<path d="M84.8451 51.3125H62.4688V69.3853H84.8451V51.3125Z" fill="#21D789"/>
<path d="M53.6335 44.875H37.304C34.1179 44.875 31.5352 47.4578 31.5352 50.6438V66.9734C31.5352 70.1594 34.1179 72.7422 37.304 72.7422H53.6335C56.8196 72.7422 59.4024 70.1594 59.4024 66.9734V50.6438C59.4024 47.4578 56.8196 44.875 53.6335 44.875Z" fill="white"/>
<mask id="mask0_23323_289" style="mask-type:luminance" maskUnits="userSpaceOnUse" x="31" y="44" width="29" height="29">
<path d="M53.6335 44.8788H37.304C34.1179 44.8788 31.5352 47.4616 31.5352 50.6476V66.9772C31.5352 70.1632 34.1179 72.746 37.304 72.746H53.6335C56.8196 72.746 59.4024 70.1632 59.4024 66.9772V50.6476C59.4024 47.4616 56.8196 44.8788 53.6335 44.8788Z" fill="white"/>
</mask>
<g mask="url(#mask0_23323_289)">
<path d="M53.6335 53.1991H37.304C34.1179 53.1991 31.5352 55.7819 31.5352 58.968V75.2975C31.5352 78.4836 34.1179 81.0664 37.304 81.0664H53.6335C56.8196 81.0664 59.4024 78.4836 59.4024 75.2975V58.968C59.4024 55.7819 56.8196 53.1991 53.6335 53.1991Z" fill="black"/>
</g>
<path d="M106.86 44.875H90.5305C87.3445 44.875 84.7617 47.4578 84.7617 50.6438V66.9734C84.7617 70.1594 87.3445 72.7422 90.5305 72.7422H106.86C110.046 72.7422 112.629 70.1594 112.629 66.9734V50.6438C112.629 47.4578 110.046 44.875 106.86 44.875Z" fill="white"/>
<mask id="mask1_23323_289" style="mask-type:luminance" maskUnits="userSpaceOnUse" x="84" y="44" width="29" height="29">
<path d="M106.86 44.8789H90.5305C87.3445 44.8789 84.7617 47.4617 84.7617 50.6477V66.9773C84.7617 70.1633 87.3445 72.7461 90.5305 72.7461H106.86C110.046 72.7461 112.629 70.1633 112.629 66.9773V50.6477C112.629 47.4617 110.046 44.8789 106.86 44.8789Z" fill="white"/>
</mask>
<g mask="url(#mask1_23323_289)">
<path d="M106.86 53.1992H90.5305C87.3445 53.1992 84.7617 55.782 84.7617 58.968V75.2976C84.7617 78.4836 87.3445 81.0664 90.5305 81.0664H106.86C110.046 81.0664 112.629 78.4836 112.629 75.2976V58.968C112.629 55.782 110.046 53.1992 106.86 53.1992Z" fill="black"/>
</g>
<path d="M26.3998 131.406H119.324V91.2688L26.3998 91.2688V131.406Z" fill="#13BC6F"/>
<path d="M58.1055 104.619H21.6482C16.9971 104.619 13.2266 108.39 13.2266 113.041V122.995C13.2266 127.646 16.9971 131.417 21.6482 131.417H58.1055C62.7566 131.417 66.5271 127.646 66.5271 122.995V113.041C66.5271 108.39 62.7566 104.619 58.1055 104.619Z" fill="#13BC6F"/>
<path d="M124.453 104.619H87.9959C83.3447 104.619 79.5742 108.39 79.5742 113.041V122.987C79.5742 127.638 83.3447 131.408 87.9959 131.408H124.453C129.104 131.408 132.875 127.638 132.875 122.987V113.041C132.875 108.39 129.104 104.619 124.453 104.619Z" fill="#13BC6F"/>
<path d="M31.4514 104.615H34.6432C37.4308 104.615 39.6962 106.881 39.6962 109.668V131.404H31.4514C28.6639 131.404 26.3984 129.139 26.3984 126.351V109.668C26.3984 106.881 28.6639 104.615 31.4514 104.615Z" fill="#21D789"/>
<path d="M39.7051 117.928H47.9499C50.7374 117.928 53.0029 120.193 53.0029 122.981V132.556C53.0029 135.344 50.7374 137.609 47.9499 137.609H39.7051V117.928Z" fill="#21D789"/>
<path d="M54.8964 131.406H44.7483C41.9576 131.406 39.6953 133.669 39.6953 136.459V139.508C39.6953 142.299 41.9576 144.561 44.7483 144.561H54.8964C57.6871 144.561 59.9494 142.299 59.9494 139.508V136.459C59.9494 133.669 57.6871 131.406 54.8964 131.406Z" fill="#21D789"/>
<path d="M106.218 84.4004H39.6367V91.3735H106.218V84.4004Z" fill="black"/>
<path d="M106.219 97.4961H112.914V90.8009H106.219V97.4961Z" fill="black"/>
<path d="M33.0177 97.4961H39.7129V90.8009H33.0177V97.4961Z" fill="black"/>
<path d="M114.523 131.398H106.278V109.662C106.278 106.875 108.544 104.609 111.331 104.609H114.523C117.311 104.609 119.576 106.875 119.576 109.662V126.345C119.576 129.133 117.311 131.398 114.523 131.398Z" fill="#21D789"/>
<path d="M106.27 137.605H98.0247C95.2372 137.605 92.9718 135.34 92.9718 132.552V122.977C92.9718 120.19 95.2372 117.924 98.0247 117.924H106.27V137.605Z" fill="#21D789"/>
<path d="M90.8579 144.57H101.217C104.007 144.57 106.27 142.308 106.27 139.517V136.469C106.27 133.678 104.007 131.416 101.217 131.416H90.8579C88.0672 131.416 85.8049 133.678 85.8049 136.469V139.517C85.8049 142.308 88.0672 144.57 90.8579 144.57Z" fill="#21D789"/>
</g>
<defs>
<clipPath id="clip0_23323_289">
<rect width="120" height="106.618" fill="white" transform="translate(13 38)"/>
</clipPath>
</defs>
</svg>
