<svg width="155" height="148" viewBox="0 0 155 148" fill="none" xmlns="http://www.w3.org/2000/svg">
<path d="M81.0688 10.2351C81.5522 10.1855 82.0403 10.2541 82.4913 10.435L144.061 35.1251C146 35.9027 145.598 38.758 143.52 38.971L77.5304 45.7339C77.047 45.7834 76.5589 45.7148 76.1079 45.534L14.5384 20.8438C12.5994 20.0663 13.0008 17.2109 15.0789 16.9979L81.0688 10.2351Z" fill="#6B57FF"/>
<path d="M58.3807 33.1231C59.1494 27.654 64.206 23.8436 69.6751 24.6122L89.4805 27.3957C94.9496 28.1643 98.7601 33.221 97.9915 38.6901L94.373 64.437L54.7622 58.8701L58.3807 33.1231Z" fill="#5844EE"/>
<rect x="16" y="21" width="4" height="21" fill="#6B57FF"/>
<path d="M11 39C11 35.6863 13.6863 33 17 33L19 33C22.3137 33 25 35.6863 25 39L25 52L11 52L11 39Z" fill="#5844EE"/>
<path d="M47.9498 134.406H18.053C15.2623 134.406 13 136.669 13 139.459V142.567C13 145.358 15.2623 147.62 18.053 147.62H47.9498C50.7405 147.62 53.0028 145.358 53.0028 142.567V139.459C53.0028 136.669 50.7405 134.406 47.9498 134.406Z" fill="#13BC6F"/>
<path d="M127.847 134.406H98.0256C95.235 134.406 92.9727 136.669 92.9727 139.459V142.567C92.9727 145.358 95.235 147.62 98.0256 147.62H127.847C130.637 147.62 132.9 145.358 132.9 142.567V139.459C132.9 136.669 130.637 134.406 127.847 134.406Z" fill="#13BC6F"/>
<path d="M26.3998 134.406H119.324V82.3679L26.3998 82.3679V134.406Z" fill="#13BC6F"/>
<path d="M58.1055 107.616H21.6482C16.9971 107.616 13.2266 111.387 13.2266 116.038V125.992C13.2266 130.643 16.9971 134.414 21.6482 134.414H58.1055C62.7566 134.414 66.5271 130.643 66.5271 125.992V116.038C66.5271 111.387 62.7566 107.616 58.1055 107.616Z" fill="#13BC6F"/>
<path d="M124.453 107.616H87.9959C83.3447 107.616 79.5742 111.387 79.5742 116.038V125.984C79.5742 130.635 83.3447 134.405 87.9959 134.405H124.453C129.104 134.405 132.875 130.635 132.875 125.984V116.038C132.875 111.387 129.104 107.616 124.453 107.616Z" fill="#13BC6F"/>
<path d="M31.4514 107.615H34.6432C37.4308 107.615 39.6962 109.881 39.6962 112.668V134.404H31.4514C28.6639 134.404 26.3984 132.139 26.3984 129.351V112.668C26.3984 109.881 28.6639 107.615 31.4514 107.615Z" fill="#21D789"/>
<path d="M39.7051 120.928H47.9499C50.7374 120.928 53.0029 123.193 53.0029 125.981V135.556C53.0029 138.344 50.7374 140.609 47.9499 140.609H39.7051V120.928Z" fill="#21D789"/>
<path d="M54.8983 134.406H44.7503C41.9596 134.406 39.6973 136.669 39.6973 139.459V142.508C39.6973 145.299 41.9596 147.561 44.7503 147.561H54.8983C57.689 147.561 59.9513 145.299 59.9513 142.508V139.459C59.9513 136.669 57.689 134.406 54.8983 134.406Z" fill="#21D789"/>
<path d="M114.523 134.397H106.278V112.661C106.278 109.874 108.544 107.608 111.331 107.608H114.523C117.311 107.608 119.576 109.874 119.576 112.661V129.344C119.576 132.132 117.311 134.397 114.523 134.397Z" fill="#21D789"/>
<path d="M106.27 140.603H98.0247C95.2372 140.603 92.9718 138.338 92.9718 135.55V125.975C92.9718 123.187 95.2372 120.922 98.0247 120.922H106.27V140.603Z" fill="#21D789"/>
<path d="M90.8579 147.569H101.217C104.007 147.569 106.27 145.307 106.27 142.516V139.468C106.27 136.677 104.007 134.415 101.217 134.415H90.8579C88.0672 134.415 85.8049 136.677 85.8049 139.468V142.516C85.8049 145.307 88.0672 147.569 90.8579 147.569Z" fill="#21D789"/>
<path d="M122.759 75.4966L25.4913 61.8784C19.8805 61.0929 14.6952 65.0045 13.9097 70.6153L13.1008 76.3923C12.3153 82.0031 16.2269 87.1883 21.8377 87.9739L119.106 101.592C124.716 102.378 129.902 98.466 130.687 92.8552L131.496 87.0782C132.282 81.4674 128.37 76.2822 122.759 75.4966Z" fill="#21D789"/>
<path d="M115.245 47.8329L92.3265 44.6242C87.8552 43.9982 83.723 47.1154 83.097 51.5868L79.8883 74.5049C79.2623 78.9762 82.3795 83.1084 86.8508 83.7344L109.769 86.9431C114.24 87.5691 118.372 84.4519 118.998 79.9806L122.207 57.0625C122.833 52.5911 119.716 48.4589 115.245 47.8329Z" fill="#21D789"/>
<path d="M63.0962 40.5392L40.1781 37.3305C35.7068 36.7045 31.5745 39.8217 30.9485 44.2931L27.7398 67.2112C27.1138 71.6825 30.2311 75.8147 34.7024 76.4407L57.6205 79.6494C62.0918 80.2754 66.224 77.1582 66.85 72.6869L70.0587 49.7688C70.6848 45.2974 67.5675 41.1652 63.0962 40.5392Z" fill="#21D789"/>
<path d="M87.5567 57.2671L65.6289 54.197L63.1493 71.9076L85.0771 74.9777L87.5567 57.2671Z" fill="#21D789"/>
<path d="M103.962 92.6543L38.7148 83.5193L37.7581 90.3526L103.005 99.4877L103.962 92.6543Z" fill="black"/>
<path d="M57.862 46.6697L41.8597 44.4293C38.7376 43.9922 35.8522 46.1688 35.4151 49.291L33.1746 65.2933C32.7375 68.4154 34.9142 71.3008 38.0363 71.738L54.0386 73.9784C57.1608 74.4155 60.0462 72.2388 60.4833 69.1167L62.7237 53.1144C63.1608 49.9922 60.9842 47.1069 57.862 46.6697Z" fill="white"/>
<mask id="mask0_23323_290" style="mask-type:luminance" maskUnits="userSpaceOnUse" x="33" y="44" width="30" height="31">
<path d="M57.862 46.6697L41.8597 44.4293C38.7376 43.9922 35.8522 46.1688 35.4151 49.291L33.1746 65.2933C32.7375 68.4154 34.9142 71.3008 38.0363 71.738L54.0386 73.9784C57.1608 74.4155 60.0462 72.2388 60.4833 69.1167L62.7237 53.1144C63.1608 49.9922 60.9842 47.1069 57.862 46.6697Z" fill="white"/>
</mask>
<g mask="url(#mask0_23323_290)">
<path d="M61.0944 50.7204L45.0922 48.48C41.97 48.0428 39.0846 50.2195 38.6475 53.3417L36.4071 69.3439C35.9699 72.4661 38.1466 75.3515 41.2688 75.7886L57.271 78.029C60.3932 78.4662 63.2786 76.2895 63.7157 73.1673L65.9561 57.1651C66.3933 54.0429 64.2166 51.1575 61.0944 50.7204Z" fill="black"/>
</g>
<path d="M103.921 93.0096L110.482 93.9282L111.401 87.3672L104.84 86.4486L103.921 93.0096Z" fill="black"/>
<path d="M32.1851 82.9659L38.7461 83.8845L39.6647 77.3235L33.1037 76.4049L32.1851 82.9659Z" fill="black"/>
<path d="M86.3574 65.7842L113.607 69.8592" stroke="black" stroke-width="4.16667" stroke-miterlimit="10"/>
</svg>
