<svg width="121" height="111" viewBox="0 0 121 111" fill="none" xmlns="http://www.w3.org/2000/svg">
<path d="M35.0504 97.5005H5.15357C2.36288 97.5005 0.100586 99.7628 0.100586 102.553V105.661C0.100586 108.452 2.36288 110.714 5.15357 110.714H35.0504C37.8411 110.714 40.1034 108.452 40.1034 105.661V102.553C40.1034 99.7628 37.8411 97.5005 35.0504 97.5005Z" fill="#13BC6F"/>
<path d="M114.947 97.5005H85.1262C82.3355 97.5005 80.0732 99.7628 80.0732 102.553V105.661C80.0732 108.452 82.3355 110.714 85.1262 110.714H114.947C117.738 110.714 120 108.452 120 105.661V102.553C120 99.7628 117.738 97.5005 114.947 97.5005Z" fill="#13BC6F"/>
<path d="M13.5004 97.5005L106.425 97.5005V45.4621L13.5004 45.4621V97.5005Z" fill="#13BC6F"/>
<path d="M45.2061 70.7104H8.74879C4.09765 70.7104 0.327148 74.4809 0.327148 79.1321V89.0864C0.327148 93.7376 4.09765 97.5081 8.74879 97.5081H45.2061C49.8572 97.5081 53.6277 93.7376 53.6277 89.0864V79.1321C53.6277 74.4809 49.8572 70.7104 45.2061 70.7104Z" fill="#13BC6F"/>
<path d="M111.554 70.7104H75.0964C70.4453 70.7104 66.6748 74.4809 66.6748 79.1321V89.078C66.6748 93.7292 70.4453 97.4997 75.0964 97.4997H111.554C116.205 97.4997 119.975 93.7292 119.975 89.078V79.1321C119.975 74.4809 116.205 70.7104 111.554 70.7104Z" fill="#13BC6F"/>
<path d="M18.552 70.7094H21.7438C24.5314 70.7094 26.7968 72.9749 26.7968 75.7624V97.4987H18.552C15.7644 97.4987 13.499 95.2333 13.499 92.4457V75.7624C13.499 72.9749 15.7644 70.7094 18.552 70.7094Z" fill="#21D789"/>
<path d="M26.8057 84.0219H35.0505C37.838 84.0219 40.1034 86.2874 40.1034 89.0749V98.6503C40.1034 101.438 37.838 103.703 35.0505 103.703H26.8057V84.0219Z" fill="#21D789"/>
<path d="M41.9989 97.5005H31.8508C29.0602 97.5005 26.7979 99.7628 26.7979 102.553V105.602C26.7979 108.393 29.0602 110.655 31.8508 110.655H41.9989C44.7896 110.655 47.0519 108.393 47.0519 105.602V102.553C47.0519 99.7628 44.7896 97.5005 41.9989 97.5005Z" fill="#21D789"/>
<path d="M101.624 97.4917H93.379V75.7554C93.379 72.9678 95.6444 70.7024 98.432 70.7024H101.624C104.411 70.7024 106.677 72.9678 106.677 75.7554V92.4387C106.677 95.2262 104.411 97.4917 101.624 97.4917Z" fill="#21D789"/>
<path d="M93.3701 103.698H85.1253C82.3378 103.698 80.0723 101.432 80.0723 98.6446V89.0692C80.0723 86.2816 82.3378 84.0162 85.1253 84.0162H93.3701V103.698Z" fill="#21D789"/>
<path d="M77.9585 110.664H88.3171C91.1078 110.664 93.3701 108.401 93.3701 105.611V102.562C93.3701 99.7712 91.1078 97.5089 88.3171 97.5089H77.9585C75.1678 97.5089 72.9055 99.7712 72.9055 102.562V105.611C72.9055 108.401 75.1678 110.664 77.9585 110.664Z" fill="#21D789"/>
<path d="M109.86 38.5908L12.5919 24.9726C6.98107 24.1871 1.7958 28.0987 1.01025 33.7095L0.201434 39.4865C-0.584116 45.0973 3.32752 50.2826 8.93831 51.0681L106.206 64.6863C111.817 65.4718 117.002 61.5602 117.788 55.9494L118.597 50.1724C119.382 44.5616 115.471 39.3764 109.86 38.5908Z" fill="#21D789"/>
<path d="M102.345 10.9271L79.4271 7.71843C74.9558 7.09242 70.8236 10.2096 70.1976 14.681L66.9889 37.5991C66.3628 42.0704 69.4801 46.2026 73.9514 46.8286L96.8695 50.0373C101.341 50.6634 105.473 47.5461 106.099 43.0748L109.308 20.1567C109.934 15.6854 106.817 11.5531 102.345 10.9271Z" fill="#21D789"/>
<path d="M50.1968 3.63343L27.2787 0.424731C22.8073 -0.201285 18.6751 2.91595 18.0491 7.38727L14.8404 30.3054C14.2144 34.7767 17.3316 38.9089 21.803 39.5349L44.7211 42.7436C49.1924 43.3697 53.3246 40.2524 53.9506 35.7811L57.1593 12.863C57.7853 8.39165 54.6681 4.25944 50.1968 3.63343Z" fill="#21D789"/>
<path d="M74.6573 20.3613L52.7295 17.2912L50.2499 35.0018L72.1777 38.0719L74.6573 20.3613Z" fill="#21D789"/>
<path d="M91.0624 55.7485L25.8154 46.6135L24.8587 53.4468L90.1057 62.5819L91.0624 55.7485Z" fill="black"/>
<path d="M44.9631 9.76394L28.9608 7.52351C25.8386 7.08639 22.9533 9.26305 22.5161 12.3852L20.2757 28.3875C19.8386 31.5097 22.0152 34.395 25.1374 34.8322L41.1397 37.0726C44.2618 37.5097 47.1472 35.3331 47.5844 32.2109L49.8248 16.2086C50.2619 13.0864 48.0852 10.2011 44.9631 9.76394Z" fill="white"/>
<mask id="mask0_227_25592" style="mask-type:luminance" maskUnits="userSpaceOnUse" x="20" y="7" width="30" height="31">
<path d="M44.9631 9.76394L28.9608 7.52351C25.8386 7.08639 22.9533 9.26305 22.5161 12.3852L20.2757 28.3875C19.8386 31.5097 22.0152 34.395 25.1374 34.8322L41.1397 37.0726C44.2618 37.5097 47.1472 35.3331 47.5844 32.2109L49.8248 16.2086C50.2619 13.0864 48.0852 10.2011 44.9631 9.76394Z" fill="white"/>
</mask>
<g mask="url(#mask0_227_25592)">
<path d="M48.1955 13.8146L32.1932 11.5742C29.0711 11.137 26.1857 13.3137 25.7486 16.4359L23.5081 32.4381C23.071 35.5603 25.2477 38.4457 28.3698 38.8828L44.3721 41.1232C47.4943 41.5604 50.3796 39.3837 50.8168 36.2615L53.0572 20.2593C53.4943 17.1371 51.3177 14.2517 48.1955 13.8146Z" fill="black"/>
</g>
<path d="M91.022 56.1038L97.583 57.0224L98.5016 50.4614L91.9406 49.5428L91.022 56.1038Z" fill="black"/>
<path d="M19.2857 46.0601L25.8467 46.9787L26.7653 40.4177L20.2043 39.4991L19.2857 46.0601Z" fill="black"/>
<path d="M73.458 28.8784L100.708 32.9534" stroke="black" stroke-width="4.16667" stroke-miterlimit="10"/>
</svg>
