<svg width="120" height="40" viewBox="0 0 120 40" fill="none" xmlns="http://www.w3.org/2000/svg">
  <path d="M36 4V36H4L36 4Z" fill="black"/>
  <path d="M24.0127 31.9951L32.0127 31.9951L32.0127 30.2351L24.0127 30.2351L24.0127 31.9951Z" fill="white"/>
  <path d="M4 36V4H36L4 36Z" fill="url(#paint0_linear_5144_417)"/>
  <path d="M55 25L65 15M65 25L55 15" stroke="#6C707E" stroke-linecap="round"/>
  <path d="M114 35.0162C114 35.5422 113.779 36.0467 113.385 36.4186C112.991 36.7906 112.457 36.9995 111.9 36.9995H110.1C109.543 36.9995 109.009 36.7906 108.615 36.4186C108.221 36.0467 108 35.5422 108 35.0162V4.98279C108 4.45679 108.221 3.95234 108.615 3.5804C109.009 3.20846 109.543 2.99951 110.1 2.99951H111.9C112.457 2.99951 112.991 3.20846 113.385 3.5804C113.779 3.95234 114 4.45679 114 4.98279V35.0162Z" fill="url(#paint1_linear_5144_417)"/>
  <path d="M103 15.075C103 15.5855 102.779 16.0752 102.385 16.4362C101.991 16.7972 101.457 17 100.9 17H99.1003C98.5433 17 98.0091 16.7972 97.6152 16.4362C97.2213 16.0752 97 15.5855 97 15.075V7.92504C97 7.41449 97.2213 6.92485 97.6152 6.56383C98.0091 6.20282 98.5433 6 99.1003 6H100.9C101.457 6 101.991 6.20282 102.385 6.56383C102.779 6.92485 103 7.41449 103 7.92504V15.075Z" fill="url(#paint2_linear_5144_417)"/>
  <path d="M91.9973 26.9001C91.9973 27.457 91.776 27.9911 91.3821 28.3849C90.9882 28.7788 90.454 29 89.8969 29H88.0994C87.5423 29 87.0081 28.7788 86.6142 28.3849C86.2203 27.9911 85.999 27.457 85.999 26.9001V13.0999C85.999 12.543 86.2203 12.0089 86.6142 11.6151C87.0081 11.2212 87.5423 11 88.0994 11H89.8987C90.4557 11 90.99 11.2212 91.3838 11.6151C91.7777 12.0089 91.999 12.543 91.999 13.0999L91.9973 26.9001Z" fill="url(#paint3_linear_5144_417)"/>
  <path d="M103 32.0745C103 32.585 102.779 33.0747 102.385 33.4357C101.991 33.7967 101.457 33.9995 100.9 33.9995H99.1003C98.5433 33.9995 98.0091 33.7967 97.6152 33.4357C97.2213 33.0747 97 32.585 97 32.0745V24.9246C97 24.414 97.2213 23.9244 97.6152 23.5633C98.0091 23.2023 98.5433 22.9995 99.1003 22.9995H100.9C101.457 22.9995 101.991 23.2023 102.385 23.5633C102.779 23.9244 103 24.414 103 24.9246V32.0745Z" fill="url(#paint4_linear_5144_417)"/>
  <defs>
    <linearGradient id="paint0_linear_5144_417" x1="24.7893" y1="24.7893" x2="3.87733" y2="3.87728" gradientUnits="userSpaceOnUse">
      <stop offset="0.2334" stop-color="#21D789"/>
      <stop offset="0.8898" stop-color="#AF1DF5"/>
    </linearGradient>
    <linearGradient id="paint1_linear_5144_417" x1="112.078" y1="10.883" x2="122.196" y2="20.7152" gradientUnits="userSpaceOnUse">
      <stop stop-color="#564DE2"/>
      <stop offset="1" stop-color="#68AEFF"/>
    </linearGradient>
    <linearGradient id="paint2_linear_5144_417" x1="97" y1="0.415779" x2="106.549" y2="8.95224" gradientUnits="userSpaceOnUse">
      <stop stop-color="#6C63FF"/>
      <stop offset="1" stop-color="#7AB7FE"/>
    </linearGradient>
    <linearGradient id="paint3_linear_5144_417" x1="90.345" y1="32.2707" x2="78.5796" y2="22.5947" gradientUnits="userSpaceOnUse">
      <stop stop-color="#4BFFDF"/>
      <stop offset="1" stop-color="#7AB7FE"/>
    </linearGradient>
    <linearGradient id="paint4_linear_5144_417" x1="101.959" y1="40.3554" x2="91.5883" y2="29.6469" gradientUnits="userSpaceOnUse">
      <stop stop-color="#4BFFDF"/>
      <stop offset="1" stop-color="#4D9FFF"/>
    </linearGradient>
  </defs>
</svg>
