<svg xmlns="http://www.w3.org/2000/svg" width="18" height="18" viewBox="0 0 18 18">
  <path fill="#9AA7B0" fill-rule="evenodd" d="M2,9 L7,9 L7,14 L2,14 L2,9 Z M3,10 L3,13 L6,13 L6,10 L3,10 Z M2,2 L7,2 L7,7 L2,7 L2,2 Z M3,3 L3,6 L6,6 L6,3 L3,3 Z M9,2 L14,2 L14,7 L9,7 L9,2 Z M10,3 L10,6 L13,6 L13,3 L10,3 Z M9,9 L14,9 L14,14 L9,14 L9,9 Z M10,10 L10,13 L13,13 L13,10 L10,10 Z"/>
  <circle cx="12.5" cy="12.5" r="4.1" fill="#4682FA"/>
  <path d="M12.5 15C12.2239 15 12 14.7761 12 14.5V12.5C12 12.2239 12.2239 12 12.5 12C12.7761 12 13 12.2239 13 12.5V14.5C13 14.7761 12.7761 15 12.5 15Z" fill="white"/>
  <path d="M12.5 10C12.7761 10 13 10.2239 13 10.5C13 10.7761 12.7761 11 12.5 11C12.2239 11 12 10.7761 12 10.5C12 10.2239 12.2239 10 12.5 10Z" fill="white"/>
</svg>
