<svg xmlns="http://www.w3.org/2000/svg" width="18" height="18" viewBox="0 0 18 18">
  <path fill="#9AA7B0" fill-rule="evenodd" d="M2,2 L13,2 L13,13 L2,13 L2,2 Z M4,4 L4,11 L11,11 L11,4 L4,4 Z"/>
  <path d="M11.634 8.5C12.0189 7.83334 12.9811 7.83333 13.366 8.5L16.3971 13.75C16.782 14.4167 16.3009 15.25 15.5311 15.25L9.46891 15.25C8.69911 15.25 8.21798 14.4167 8.60288 13.75L11.634 8.5Z" fill="#FFAF0F"/>
  <path d="M12.5 14C12.2239 14 12 13.7761 12 13.5V12.5C12 12.2239 12.2239 12 12.5 12C12.7761 12 13 12.2239 13 12.5V13.5C13 13.7761 12.7761 14 12.5 14Z" fill="white"/>
  <path d="M12.5 10C12.7761 10 13 10.2239 13 10.5C13 10.7761 12.7761 11 12.5 11C12.2239 11 12 10.7761 12 10.5C12 10.2239 12.2239 10 12.5 10Z" fill="white"/>
</svg>
