<svg width="24" height="24" viewBox="0 0 24 24" fill="none" xmlns="http://www.w3.org/2000/svg">
<path fill-rule="evenodd" clip-rule="evenodd" d="M9.5 12C9.5 13.933 7.933 15.5 6 15.5C4.067 15.5 2.5 13.933 2.5 12C2.5 10.067 4.067 8.5 6 8.5C7.933 8.5 9.5 10.067 9.5 12ZM11 12C11 14.7614 8.76142 17 6 17C3.23858 17 1 14.7614 1 12C1 9.23858 3.23858 7 6 7C8.76142 7 11 9.23858 11 12ZM21.5 12C21.5 13.933 19.933 15.5 18 15.5C16.067 15.5 14.5 13.933 14.5 12C14.5 10.067 16.067 8.5 18 8.5C19.933 8.5 21.5 10.067 21.5 12ZM23 12C23 14.7614 20.7614 17 18 17C15.2386 17 13 14.7614 13 12C13 9.23858 15.2386 7 18 7C20.7614 7 23 9.23858 23 12Z" fill="#6C707E"/>
</svg>
