<svg width="24" height="24" viewBox="0 0 24 24" fill="none" xmlns="http://www.w3.org/2000/svg">
<mask id="path-1-inside-1_99_16052" fill="white">
<path fill-rule="evenodd" clip-rule="evenodd" d="M6 17C8.76142 17 11 14.7614 11 12C11 9.23858 8.76142 7 6 7C3.23858 7 1 9.23858 1 12C1 14.7614 3.23858 17 6 17ZM18 17C20.7614 17 23 14.7614 23 12C23 9.23858 20.7614 7 18 7C15.2386 7 13 9.23858 13 12C13 14.7614 15.2386 17 18 17Z"/>
</mask>
<path fill-rule="evenodd" clip-rule="evenodd" d="M6 17C8.76142 17 11 14.7614 11 12C11 9.23858 8.76142 7 6 7C3.23858 7 1 9.23858 1 12C1 14.7614 3.23858 17 6 17ZM18 17C20.7614 17 23 14.7614 23 12C23 9.23858 20.7614 7 18 7C15.2386 7 13 9.23858 13 12C13 14.7614 15.2386 17 18 17Z" fill="#EDF3FF"/>
<path d="M9.5 12C9.5 13.933 7.933 15.5 6 15.5V18.5C9.58985 18.5 12.5 15.5899 12.5 12H9.5ZM6 8.5C7.933 8.5 9.5 10.067 9.5 12H12.5C12.5 8.41015 9.58985 5.5 6 5.5V8.5ZM2.5 12C2.5 10.067 4.067 8.5 6 8.5V5.5C2.41015 5.5 -0.5 8.41015 -0.5 12H2.5ZM6 15.5C4.067 15.5 2.5 13.933 2.5 12H-0.5C-0.5 15.5899 2.41015 18.5 6 18.5V15.5ZM21.5 12C21.5 13.933 19.933 15.5 18 15.5V18.5C21.5898 18.5 24.5 15.5899 24.5 12H21.5ZM18 8.5C19.933 8.5 21.5 10.067 21.5 12H24.5C24.5 8.41015 21.5898 5.5 18 5.5V8.5ZM14.5 12C14.5 10.067 16.067 8.5 18 8.5V5.5C14.4101 5.5 11.5 8.41015 11.5 12H14.5ZM18 15.5C16.067 15.5 14.5 13.933 14.5 12H11.5C11.5 15.5899 14.4101 18.5 18 18.5V15.5Z" fill="#3574F0" mask="url(#path-1-inside-1_99_16052)"/>
</svg>
