<svg width="16" height="16" viewBox="0 0 16 16" fill="none" xmlns="http://www.w3.org/2000/svg">
<path d="M2.5 2.5L13.5 13.5" stroke="#CED0D6" stroke-linecap="round"/>
<path d="M4.91722 4.21012L4.16913 3.46202C5.35631 2.85659 6.67815 2.5 8 2.5C11.5 2.5 15 5 16 8C15.4757 9.57301 14.264 11.0085 12.7254 12.0183L12.0014 11.2943C12.1252 11.2174 12.2469 11.1372 12.3664 11.0541C13.555 10.2273 14.4672 9.14177 14.934 8C14.4672 6.85823 13.555 5.77271 12.3664 4.94591C11.0721 4.04548 9.51792 3.5 8 3.5C6.95754 3.5 5.89798 3.75728 4.91722 4.21012Z" fill="#CED0D6"/>
<path d="M6.98402 6.27691L6.26173 5.55463C6.75214 5.2054 7.35208 5 8 5C9.65685 5 11 6.34315 11 8C11 8.64792 10.7946 9.24786 10.4454 9.73827L9.72309 9.01598C9.89903 8.71823 10 8.3709 10 8C10 6.89543 9.10457 6 8 6C7.6291 6 7.28177 6.10096 6.98402 6.27691Z" fill="#CED0D6"/>
<path d="M0 8C0.427738 6.71679 1.31288 5.52505 2.45977 4.58131L3.17058 5.29212C2.20831 6.06496 1.47021 7.01139 1.06602 8C1.53283 9.14177 2.44503 10.2273 3.63356 11.0541C4.92792 11.9545 6.48208 12.5 8 12.5C8.68832 12.5 9.3841 12.3878 10.0597 12.1813L10.8482 12.9697C9.93393 13.3092 8.96696 13.5 8 13.5C4.5 13.5 1 11 0 8Z" fill="#CED0D6"/>
<path d="M5.10157 7.22311C5.03532 7.4709 5 7.73133 5 8C5 9.65685 6.34315 11 8 11C8.26867 11 8.5291 10.9647 8.77689 10.8984L7.87458 9.99613C6.86992 9.93397 6.06603 9.13008 6.00387 8.12542L5.10157 7.22311Z" fill="#CED0D6"/>
</svg>
