<?xml version="1.0" encoding="UTF-8"?>
<svg xmlns="http://www.w3.org/2000/svg" width="14px" height="14px" viewBox="0 0 14 14" version="1.1">
<g id="surface1">
<path style=" stroke:none;fill-rule:evenodd;fill:rgb(43.137255%,43.137255%,43.137255%);fill-opacity:1;" d="M 9.703125 9.488281 L 7.886719 7.667969 L 12.261719 7.667969 L 12.261719 12.042969 L 10.820312 10.605469 C 9.796875 11.6875 8.328125 12.332031 6.722656 12.246094 C 4.136719 12.109375 2.085938 10.125 1.785156 7.640625 L 3.410156 7.78125 C 3.75 9.363281 5.117188 10.582031 6.808594 10.671875 C 7.945312 10.730469 8.988281 10.265625 9.703125 9.488281 Z M 12.199219 6.265625 L 10.570312 6.125 C 10.195312 4.589844 8.851562 3.417969 7.191406 3.328125 C 6.054688 3.269531 5.011719 3.734375 4.296875 4.511719 L 6.121094 6.335938 L 1.746094 6.335938 L 1.746094 1.960938 L 3.183594 3.398438 C 4.203125 2.320312 5.671875 1.675781 7.273438 1.761719 C 9.824219 1.894531 11.855469 3.828125 12.199219 6.265625 Z M 12.199219 6.265625 "/>
</g>
</svg>
