<?xml version="1.0" encoding="utf-8"?>
<!-- Generator: Adobe Illustrator 23.0.6, SVG Export Plug-In . SVG Version: 6.00 Build 0)  -->
<svg version="1.1" id="Слой_1" xmlns="http://www.w3.org/2000/svg" xmlns:xlink="http://www.w3.org/1999/xlink" width="180" height="180"
	 viewBox="0 0 180 180" style="enable-background:new 0 0 180 180;" xml:space="preserve">
<style type="text/css">
	.st0{fill:none;stroke:#BCBCBC;stroke-linecap:round;stroke-linejoin:round;stroke-miterlimit:10;}
	.st1{fill:none;}
	.st2{fill:none;stroke:#000000;stroke-miterlimit:10;}
	.st3{fill:#BCBCBC;}
	.st4{fill-rule:evenodd;clip-rule:evenodd;fill:#BCBCBC;}
	.st5{fill:none;stroke:#000000;stroke-linecap:round;stroke-linejoin:round;stroke-miterlimit:10;}
	
		.st6{clip-path:url(#SVGID_2_);fill:none;stroke:#BCBCBC;stroke-width:4;stroke-linecap:round;stroke-linejoin:round;stroke-miterlimit:10;}
	.st7{fill:none;stroke:#FFFFFF;stroke-linecap:round;stroke-linejoin:round;stroke-miterlimit:10;}
	.st8{fill:none;stroke:#746DF2;stroke-linecap:round;stroke-miterlimit:10;}
	.st9{fill:#FFFFFF;}
	.st10{fill-rule:evenodd;clip-rule:evenodd;fill:#FFFFFF;}
	.st11{fill:#746DF2;}
	.st12{fill:none;stroke:#0AC656;stroke-miterlimit:10;}
	.st13{fill:#0AC656;}
	.st14{clip-path:url(#SVGID_4_);fill:none;stroke:#0AC656;stroke-width:4;stroke-linecap:round;stroke-miterlimit:10;}
	.st15{fill:none;stroke:#565656;stroke-linecap:round;stroke-miterlimit:10;}
	.st16{fill:#565656;}
	.st17{fill-rule:evenodd;clip-rule:evenodd;fill:#565656;}
	.st18{clip-path:url(#SVGID_6_);fill:none;stroke:#565656;stroke-width:4;stroke-linecap:round;stroke-miterlimit:10;}
	.st19{fill:none;stroke:#000000;stroke-linecap:round;stroke-miterlimit:10;}
	.st20{fill-rule:evenodd;clip-rule:evenodd;}
	.st21{fill:none;stroke:#000000;stroke-width:0.9157;stroke-linecap:round;stroke-miterlimit:10;}
	.st22{clip-path:url(#SVGID_8_);fill:none;stroke:#0AC656;stroke-width:4;stroke-linecap:round;stroke-miterlimit:10;}
</style>
<path class="st7" d="M17.4,106.5c5.7-7.6,14.9-12.6,25.4-12.6h24.5"/>
<g>
	<g>
		<path class="st7" d="M67.3,66.1c0.4,0,0.8,0.1,1.2,0.2c1.9-3.8,5.9-6.5,10.4-6.5c4.5,0,8.5,2.6,10.4,6.4c0.3-0.1,0.6-0.1,1-0.1
			c1.9,0,3.5,1.6,3.5,3.5c0,1.9-1.5,3.4-3.4,3.5c-0.8,5.7-5.7,10-11.5,10c-5.9,0-10.7-4.4-11.5-10c0,0-0.1,0-0.1,0
			c-1.9,0-3.5-1.6-3.5-3.5C63.7,67.7,65.3,66.1,67.3,66.1z"/>
		<g>
			<path class="st9" d="M85,72.8l0,1.7c0,0.4,0.4,0.8,0.8,0.8l0,0c0.4,0,0.8-0.4,0.8-0.8l0-1.7c0-0.4-0.4-0.8-0.8-0.8l0,0
				C85.3,72,85,72.4,85,72.8z"/>
			<path class="st9" d="M77.9,72.8l0,1.7c0,0.4,0.4,0.8,0.8,0.8l0,0c0.4,0,0.8-0.4,0.8-0.8l0-1.7c0-0.4-0.4-0.8-0.8-0.8l0,0
				C78.3,72,77.9,72.4,77.9,72.8z"/>
		</g>
	</g>
	<path class="st9" d="M33,9.8c0.7,2.6,3.6,10.5,13.8,13.2c10.6,2.8,14,14,14,14s1.7,10.6,14,14c11.7,3.2,14.7,14.8,14.7,14.8
		l-1.1-0.5c-2.1-3.1-5.6-5.1-9.6-5.1c-4.6,0-8.5,2.6-10.4,6.5c-0.4-0.1-0.8-0.2-1.2-0.2c-1.4,0-2.6,0.8-3.2,2
		c-1.5-0.9-3.4-1.7-5.6-2.3c-12.4-3.3-14-14-14-14s-3.4-11.2-14-14c-9.2-2.4-12.5-9-13.5-12.2L33,9.8z"/>
</g>
<g>
	<g>
		<path class="st7" d="M87.8,124.7c-2.6,0.5-5.2,0.7-8,0.7c-0.2,0-0.4,0-0.5,0"/>
		<path class="st7" d="M67.3,122.1V93.2c0-5.6,4.5-10.1,10.1-10.1h8.8c0-3.3,2.7-6,6-6c6.3,0,6,6,6,6c0-3.3,2.7-6,6-6c5.6,0,6,6,6,6
			c0-3.3,2.7-6,6-6c3.3,0,6,2.7,6,6l0,0c0,7-1.7,13.6-4.7,19.4"/>
		<line class="st7" x1="67.3" y1="157" x2="67.3" y2="139"/>
		<path class="st7" d="M105.2,98.6c2.9-4.5,4.7-9.8,5-15.5c0-0.6,0.1-1.2,0.1-1.8"/>
		<path class="st7" d="M98.3,82.9c0,4.8-1.8,9.2-4.8,12.5"/>
	</g>
</g>
<g>
	<polygon class="st12" points="167.1,157 88.2,157 87.8,102.5 166.7,102.5 	"/>
	<circle class="st13" cx="127.4" cy="129.7" r="2.7"/>
</g>
<g>
	<defs>
		<path id="SVGID_3_" d="M44.1,154.1c0,0-1.2,5.6-7.2,4.3s-0.5,3.8-0.5,3.8h137.7l-1.7-8.1H44.1z"/>
	</defs>
	<clipPath id="SVGID_2_">
		<use xlink:href="#SVGID_3_"  style="overflow:visible;"/>
	</clipPath>
	
		<line style="clip-path:url(#SVGID_2_);fill:none;stroke:#0AC656;stroke-width:4;stroke-linecap:round;stroke-miterlimit:10;" x1="167.1" y1="157" x2="39.3" y2="157"/>
</g>
<g>
	<path class="st13" d="M179,1v178H1V1H179 M180,0H0v180h180V0L180,0z"/>
</g>
<g>
	<g>
		<path class="st7" d="M17.4,106.5c18.1-2.7,37.2,2.9,51.1,16.8l-0.2-0.2L81,135.8c2.3,2.3,2.3,6.1,0,8.4h0c-2.3,2.3-6.1,2.3-8.4,0
			l-11.3-11.3l-1.5-1.5c2.3,2.3,2.3,6.1,0,8.4c-2,2-5.2,2.3-7.5,0.8l-1-0.7c2.3,2.3,2.3,6.1,0,8.4s-6.1,2.3-8.4,0l0.9,1.2
			c1.4,2.3,1.1,5.3-0.9,7.3c-2.3,2.3-6.1,2.3-8.4,0"/>
		<path class="st7" d="M16.9,143.5c8.7-3.7,19.1-2,26.2,5.1l0,0"/>
		<path class="st7" d="M16.9,130.9c12-3.2,25.3-0.2,34.7,9.2l0,0"/>
		<path class="st7" d="M17.1,118.6c15.1-2.9,31.2,1.5,42.9,13.1l0,0"/>
	</g>
</g>
</svg>
