<?xml version="1.0" encoding="utf-8"?>
<!-- Generator: Adobe Illustrator 23.0.6, SVG Export Plug-In . SVG Version: 6.00 Build 0)  -->
<svg version="1.1" id="Слой_1" xmlns="http://www.w3.org/2000/svg" width="180" height="180"
     viewBox="0 0 180 180" style="enable-background:new 0 0 180 180;" xml:space="preserve">
<style type="text/css">
	.st0{fill:none;stroke:#BCBCBC;stroke-linecap:round;stroke-linejoin:round;stroke-miterlimit:10;}
	.st1{fill:none;}
	.st2{fill:none;stroke:#000000;stroke-miterlimit:10;}
	.st3{fill:#BCBCBC;}
	.st4{fill-rule:evenodd;clip-rule:evenodd;fill:#BCBCBC;}
	.st5{fill:none;stroke:#000000;stroke-linecap:round;stroke-linejoin:round;stroke-miterlimit:10;}
	
		.st6{clip-path:url(#SVGID_2_);fill:none;stroke:#BCBCBC;stroke-width:4;stroke-linecap:round;stroke-linejoin:round;stroke-miterlimit:10;}
	.st7{fill:none;stroke:#FFFFFF;stroke-linecap:round;stroke-linejoin:round;stroke-miterlimit:10;}
	.st8{fill:none;stroke:#746DF2;stroke-linecap:round;stroke-miterlimit:10;}
	.st9{fill:#FFFFFF;}
	.st10{fill-rule:evenodd;clip-rule:evenodd;fill:#FFFFFF;}
	.st11{fill:#746DF2;}
	.st12{fill:none;stroke:#0AC656;stroke-miterlimit:10;}
	.st13{fill:#0AC656;}
	.st14{clip-path:url(#SVGID_4_);fill:none;stroke:#0AC656;stroke-width:4;stroke-linecap:round;stroke-miterlimit:10;}
	.st15{fill:none;stroke:#565656;stroke-linecap:round;stroke-miterlimit:10;}
	.st16{fill:#565656;}
	.st17{fill-rule:evenodd;clip-rule:evenodd;fill:#565656;}
	.st18{clip-path:url(#SVGID_6_);fill:none;stroke:#565656;stroke-width:4;stroke-linecap:round;stroke-miterlimit:10;}
	.st19{fill:none;stroke:#000000;stroke-linecap:round;stroke-miterlimit:10;}
	.st20{fill-rule:evenodd;clip-rule:evenodd;}
	.st21{fill:none;stroke:#000000;stroke-width:0.9157;stroke-linecap:round;stroke-miterlimit:10;}
	.st22{clip-path:url(#SVGID_8_);fill:none;stroke:#0AC656;stroke-width:4;stroke-linecap:round;stroke-miterlimit:10;}
</style>
<path class="st15" d="M118.1,89.4c-6.1-7.7-15.6-12.7-26.3-12.7H59.3c-19.4,0-33.5,16.4-32.1,35.8"/>
<polygon class="st1" points="109,159.5 78.5,159.5 78.5,95.6 126.8,95.6 126.8,159.2 "/>
<g>
	<g>
		<g>
			<g>
				<path class="st1" d="M169,129.7L169,129.7c-0.1-25-20.5-45.1-45.4-45"/>
				<path class="st1" d="M146.5,129c-0.3-12.4-10.4-22.3-22.8-22.2"/>
				<path class="st1" d="M146.5,129c-0.3-12.4-10.4-22.3-22.8-22.2"/>
				<path class="st1" d="M123.7,106.8c-3,0-5.5,2.5-5.5,5.5c0,3,2.5,5.5,5.5,5.5"/>
				<path class="st1" d="M123.7,95.8c-3,0-5.5,2.5-5.5,5.5c0,3,2.5,5.5,5.5,5.5"/>
				<path class="st1" d="M123.6,84.8c-3,0-5.5,2.5-5.5,5.5c0,3,2.5,5.5,5.5,5.5"/>
				<path class="st1" d="M158,129.8L158,129.8c-0.1-18.9-15.5-34.1-34.3-34"/>
			</g>
		</g>
		<g>
			<g>
				<path class="st15" d="M169,129.7L169,129.7c-0.1-25-20.5-45.1-45.4-45"/>
				<path class="st2" d="M146.5,129c-0.3-12.4-10.4-22.3-22.8-22.2"/>
				<path class="st15" d="M146.5,129c-0.3-12.4-10.4-22.3-22.8-22.2"/>
				<path class="st15" d="M123.7,106.8c-3,0-5.5,2.5-5.5,5.5c0,3,2.5,5.5,5.5,5.5"/>
				<path class="st15" d="M123.7,95.8c-3,0-5.5,2.5-5.5,5.5c0,3,2.5,5.5,5.5,5.5"/>
				<path class="st15" d="M123.6,84.8c-3,0-5.5,2.5-5.5,5.5c0,3,2.5,5.5,5.5,5.5"/>
				<path class="st15" d="M78.2,123.8V96l45.4-0.2c18.9-0.1,34.2,15.1,34.3,34v0"/>
			</g>
		</g>
	</g>
</g>
<g>
	<path class="st15" d="M88.7,48.2c-0.4,0-0.9,0.1-1.2,0.2c-1.9-3.9-5.9-6.5-10.6-6.5c-4.6,0-8.6,2.6-10.5,6.5
		c-0.3-0.1-0.7-0.1-1-0.1c-2,0-3.6,1.6-3.6,3.6c0,1.9,1.5,3.5,3.4,3.6c0.8,5.7,5.7,10.2,11.7,10.2c6,0,10.9-4.4,11.7-10.2
		c0,0,0.1,0,0.1,0c2,0,3.6-1.6,3.6-3.6C92.3,49.8,90.7,48.2,88.7,48.2z"/>
	<path class="st16" d="M80.8,52.1l0,1.8c0,0.5,0.4,0.8,0.8,0.8l0,0c0.5,0,0.8-0.4,0.8-0.8l0-1.8c0-0.5-0.4-0.8-0.8-0.8l0,0
		C81.2,51.2,80.8,51.6,80.8,52.1z"/>
	<path class="st16" d="M72.1,52.1l0,1.8c0,0.5,0.4,0.8,0.8,0.8l0,0c0.5,0,0.8-0.4,0.8-0.8l0-1.8c0-0.5-0.4-0.8-0.8-0.8l0,0
		C72.5,51.2,72.1,51.6,72.1,52.1z"/>
	<circle class="st15" cx="83.1" cy="52.7" r="4.8"/>
	<circle class="st15" cx="71.5" cy="52.7" r="4.8"/>
	<circle class="st17" cx="77.5" cy="30.3" r="11.8"/>
	<path class="st16" d="M85.2,45.3c-2.1-2.1-5.1-3.4-8.3-3.4c-3.2,0-6.2,1.3-8.3,3.4H85.2z"/>
	<line class="st15" x1="78.3" y1="52.7" x2="76.3" y2="52.7"/>
</g>
<g>
	<path class="st15" d="M27.1,112.6h16l6,0h0c23.4,0,42.5,18.6,43.2,41.8l0,1c0,3-2.4,5.4-5.4,5.4s-5.4-2.4-5.4-5.4
		c0,0,0,5.4-5.5,5.4c-5.5,0-5.5-5.4-5.5-5.4c0,3-1.9,5.4-5.4,5.4c-3,0-5.4-2.4-5.4-5.4l-32.6,0"/>
	<path class="st15" d="M49.1,134.2L49.1,134.2c11.9,0,21.5,9.3,21.5,21.2"/>
	<path class="st15" d="M49.1,123.3L49.1,123.3c17.9,0,32.5,14.1,32.5,32"/>
</g>
<path class="st16" d="M124.3,161.5l-6.4-5.5l-6.4,5.5v-25.7c0-3.5,2.9-6.4,6.4-6.4h0c3.5,0,6.4,2.9,6.4,6.4V161.5z"/>
</svg>
