<?xml version="1.0" encoding="utf-8"?>
<!-- Generator: Adobe Illustrator 23.0.6, SVG Export Plug-In . SVG Version: 6.00 Build 0)  -->
<svg version="1.1" id="Слой_1" xmlns="http://www.w3.org/2000/svg" width="180" height="180"
     viewBox="0 0 180 180" style="enable-background:new 0 0 180 180;" xml:space="preserve">
<style type="text/css">
	.st0{fill:none;stroke:#BCBCBC;stroke-linecap:round;stroke-linejoin:round;stroke-miterlimit:10;}
	.st1{fill:none;}
	.st2{fill:none;stroke:#000000;stroke-miterlimit:10;}
	.st3{fill:#BCBCBC;}
	.st4{fill-rule:evenodd;clip-rule:evenodd;fill:#BCBCBC;}
	.st5{fill:none;stroke:#000000;stroke-linecap:round;stroke-linejoin:round;stroke-miterlimit:10;}
	
		.st6{clip-path:url(#SVGID_2_);fill:none;stroke:#BCBCBC;stroke-width:4;stroke-linecap:round;stroke-linejoin:round;stroke-miterlimit:10;}
	.st7{fill:none;stroke:#FFFFFF;stroke-linecap:round;stroke-linejoin:round;stroke-miterlimit:10;}
	.st8{fill:none;stroke:#746DF2;stroke-linecap:round;stroke-miterlimit:10;}
	.st9{fill:#FFFFFF;}
	.st10{fill-rule:evenodd;clip-rule:evenodd;fill:#FFFFFF;}
	.st11{fill:#746DF2;}
	.st12{fill:none;stroke:#0AC656;stroke-miterlimit:10;}
	.st13{fill:#0AC656;}
	.st14{clip-path:url(#SVGID_4_);fill:none;stroke:#0AC656;stroke-width:4;stroke-linecap:round;stroke-miterlimit:10;}
	.st15{fill:none;stroke:#565656;stroke-linecap:round;stroke-miterlimit:10;}
	.st16{fill:#565656;}
	.st17{fill-rule:evenodd;clip-rule:evenodd;fill:#565656;}
	.st18{clip-path:url(#SVGID_6_);fill:none;stroke:#565656;stroke-width:4;stroke-linecap:round;stroke-miterlimit:10;}
	.st19{fill:none;stroke:#000000;stroke-linecap:round;stroke-miterlimit:10;}
	.st20{fill-rule:evenodd;clip-rule:evenodd;}
	.st21{fill:none;stroke:#000000;stroke-width:0.9157;stroke-linecap:round;stroke-miterlimit:10;}
	.st22{clip-path:url(#SVGID_8_);fill:none;stroke:#0AC656;stroke-width:4;stroke-linecap:round;stroke-miterlimit:10;}
</style>
<path class="st5" d="M118.1,89.4c-6.1-7.7-15.6-12.7-26.3-12.7H59.3c-19.4,0-33.5,16.4-32.1,35.8"/>
<polygon class="st1" points="109,159.5 78.5,159.5 78.5,95.6 126.8,95.6 126.8,159.2 "/>
<g>
	<g>
		<g>
			<g>
				<path class="st1" d="M169,129.7L169,129.7c-0.1-25-20.5-45.1-45.4-45"/>
				<path class="st1" d="M146.5,129c-0.3-12.4-10.4-22.3-22.8-22.2"/>
				<path class="st1" d="M146.5,129c-0.3-12.4-10.4-22.3-22.8-22.2"/>
				<path class="st1" d="M123.7,106.8c-3,0-5.5,2.5-5.5,5.5c0,3,2.5,5.5,5.5,5.5"/>
				<path class="st1" d="M123.7,95.8c-3,0-5.5,2.5-5.5,5.5c0,3,2.5,5.5,5.5,5.5"/>
				<path class="st1" d="M123.6,84.8c-3,0-5.5,2.5-5.5,5.5c0,3,2.5,5.5,5.5,5.5"/>
				<path class="st1" d="M158,129.8L158,129.8c-0.1-18.9-15.5-34.1-34.3-34"/>
			</g>
		</g>
		<g>
			<g>
				<polyline class="st8" points="78.2,123.8 78.2,96 121.7,95.8 				"/>
				<path class="st19" d="M169,129.7L169,129.7c-0.1-25-20.5-45.1-45.4-45"/>
				<path class="st2" d="M146.5,129c-0.3-12.4-10.4-22.3-22.8-22.2"/>
				<path class="st19" d="M146.5,129c-0.3-12.4-10.4-22.3-22.8-22.2"/>
				<path class="st19" d="M123.7,106.8c-3,0-5.5,2.5-5.5,5.5c0,3,2.5,5.5,5.5,5.5"/>
				<path class="st19" d="M123.7,95.8c-3,0-5.5,2.5-5.5,5.5c0,3,2.5,5.5,5.5,5.5"/>
				<path class="st19" d="M123.6,84.8c-3,0-5.5,2.5-5.5,5.5c0,3,2.5,5.5,5.5,5.5"/>
				<path class="st19" d="M123.6,95.8c18.9-0.1,34.2,15.1,34.3,34v0"/>
			</g>
		</g>
	</g>
</g>
<g>
	<g>
		<g>
			<path d="M76.9,42.9c4.1,0,7.8,2.3,9.7,6l0.4,0.8l0.8-0.3c0.3-0.1,0.6-0.2,0.9-0.2c1.4,0,2.6,1.2,2.6,2.6c0,1.4-1.2,2.6-2.6,2.6
				c0,0,0,0,0,0l-0.1,0l0,0l-0.9,0l-0.1,0.9c-0.7,5.3-5.3,9.3-10.7,9.3c-5.4,0-10-4-10.7-9.3l-0.1-0.8l-0.8,0
				c-1.4-0.1-2.5-1.2-2.5-2.6c0-1.4,1.2-2.6,2.6-2.6c0.2,0,0.5,0,0.7,0.1l0.8,0.2l0.4-0.7C69.2,45.2,72.9,42.9,76.9,42.9 M76.9,41.9
				c-4.6,0-8.6,2.6-10.5,6.5c-0.3-0.1-0.7-0.1-1-0.1c-2,0-3.6,1.6-3.6,3.6c0,1.9,1.5,3.5,3.4,3.6c0.8,5.7,5.7,10.2,11.7,10.2
				c6,0,10.9-4.4,11.7-10.2c0,0,0.1,0,0.1,0c2,0,3.6-1.6,3.6-3.6c0-2-1.6-3.6-3.6-3.6c-0.4,0-0.9,0.1-1.2,0.2
				C85.6,44.6,81.6,41.9,76.9,41.9L76.9,41.9z"/>
		</g>
	</g>
	<path d="M80.8,52.1l0,1.8c0,0.5,0.4,0.8,0.8,0.8l0,0c0.5,0,0.8-0.4,0.8-0.8l0-1.8c0-0.5-0.4-0.8-0.8-0.8l0,0
		C81.2,51.2,80.8,51.6,80.8,52.1z"/>
	<path d="M72.1,52.1l0,1.8c0,0.5,0.4,0.8,0.8,0.8l0,0c0.5,0,0.8-0.4,0.8-0.8l0-1.8c0-0.5-0.4-0.8-0.8-0.8l0,0
		C72.5,51.2,72.1,51.6,72.1,52.1z"/>
	<g>
		<g>
			<path d="M83.1,49c2.1,0,3.8,1.7,3.8,3.8s-1.7,3.8-3.8,3.8s-3.8-1.7-3.8-3.8S81,49,83.1,49 M83.1,48c-2.6,0-4.8,2.1-4.8,4.8
				s2.1,4.8,4.8,4.8s4.8-2.1,4.8-4.8S85.8,48,83.1,48L83.1,48z"/>
		</g>
	</g>
	<g>
		<g>
			<path d="M71.5,49c2.1,0,3.8,1.7,3.8,3.8s-1.7,3.8-3.8,3.8s-3.8-1.7-3.8-3.8S69.4,49,71.5,49 M71.5,48c-2.6,0-4.8,2.1-4.8,4.8
				s2.1,4.8,4.8,4.8s4.8-2.1,4.8-4.8S74.1,48,71.5,48L71.5,48z"/>
		</g>
	</g>
	<circle class="st20" cx="77.5" cy="30.3" r="11.8"/>
	<g>
		<path d="M85.2,45.3c-2.1-2.1-5.1-3.4-8.3-3.4c-3.2,0-6.2,1.3-8.3,3.4H85.2z"/>
	</g>
	<line class="st19" x1="78.3" y1="52.7" x2="76.3" y2="52.7"/>
</g>
<g>
	<path class="st5" d="M27.1,112.6h16l6,0h0c23.4,0,42.5,18.6,43.2,41.8l0,1c0,3-2.4,5.4-5.4,5.4s-5.4-2.4-5.4-5.4c0,0,0,5.4-5.5,5.4
		c-5.5,0-5.5-5.4-5.5-5.4c0,3-1.9,5.4-5.4,5.4c-3,0-5.4-2.4-5.4-5.4l-32.6,0"/>
	<path class="st21" d="M49.1,134.2L49.1,134.2c11.9,0,21.5,9.3,21.5,21.2"/>
	<path class="st21" d="M49.1,123.3L49.1,123.3c17.9,0,32.5,14.1,32.5,32"/>
</g>
<g>
	<path class="st11" d="M124.3,161.5l-6.4-5.5l-6.4,5.5v-25.7c0-3.5,2.9-6.4,6.4-6.4h0c3.5,0,6.4,2.9,6.4,6.4V161.5z"/>
</g>
<g>
	<path class="st11" d="M179,1v178H1V1H179 M180,0H0v180h180V0L180,0z"/>
</g>
</svg>
