<svg width="20" height="20" viewBox="0 0 20 20" fill="none" xmlns="http://www.w3.org/2000/svg">
<path fill-rule="evenodd" clip-rule="evenodd" d="M1.63736 3.01924C1.4865 2.97614 1.32416 3.00635 1.1989 3.10083C1.07365 3.19531 1 3.34311 1 3.5V14.5C1 14.7232 1.14799 14.9194 1.36264 14.9808L8.36264 16.9808C8.5135 17.0239 8.67584 16.9937 8.8011 16.8992C8.92635 16.8047 9 16.6569 9 16.5V5.5C9 5.27676 8.85201 5.08057 8.63736 5.01924L1.63736 3.01924ZM2.5 13.7457V4.82571L7.5 6.25428V15.1743L2.5 13.7457Z" fill="#6C707E"/>
<path fill-rule="evenodd" clip-rule="evenodd" d="M18.3626 3.01924C18.5135 2.97614 18.6758 3.00635 18.8011 3.10083C18.9264 3.19531 19 3.34311 19 3.5V14.5C19 14.7232 18.852 14.9194 18.6374 14.9808L11.6374 16.9808C11.4865 17.0239 11.3242 16.9937 11.1989 16.8992C11.0736 16.8047 11 16.6569 11 16.5V5.5C11 5.27676 11.148 5.08057 11.3626 5.01924L18.3626 3.01924ZM17.5 13.7457V4.82571L12.5 6.25428V15.1743L17.5 13.7457Z" fill="#6C707E"/>
</svg>
