<svg width="20" height="20" viewBox="0 0 20 20" fill="none" xmlns="http://www.w3.org/2000/svg">
<path fill-rule="evenodd" clip-rule="evenodd" d="M1.63736 3.01924C1.4865 2.97614 1.32416 3.00635 1.1989 3.10083C1.07365 3.19531 1 3.34311 1 3.5V14.5C1 14.7232 1.14799 14.9194 1.36264 14.9808L8.36264 16.9808C8.5135 17.0239 8.67584 16.9937 8.8011 16.8992C8.92635 16.8047 9 16.6569 9 16.5V5.5C9 5.27676 8.85201 5.08057 8.63736 5.01924L1.63736 3.01924ZM2.5 13.7457V4.82571L7.5 6.25428V15.1743L2.5 13.7457Z" fill="#CED0D6"/>
<path fill-rule="evenodd" clip-rule="evenodd" d="M17.3626 3.01924C17.5135 2.97614 17.6758 3.00635 17.8011 3.10083C17.9264 3.19531 18 3.34311 18 3.5V14.5C18 14.7232 17.852 14.9194 17.6374 14.9808L10.6374 16.9808C10.4865 17.0239 10.3242 16.9937 10.1989 16.8992C10.0736 16.8047 10 16.6569 10 16.5V5.5C10 5.27676 10.148 5.08057 10.3626 5.01924L17.3626 3.01924ZM16.5 13.7457V4.82571L11.5 6.25428V15.1743L16.5 13.7457Z" fill="#CED0D6"/>
</svg>
