<svg width="16" height="16" viewBox="0 0 16 16" fill="none" xmlns="http://www.w3.org/2000/svg">
<path fill-rule="evenodd" clip-rule="evenodd" d="M11.8536 6.14644C12.0488 6.3417 12.0488 6.65828 11.8536 6.85355C11.6583 7.04881 11.3417 7.04881 11.1464 6.85355L8 3.7071L8 13.5C8 13.7761 7.77614 14 7.5 14C7.22386 14 7 13.7761 7 13.5L7 3.7071L3.85355 6.85355C3.65829 7.04881 3.34171 7.04881 3.14645 6.85355C2.95118 6.65828 2.95118 6.3417 3.14645 6.14644L7.14645 2.14644C7.24021 2.05267 7.36739 1.99999 7.5 1.99999C7.63261 1.99999 7.75979 2.05267 7.85355 2.14644L11.8536 6.14644Z" fill="#6C707E"/>
</svg>
