<svg xmlns="http://www.w3.org/2000/svg" width="16" height="16" viewBox="0 0 16 16">
  <g fill="#40B6E0" fill-rule="evenodd" transform="translate(1 1.5)">
    <path d="M9.79305556,8.56426348 C8.87247151,9.48226348 7.8892094,9.9552 6.07154558,9.9992 C4.03646724,10.0432 1.95829772,8.558 1.95829772,6 C1.95829772,3.424 3.86018519,1.9992 6.07154558,1.9992 C7.73316395,1.9992 8.90837763,2.36870684 9.59718661,3.10772051 L10.8041311,1.67266191 C9.45890294,0.539550391 8.39899563,0 6.06801994,0 C2.62464387,0 0,2.716 0,6 C0,9.364 2.67165242,12 5.87998575,12 C8.4079618,12 9.83849715,11.186 11,9.962 C10.1953704,9.03017565 9.79305556,8.56426348 9.79305556,8.56426348 Z"/>
    <path stroke="#40B6E0" stroke-width=".4" d="M6.833333,6.85502116 C6.51999967,7.16102116 6.185333,7.31866667 5.56666633,7.33333333 C4.87399967,7.348 4.16666633,6.85293333 4.16666633,6.00026667 C4.16666633,5.1416 4.81399967,4.66666667 5.56666633,4.66666667 C6.1322208,4.66666667 6.5322208,4.78983561 6.76666633,5.0361735 L7.17746633,4.55782064 C6.7195996,4.1801168 6.3588457,4.00026667 5.56546633,4.00026667 C4.39346633,4.00026667 3.500133,4.9056 3.500133,6.00026667 C3.500133,7.1216 4.40946633,8.00026667 5.50146633,8.00026667 C6.36189745,8.00026667 6.84879967,7.72893333 7.244133,7.32093333 C6.97026633,7.01032522 6.833333,6.85502116 6.833333,6.85502116 Z"/>
    <path d="M10 4.5L10 5.5 11 5.5 11 6.5 10 6.5 10 7.5 9 7.5 9 6.5 8 6.5 8 5.5 9 5.5 9 4.5 10 4.5zM14 4.5L14 5.5 15 5.5 15 6.5 14 6.5 14 7.5 13 7.5 13 6.5 12 6.5 12 5.5 13 5.5 13 4.5 14 4.5z"/>
  </g>
</svg>
