<!-- Copyright © 2000–2024 JetBrains s.r.o. -->
<svg width="16" height="16" viewBox="0 0 16 16" xmlns="http://www.w3.org/2000/svg">
  <path fill="#62b543" d="M5.664 10.5c.021 2.204 1.745 2.222 2.024 2.222.663 0 1.341-.239 1.781-.581v1.411c-.343.243-1.055.447-1.738.447-1.06 0-3.724-.029-3.724-3.5s2.663-3.5 3.724-3.5c.684 0 1.395.204 1.738.447v1.411c-.44-.342-1.118-.581-1.781-.581-.28 0-2.004.018-2.024 2.222Zm8.379-.5-.086 1h.871l-.086 1h-.871l-.171 2h-1l.171-2h-1l-.171 2h-1l.171-2H10l.086-1h.871l.086-1h-.871l.086-1h.871l.171-2h1l-.171 2h1l.171-2h1l-.171 2H15l-.086 1h-.871Zm-1 0h-1l-.086 1h1l.086-1Z"/>
  <path fill="#9aa7b0" d="M13 5V2H1v10h1V5h11z"/>
</svg>
