<svg xmlns="http://www.w3.org/2000/svg" width="16" height="16" viewBox="0 0 16 16">
  <g fill="none" fill-rule="evenodd">
    <rect width="14" height="14" x="1" y="1" fill="#EED523" fill-rule="nonzero" opacity=".9"/>
    <path fill="#231F20" fill-opacity=".7" d="M10.84988 10.45C11.99228 10.6996 12.23828 10.9252 12.23828 11.3416L12.23828 11.3584C12.23828 11.7916 11.81708 12.0904 11.14868 12.0904 11.13068 12.0904 11.11508 12.0868 11.09708 12.0856L11.09708 12.0952 8.80268 12.0952 8.80268 13 11.09828 12.9976C11.10668 12.9976 11.11388 13 11.11388 13 12.41468 13 13.32068 12.3508 13.32068 11.2588L13.32068 11.2408C13.32068 10.2748 12.65108 9.8332 11.35148 9.5332 10.16468 9.2668 9.88268 9.0676 9.88268 8.6176L9.88268 8.5996C9.88268 8.2168 10.25228 7.9084 10.88468 7.9084L10.90868 7.9024 10.90868 7.9048 12.58988 7.9048 12.58988 7 11.01188 7 11.01188 7.0084C10.97468 7.0072 10.93988 7 10.90268 7 9.68108 7 8.80268 7.6912 8.80268 8.692L8.80268 8.7088C8.80268 9.7828 9.54068 10.15 10.84988 10.45M3.999875 12.04492L4.698625 11.33452C5.049875 11.78212 5.403625 12.03652 5.911125 12.03652 6.479875 12.03652 6.867375 11.66452 6.867375 10.87012L6.867375 7.00012 7.961125 7.00012 7.961125 10.90492C7.961125 11.60572 7.744875 12.12892 7.392375 12.47572 7.039875 12.82252 6.531125 13.00012 5.928625 13.00012 4.999875 13.00012 4.396125 12.57652 3.999875 12.04492"/>
  </g>
</svg>
