<svg width="16" height="16" viewBox="0 0 16 16" fill="none" xmlns="http://www.w3.org/2000/svg">
  <path d="M13 1C12.4477 1 12 1.44772 12 2V14C12 14.5523 12.4477 15 13 15C13.5523 15 14 14.5523 14 14V2C14 1.44772 13.5523 1 13 1Z"
        fill="#6C707E"/>
  <path d="M3 5C2.44772 5 2 5.44772 2 6V10C2 10.5523 2.44772 11 3 11C3.55228 11 4 10.5523 4 10V6C4 5.44772 3.55228 5 3 5Z" fill="#6C707E"/>
  <path d="M7 4C7 3.44772 7.44772 3 8 3C8.55228 3 9 3.44772 9 4V6C9 6.55228 8.55228 7 8 7C7.44772 7 7 6.55228 7 6V4Z" fill="#6C707E"/>
  <path d="M8 9C7.44772 9 7 9.44772 7 10V12C7 12.5523 7.44772 13 8 13C8.55228 13 9 12.5523 9 12V10C9 9.44772 8.55228 9 8 9Z"
        fill="#6C707E"/>
</svg>
