<svg width="24" height="24" viewBox="0 0 17 16" fill="none" xmlns="http://www.w3.org/2000/svg">
<path d="M14.1008 13.6683C14.1008 14.3921 13.5589 14.9789 12.8903 14.9789C12.2218 14.9789 11.6798 14.3921 11.6798 13.6683L11.6799 2.31046C11.6799 1.58667 12.2218 0.999932 12.8903 0.999932C13.5589 0.999932 14.1008 1.58667 14.1008 2.31046L14.1008 13.6683Z" fill="url(#paint0_linear_7365_17315)"/>
<path d="M9.25464 5.80505C9.25464 6.52883 8.71268 7.11557 8.04415 7.11557C7.37561 7.11557 6.83366 6.52883 6.83366 5.80505L6.83366 4.05768C6.83366 3.3339 7.37561 2.74716 8.04415 2.74716C8.71268 2.74716 9.25464 3.3339 9.25464 4.05768L9.25464 5.80505Z" fill="url(#paint1_linear_7365_17315)"/>
<path d="M4.42114 9.29833C4.42114 10.0221 3.87919 10.6089 3.21065 10.6089C2.54212 10.6089 2.00016 10.0221 2.00016 9.29833L2.00016 6.67728C2.00016 5.9535 2.54212 5.36676 3.21065 5.36676C3.87919 5.36676 4.42114 5.9535 4.42114 6.67729L4.42114 9.29833Z" fill="url(#paint2_linear_7365_17315)"/>
<path d="M9.25464 11.9183C9.25464 12.6421 8.71268 13.2289 8.04415 13.2289C7.37561 13.2289 6.83366 12.6421 6.83366 11.9183L6.83366 10.171C6.83366 9.44718 7.37561 8.86044 8.04415 8.86044C8.71268 8.86044 9.25464 9.44718 9.25464 10.171L9.25464 11.9183Z" fill="url(#paint3_linear_7365_17315)"/>
<defs>
<linearGradient id="paint0_linear_7365_17315" x1="13.3252" y1="4.24113" x2="17.4826" y2="8.20509" gradientUnits="userSpaceOnUse">
<stop stop-color="#564DE2"/>
<stop offset="1" stop-color="#68AEFF"/>
</linearGradient>
<linearGradient id="paint1_linear_7365_17315" x1="6.83366" y1="0.530028" x2="10.6323" y2="3.97904" gradientUnits="userSpaceOnUse">
<stop stop-color="#6C63FF"/>
<stop offset="1" stop-color="#7AB7FE"/>
</linearGradient>
<linearGradient id="paint2_linear_7365_17315" x1="3.75429" y1="11.5614" x2="0.292033" y2="7.61673" gradientUnits="userSpaceOnUse">
<stop stop-color="#4BFFDF"/>
<stop offset="1" stop-color="#7AB7FE"/>
</linearGradient>
<linearGradient id="paint3_linear_7365_17315" x1="8.83423" y1="15.7526" x2="4.7185" y2="11.4355" gradientUnits="userSpaceOnUse">
<stop stop-color="#4BFFDF"/>
<stop offset="1" stop-color="#4D9FFF"/>
</linearGradient>
</defs>
</svg>
