<svg width="16" height="16" viewBox="0 0 16 16" fill="none" xmlns="http://www.w3.org/2000/svg">
<path d="M6 3C6 2.44772 6.44772 2 7 2H9C9.55228 2 10 2.44772 10 3V13C10 13.5523 9.55228 14 9 14H7C6.44772 14 6 13.5523 6 13V3Z" fill="#4682FA"/>
<path d="M11 8C11 7.44772 11.4477 7 12 7H14C14.5523 7 15 7.44772 15 8V13C15 13.5523 14.5523 14 14 14H12C11.4477 14 11 13.5523 11 13V8Z" fill="#E55765"/>
<path d="M1 7C1 6.44772 1.44772 6 2 6H4C4.55228 6 5 6.44772 5 7V13C5 13.5523 4.55228 14 4 14H2C1.44772 14 1 13.5523 1 13V7Z" fill="#FFAF0F"/>
</svg>
