<svg width="16" height="16" viewBox="0 0 16 16" fill="none" xmlns="http://www.w3.org/2000/svg">
<path d="M1.5 9.5L3.5 3.5L4.77152 7.73841L8 6L14.5 2.5L10.8636 7.5L4.7747 7.74899L6.5 13.5L1.5 9.5Z" fill="#EDF3FF"/>
<path d="M1.5 9.5L3.5 3.5M1.5 9.5L6.5 13.5M1.5 9.5L4.75 7.75M3.5 3.5L6.5 13.5M3.5 3.5L8 6M6.5 13.5L10.8636 7.5M6.5 13.5L14.5 11M4.75 7.75L8 6M4.75 7.75L10.8636 7.5M8 6L14.5 2.5M10.8636 7.5L14.5 2.5M10.8636 7.5L14.5 11M14.5 11V2.5" stroke="#3574F0" stroke-linecap="round" stroke-linejoin="round"/>
</svg>
