<svg width="16" height="16" viewBox="0 0 13 13" xmlns="http://www.w3.org/2000/svg">
  <path fill="#9d75e6" d="M7 12c1.421 0 2.684-.342 3.474-.921.316-.237.526-.355.526-.671 0-.263-.421-.605-.855-.263-.658.54-1.79.855-3.145.855-2.855 0-5-1.566-5-3.645 0-1.723 1.132-2.487 3.526-2.487 1.724 0 2.54.303 2.54.935 0 .565-.408.67-1.277.329l-.17-.08C4.973 5.383 4 5.896 4 7.198 4 8.421 5.132 9 7.526 9 10.566 9 12 7.96 12 5.645 12 2.987 9.434 1 6 1c-1.421 0-2.684.342-3.474.921-.315.237-.526.355-.526.671 0 .263.421.605.855.263C3.513 2.315 4.645 2 6 2c2.855 0 5 1.566 5 3.645 0 1.723-1.132 2.487-3.526 2.487-1.724 0-2.54-.303-2.54-.935 0-.565.408-.658 1.263-.315l.185.065C8.039 7.605 9 7.105 9 5.803 9 4.579 7.868 4 5.474 4 2.434 4 1 5.04 1 7.355 1 10.013 3.566 12 7 12Z"/>
</svg>
