<svg width="24" height="24" viewBox="0 0 24 24" fill="none" xmlns="http://www.w3.org/2000/svg">
<path fill-rule="evenodd" clip-rule="evenodd" d="M18 15.5C19.933 15.5 21.5 13.933 21.5 12C21.5 10.067 19.933 8.5 18 8.5C16.067 8.5 14.5 10.067 14.5 12C14.5 13.933 16.067 15.5 18 15.5ZM18 17C20.7614 17 23 14.7614 23 12C23 9.23858 20.7614 7 18 7C15.2386 7 13 9.23858 13 12C13 14.7614 15.2386 17 18 17Z" fill="#6C707E"/>
<path fill-rule="evenodd" clip-rule="evenodd" d="M14.0842 7.45379C13.4498 7.16244 12.7439 7 12 7C9.23858 7 7 9.23858 7 12C7 14.7614 9.23858 17 12 17C12.7439 17 13.4498 16.8376 14.0842 16.5462C13.6789 16.1967 13.3208 15.794 13.0208 15.3488C12.6978 15.4471 12.3551 15.5 12 15.5C10.067 15.5 8.5 13.933 8.5 12C8.5 10.067 10.067 8.5 12 8.5C12.3551 8.5 12.6978 8.55288 13.0208 8.65119C13.3208 8.20601 13.6789 7.80325 14.0842 7.45379Z" fill="#6C707E"/>
<path fill-rule="evenodd" clip-rule="evenodd" d="M8.08424 7.45379C7.44979 7.16244 6.74387 7 6 7C3.23858 7 1 9.23858 1 12C1 14.7614 3.23858 17 6 17C6.74387 17 7.44979 16.8376 8.08424 16.5462C7.67888 16.1967 7.32076 15.794 7.02076 15.3488C6.69782 15.4471 6.35509 15.5 6 15.5C4.067 15.5 2.5 13.933 2.5 12C2.5 10.067 4.067 8.5 6 8.5C6.35509 8.5 6.69782 8.55288 7.02076 8.65119C7.32076 8.20601 7.67888 7.80325 8.08424 7.45379Z" fill="#6C707E"/>
</svg>
