<?xml version="1.0" encoding="utf-8"?><!-- Uploaded to: SVG Repo, www.svgrepo.com, Generator: SVG Repo Mixer Tools -->
<svg width="16px" height="16px" viewBox="0 0 16 16" fill="none" xmlns="http://www.w3.org/2000/svg">
  <path d="M7 0V1.60002C7.32311 1.53443 7.65753 1.5 8 1.5C8.34247 1.5 8.67689 1.53443 9 1.60002V0H11V2.49963C11.8265 3.12041 12.4543 3.99134 12.7711 5H3.2289C3.5457 3.99134 4.17354 3.12041 5 2.49963V0H7Z" fill="#9235"/>
  <path d="M0 7V9H3V10.4957L0.225279 11.2885L0.774721 13.2115L3.23189 12.5095C3.87194 14.5331 5.76467 16 8 16C10.2353 16 12.1281 14.5331 12.7681 12.5095L15.2253 13.2115L15.7747 11.2885L13 10.4957V9H16V7H9V12H7V7H0Z" fill="#9235"/>
</svg>