<svg width="16" height="16" viewBox="0 0 16 16" fill="none" xmlns="http://www.w3.org/2000/svg">
  <path
      d="M2.5 3C2.5 2.72386 2.72386 2.5 3 2.5H6.5C6.77614 2.5 7 2.72386 7 3V6.5C7 6.77614 6.77614 7 6.5 7H3C2.72386 7 2.5 6.77614 2.5 6.5V3Z"
      fill="#253627" stroke="#57965C"/>
  <path
      d="M2.5 9.5C2.5 9.22386 2.72386 9 3 9H6.5C6.77614 9 7 9.22386 7 9.5V13C7 13.2761 6.77614 13.5 6.5 13.5H3C2.72386 13.5 2.5 13.2761 2.5 13V9.5Z"
      fill="#253627" stroke="#57965C"/>
  <path
      d="M9 3C9 2.72386 9.22386 2.5 9.5 2.5H13C13.2761 2.5 13.5 2.72386 13.5 3V6.5C13.5 6.77614 13.2761 7 13 7H9.5C9.22386 7 9 6.77614 9 6.5V3Z"
      fill="#253627" stroke="#57965C"/>
  <path
      d="M9 9.5C9 9.22386 9.22386 9 9.5 9H13C13.2761 9 13.5 9.22386 13.5 9.5V13C13.5 13.2761 13.2761 13.5 13 13.5H9.5C9.22386 13.5 9 13.2761 9 13V9.5Z"
      fill="#253627" stroke="#57965C"/>
</svg>
