<svg width="18" height="18" viewBox="0 0 18 18" fill="none" xmlns="http://www.w3.org/2000/svg">
  <path
      d="M2.5 3C2.5 2.72386 2.72386 2.5 3 2.5H6.5C6.77614 2.5 7 2.72386 7 3V6.5C7 6.77614 6.77614 7 6.5 7H3C2.72386 7 2.5 6.77614 2.5 6.5V3Z"
      fill="#EBECF0" stroke="#6C707E"/>
  <path
      d="M2.5 9.5C2.5 9.22386 2.72386 9 3 9H6.5C6.77614 9 7 9.22386 7 9.5V13C7 13.2761 6.77614 13.5 6.5 13.5H3C2.72386 13.5 2.5 13.2761 2.5 13V9.5Z"
      fill="#EBECF0" stroke="#6C707E"/>
  <path
      d="M9 3C9 2.72386 9.22386 2.5 9.5 2.5H13C13.2761 2.5 13.5 2.72386 13.5 3V6.5C13.5 6.77614 13.2761 7 13 7H9.5C9.22386 7 9 6.77614 9 6.5V3Z"
      fill="#EBECF0" stroke="#6C707E"/>
  <path
      d="M9 9.5C9 9.22386 9.22386 9 9.5 9H13C13.2761 9 13.5 9.22386 13.5 9.5V13C13.5 13.2761 13.2761 13.5 13 13.5H9.5C9.22386 13.5 9 13.2761 9 13V9.5Z"
      fill="#EBECF0" stroke="#6C707E"/>
  <path d="M11.634 8.5C12.0189 7.83334 12.9811 7.83333 13.366 8.5L16.3971 13.75C16.782 14.4167 16.3009 15.25 15.5311 15.25L9.46891 15.25C8.69911 15.25 8.21798 14.4167 8.60288 13.75L11.634 8.5Z" fill="#FFAF0F"/>
  <path d="M12.5 14C12.2239 14 12 13.7761 12 13.5V12.5C12 12.2239 12.2239 12 12.5 12C12.7761 12 13 12.2239 13 12.5V13.5C13 13.7761 12.7761 14 12.5 14Z" fill="#EBECF0"/>
  <path d="M12.5 10C12.7761 10 13 10.2239 13 10.5C13 10.7761 12.7761 11 12.5 11C12.2239 11 12 10.7761 12 10.5C12 10.2239 12.2239 10 12.5 10Z" fill="#EBECF0"/>
</svg>
