<svg width="18" height="18" viewBox="0 0 18 18" fill="none" xmlns="http://www.w3.org/2000/svg">
  <path
      d="M2.5 4C2.5 3.17157 3.17157 2.5 4 2.5H12C12.8284 2.5 13.5 3.17157 13.5 4V12C13.5 12.8284 12.8284 13.5 12 13.5H4C3.17157 13.5 2.5 12.8284 2.5 12V4Z"
      fill="#EBECF0" stroke="#6C707E"/>
  <circle cx="12.5" cy="12.5" r="4.1" fill="#4682FA"/>
  <path d="M12.5 15C12.2239 15 12 14.7761 12 14.5V12.5C12 12.2239 12.2239 12 12.5 12C12.7761 12 13 12.2239 13 12.5V14.5C13 14.7761 12.7761 15 12.5 15Z" fill="white"/>
  <path d="M12.5 10C12.7761 10 13 10.2239 13 10.5C13 10.7761 12.7761 11 12.5 11C12.2239 11 12 10.7761 12 10.5C12 10.2239 12.2239 10 12.5 10Z" fill="white"/>

</svg>
