<svg width="18" height="18" viewBox="0 0 18 18" fill="none" xmlns="http://www.w3.org/2000/svg">
<path d="M12.2 11.6218L8.19997 13.3672C8.07246 13.4228 7.92754 13.4228 7.80003 13.3672L3.80003 11.6218C3.6178 11.5422 3.5 11.3623 3.5 11.1635V6C3.5 5.72386 3.72386 5.5 4 5.5H12C12.2761 5.5 12.5 5.72386 12.5 6V11.1635C12.5 11.3623 12.3822 11.5422 12.2 11.6218Z" fill="#43454A" stroke="#CED0D6" stroke-linejoin="round"/>
<path d="M8 1.5L15.5 5.5L8 9.5L0.5 5.5L8 1.5Z" fill="#43454A" stroke="#CED0D6" stroke-linejoin="round"/>
  <circle cx="12.5" cy="12.5" r="4.1" fill="#3574F0"/>
  <path d="M12.5 15C12.2239 15 12 14.7761 12 14.5V12.5C12 12.2239 12.2239 12 12.5 12C12.7761 12 13 12.2239 13 12.5V14.5C13 14.7761 12.7761 15 12.5 15Z" fill="white"/>
  <path d="M12.5 10C12.7761 10 13 10.2239 13 10.5C13 10.7761 12.7761 11 12.5 11C12.2239 11 12 10.7761 12 10.5C12 10.2239 12.2239 10 12.5 10Z" fill="white"/>

</svg>
