<svg width="14" height="14" viewBox="0 0 14 14" fill="none" xmlns="http://www.w3.org/2000/svg">
<path d="M2 7C2 9.76142 4.23858 12 7 12C8.38085 12 9.63017 11.4409 10.5355 10.5355C10.5482 10.5229 10.5614 10.511 10.575 10.5L8.5 10.5C8.22386 10.5 8 10.2761 8 10C8 9.72386 8.22386 9.5 8.5 9.5L11.5 9.5C11.7761 9.5 12 9.72386 12 10L12 13C12 13.2761 11.7761 13.5 11.5 13.5C11.2239 13.5 11 13.2761 11 13L11 11.4722C9.93885 12.4219 8.53653 13 7 13C3.68629 13 1 10.3137 1 7C1 6.72386 1.22386 6.5 1.5 6.5C1.77614 6.5 2 6.72386 2 7Z" fill="#6C707E"/>
<path d="M5.5 3.5L3.425 3.5C3.43862 3.48898 3.4518 3.47713 3.46447 3.46447C4.36984 2.5591 5.61915 2 7 2C9.76142 2 12 4.23858 12 7C12 7.27614 12.2239 7.5 12.5 7.5C12.7761 7.5 13 7.27614 13 7C13 3.68629 10.3137 1 7 1C5.46347 1 4.06115 1.57814 3 2.5278L3 1C3 0.723858 2.77614 0.5 2.5 0.5C2.22386 0.5 2 0.723858 2 1L2 4C2 4.27614 2.22386 4.5 2.5 4.5L5.5 4.5C5.77614 4.5 6 4.27614 6 4C6 3.72386 5.77614 3.5 5.5 3.5Z" fill="#6C707E"/>
</svg>
