<svg width="16" height="16" viewBox="0 0 16 16" fill="none" xmlns="http://www.w3.org/2000/svg">
<path fill-rule="evenodd" clip-rule="evenodd" d="M1.21969 2.08597C1.35707 1.99295 1.53165 1.97415 1.6857 2.03576L6.6857 4.03576C6.87552 4.1117 7 4.29555 7 4.5V13.5C7 13.6659 6.9177 13.821 6.78031 13.914C6.64293 14.0071 6.46835 14.0259 6.3143 13.9642L1.3143 11.9642C1.12448 11.8883 1 11.7045 1 11.5V2.5C1 2.33409 1.0823 2.17898 1.21969 2.08597ZM2 3.23852V11.1615L6 12.7615V4.83852L2 3.23852Z" fill="#6C707E"/>
<path fill-rule="evenodd" clip-rule="evenodd" d="M13.7803 2.08597C13.9177 2.17898 14 2.33409 14 2.5V11.5C14 11.7045 13.8755 11.8883 13.6857 11.9642L8.6857 13.9642C8.53165 14.0259 8.35707 14.0071 8.21969 13.914C8.0823 13.821 8 13.6659 8 13.5V4.5C8 4.29555 8.12448 4.1117 8.3143 4.03576L13.3143 2.03576C13.4683 1.97415 13.6429 1.99295 13.7803 2.08597ZM9 4.83852V12.7615L13 11.1615V3.23852L9 4.83852Z" fill="#6C707E"/>
</svg>
