<svg width="16" height="16" viewBox="0 0 16 16" fill="none" xmlns="http://www.w3.org/2000/svg">
  <path
      d="M4.77152 7.73841L3.5 3.5L8 6L4.77152 7.73841L4.7747 7.74899L10.8636 7.5L14.5 11L6.5 13.5L4.7747 7.74899L4.75 7.75L4.77152 7.73841Z"
      fill="#25324D"/>
  <path
      d="M1.5 9.5L3.5 3.5M1.5 9.5L6.5 13.5M1.5 9.5L4.75 7.75M3.5 3.5L6.5 13.5M3.5 3.5L8 6M6.5 13.5L10.8636 7.5M6.5 13.5L14.5 11M14.5 2.5L8 6M14.5 2.5L10.8636 7.5M14.5 2.5V11M8 6L4.75 7.75M10.8636 7.5L14.5 11M10.8636 7.5L4.75 7.75"
      stroke="#548AF7" stroke-linecap="round" stroke-linejoin="round"/>
</svg>
