<svg width="16" height="16" viewBox="0 0 16 16" fill="none" xmlns="http://www.w3.org/2000/svg">
  <path
      d="M10.9995 4C10.9995 5.65685 9.65637 7 7.99951 7C6.34266 7 4.99951 5.65685 4.99951 4C4.99951 2.34315 6.34266 1 7.99951 1C9.65637 1 10.9995 2.34315 10.9995 4Z"
      fill="#43454A"/>
  <path
      d="M7.99969 8C3.54766 8 2.39906 11.3034 2.10272 13.008C2.00813 13.5521 2.4474 14 2.99969 14H11C11 12.5874 11.9764 11.4028 13.291 11.0843C12.5553 9.55671 11.0559 8 7.99969 8Z"
      fill="#43454A"/>
  <path fill-rule="evenodd" clip-rule="evenodd"
        d="M7.99951 7C9.65637 7 10.9995 5.65685 10.9995 4C10.9995 2.34315 9.65637 1 7.99951 1C6.34266 1 4.99951 2.34315 4.99951 4C4.99951 5.65685 6.34266 7 7.99951 7ZM7.99951 6C9.10408 6 9.99951 5.10457 9.99951 4C9.99951 2.89543 9.10408 2 7.99951 2C6.89494 2 5.99951 2.89543 5.99951 4C5.99951 5.10457 6.89494 6 7.99951 6Z"
        fill="#CED0D6"/>
  <path
      d="M2.10272 13.008C2.39906 11.3034 3.54766 8 7.99969 8C11.0559 8 12.5553 9.55671 13.291 11.0843C12.9596 11.1646 12.6497 11.2999 12.3715 11.48C12.2073 11.1459 12.0014 10.8154 11.7438 10.5114C11.0591 9.70375 9.94134 9 7.99969 9C6.05804 9 4.94028 9.70375 4.25563 10.5114C3.59131 11.2951 3.27126 12.2552 3.12154 13H11.1707C11.0602 13.3128 11 13.6494 11 14H2.99969C2.4474 14 2.00813 13.5521 2.10272 13.008Z"
      fill="#CED0D6"/>
  <path fill-rule="evenodd" clip-rule="evenodd"
        d="M16 14C16 15.1046 15.1046 16 14 16C12.8954 16 12 15.1046 12 14C12 12.8954 12.8954 12 14 12C15.1046 12 16 12.8954 16 14Z"
        fill="#57965C"/>
</svg>
