<svg width="24" height="25" viewBox="0 0 24 25" fill="none" xmlns="http://www.w3.org/2000/svg">
  <path
      d="M23.989 12.5917C23.9856 12.4914 23.9796 12.3912 23.971 12.2913V12.2891V12.287C23.884 11.2031 23.5435 10.1607 22.9811 9.25699C22.7308 8.85122 22.4401 8.47608 22.1142 8.13825C21.6311 7.64145 21.0776 7.23072 20.4745 6.92152C19.5207 6.43797 18.478 6.19212 17.4239 6.20225C16.5557 6.19844 15.6939 6.3603 14.8782 6.68032C14.2202 6.92725 13.6046 7.28962 13.0564 7.75277C12.9422 7.85273 12.8311 7.95688 12.7235 8.06503L12.6385 8.15655L12.5215 8.29114H12.5225L12.4665 8.35037L12.4405 8.38051L12.2995 8.5388C12.1955 8.66478 12.0975 8.79076 12.0036 8.91458V8.91243L11.9996 8.9092C11.8076 9.16008 11.6296 9.42173 11.4996 9.65539C11.4106 9.80613 11.3236 9.96011 11.2407 10.1152L10.0938 12.6121L10.0958 12.6132L10.0358 12.7403L9.90983 13.0159C9.65887 13.564 9.3889 14.111 9.08894 14.5611C8.41703 15.3546 7.65813 15.7433 6.68325 15.7433C6.61526 15.7433 6.54427 15.7401 6.47428 15.7347C5.88636 15.71 5.38242 15.5603 4.93548 15.2749C4.51355 15.0138 4.16895 14.6293 3.94161 14.1659C3.712 13.715 3.5994 13.2058 3.61565 12.6918L3.61765 12.6552C3.64865 11.8369 3.93861 11.1994 4.52153 10.6514C4.66352 10.5179 4.8125 10.4059 4.96748 10.3068C4.98847 10.2928 5.01147 10.281 5.03247 10.2681C5.46641 10.0129 5.95935 9.88581 6.52427 9.88581L6.70025 9.8912C7.59913 9.92781 8.29204 10.2293 8.84497 10.8204L10.5787 7.46851C10.1412 7.15678 9.67187 6.90027 9.17993 6.70401C9.16093 6.69648 9.13993 6.68679 9.11994 6.68032C9.05795 6.65664 8.99695 6.63187 8.93396 6.61034C8.37776 6.413 7.80183 6.28722 7.21818 6.23563C7.20284 6.23354 7.18751 6.23139 7.17219 6.22917C7.0812 6.22378 6.98821 6.21194 6.89723 6.20763C6.79828 6.20353 6.69928 6.20102 6.60026 6.20009H6.54527C5.49869 6.19395 4.46414 6.44047 3.51766 6.92152C2.50229 7.43938 1.63734 8.24575 1.01599 9.25376C0.346351 10.3303 -0.00756465 11.5986 0.000122622 12.8943C-0.00187712 14.5783 0.568049 16.0577 1.7009 17.3014C2.88475 18.6053 4.42155 19.3085 6.26731 19.3914C6.38529 19.3968 6.50228 19.4 6.62026 19.4C7.66513 19.4 8.631 19.1997 9.49789 18.7992C9.71486 18.699 9.92483 18.5827 10.1398 18.4524C10.2568 18.3803 10.3678 18.3028 10.4778 18.2209L10.5577 18.1617L10.6947 18.0616C10.8587 17.9345 11.0117 17.7967 11.1617 17.6513L11.2137 17.5975C11.3017 17.5081 11.3896 17.4166 11.4726 17.3229L11.7836 16.9439L11.9016 16.7846L11.9576 16.6973L12.0126 16.6123C12.4745 15.7767 13.9773 12.7349 13.9773 12.7349V12.7284L14.0673 12.5432L14.1413 12.3979C14.3633 11.9639 14.5232 11.656 14.7352 11.3319L14.7412 11.3211C15.2341 10.5491 16.085 9.99995 17.0869 9.90735C18.7667 9.75122 20.2385 10.94 20.3735 12.5615C20.5085 14.1842 19.2566 15.626 17.5758 15.7821C17.2376 15.8133 16.8969 15.7901 16.565 15.7132L16.556 15.7164C15.3241 15.4397 14.5392 14.4728 14.1523 14.0388L12.5355 17.2411C12.5355 17.2411 13.0384 17.7859 13.3824 18.0583C13.7283 18.3308 14.1733 18.5978 14.5282 18.7647C15.424 19.1825 16.3897 19.3983 17.3659 19.3989C17.4868 19.3989 17.4629 19.3989 17.5878 19.3935C19.4316 19.3106 21.0764 18.5493 22.2622 17.2454C23.3851 16.0071 23.995 14.5934 24 12.919V12.8684L23.989 12.5917Z"
      fill="#4682FA"/>
</svg>
