<svg width="24" height="24" viewBox="0 0 24 24" fill="none" xmlns="http://www.w3.org/2000/svg">
  <path
      d="M20.4315 7.0125L16.977 3.558C15.654 2.235 13.8795 1.5 12 1.5C10.1205 1.5 8.346 2.235 7.0125 3.5685L3.5685 7.0125C2.235 8.346 1.5 10.1205 1.5 12C1.5 13.8795 2.235 15.654 3.5685 16.9875L7.023 20.442C8.346 21.765 10.1205 22.5 12 22.5C13.827 22.5 15.57 21.7965 16.893 20.526L16.9035 20.5155L16.914 20.505L20.442 16.977C21.765 15.654 22.5 13.8795 22.5 12C22.5 10.1205 21.765 8.346 20.4315 7.0125Z"
      fill="black"/>
  <path
      d="M14.5203 18.0795C13.8693 18.7095 12.9768 19.098 11.9898 19.098C10.9818 19.098 10.0788 18.6885 9.41734 18.027L11.1183 16.326C11.3388 16.5465 11.6538 16.6935 11.9898 16.6935C12.3363 16.6935 12.6408 16.557 12.8613 16.326L16.3158 12.8715C16.5363 12.651 16.6833 12.336 16.6833 12C16.6833 11.6535 16.5468 11.349 16.3158 11.1285C16.0953 10.908 15.7803 10.761 15.4443 10.761C15.0978 10.761 14.7933 10.8975 14.5728 11.1285L11.1183 14.583C10.4568 15.2445 9.54334 15.654 8.54584 15.654C7.53784 15.654 6.63484 15.2445 5.97334 14.583C5.31184 13.9215 4.90234 13.008 4.90234 12.0105C4.90234 11.0025 5.31184 10.0995 5.97334 9.43801L9.42784 5.98351C10.0893 5.32201 11.0028 4.91251 12.0003 4.91251C13.0083 4.91251 13.9113 5.32201 14.5728 5.98351L12.8718 7.68451C12.6513 7.46401 12.3363 7.31701 12.0003 7.31701C11.6538 7.31701 11.3493 7.45351 11.1288 7.68451L7.67434 11.139C7.45384 11.3595 7.30684 11.6745 7.30684 12.0105C7.30684 12.357 7.44334 12.6615 7.67434 12.882C7.89484 13.1025 8.20984 13.2495 8.54584 13.2495C8.89234 13.2495 9.19684 13.113 9.41734 12.882L12.8718 9.42751C13.5333 8.76601 14.4468 8.35651 15.4443 8.35651C16.4418 8.35651 17.3553 8.76601 18.0168 9.42751C18.6783 10.089 19.0878 11.0025 19.0878 12C19.0878 13.008 18.6783 13.911 18.0168 14.5725L14.5203 18.0795Z"
      fill="white"/>
</svg>
