<svg width="294" height="250" viewBox="0 0 294 250" fill="none" xmlns="http://www.w3.org/2000/svg">
  <g clip-path="url(#clip0_5144_444)">
    <mask id="mask0_5144_444" style="mask-type:luminance" maskUnits="userSpaceOnUse" x="0" y="0" width="294" height="250">
      <path d="M293.677 0H0.000976562V250H293.677V0Z" fill="white"/>
    </mask>
    <g mask="url(#mask0_5144_444)">
      <path opacity="0.7" d="M310.611 -105.665C310.611 -129.213 291.54 -148.303 268.014 -148.303C244.489 -148.303 225.418 -129.213 225.418 -105.665V32.0467C225.418 55.5948 244.489 74.6844 268.014 74.6844C291.54 74.6844 310.611 55.5948 310.611 32.0467V-105.665Z" fill="url(#paint0_linear_5144_444)" fill-opacity="0.6"/>
      <path opacity="0.7" d="M243.937 169.227C243.937 145.386 224.63 126.06 200.812 126.06C176.994 126.06 157.687 145.386 157.687 169.227V286.812C157.687 310.653 176.994 329.98 200.812 329.98C224.63 329.98 243.937 310.653 243.937 286.812V169.227Z" fill="url(#paint1_linear_5144_444)" fill-opacity="0.6"/>
      <path opacity="0.5" d="M71.4358 233.85C71.4358 214.105 55.4446 198.098 35.7184 198.098C15.9922 198.098 0.000976562 214.105 0.000976562 233.85V384.803C0.000976562 404.549 15.9922 420.555 35.7184 420.555C55.4446 420.555 71.4358 404.549 71.4358 384.803V233.85Z" fill="url(#paint2_linear_5144_444)" fill-opacity="0.6"/>
      <path d="M50.6785 112.574C32.9183 91.5053 35.5836 60.0147 56.6314 42.2373L99.3325 92.8922L61.2219 125.081L50.6785 112.574Z" fill="url(#paint3_linear_5144_444)"/>
      <path d="M133.147 42.9191C115.387 21.8508 83.9267 19.183 62.8789 36.9604L105.58 87.6153L143.691 55.4265L133.147 42.9191Z" fill="url(#paint4_linear_5144_444)"/>
      <path d="M180.066 98.5749C199.282 121.37 196.399 155.441 173.625 174.677C150.853 193.911 116.814 191.024 97.5979 168.23L68.0762 133.209L150.545 63.5542L180.066 98.5749Z" fill="url(#paint5_linear_5144_444)"/>
      <path d="M99.7435 74.3436C96.832 70.8898 91.6746 70.4524 88.2242 73.3667C84.7737 76.281 84.3368 81.4434 87.2483 84.8972L105.172 106.16C108.084 109.614 113.241 110.051 116.692 107.137C120.142 104.222 120.579 99.06 117.667 95.6062L99.7435 74.3436Z" stroke="url(#paint6_linear_5144_444)" stroke-width="8.57143"/>
    </g>
  </g>
  <defs>
    <linearGradient id="paint0_linear_5144_444" x1="252.71" y1="22.9813" x2="201.218" y2="-85.3231" gradientUnits="userSpaceOnUse">
      <stop stop-color="#564DE2"/>
      <stop offset="1" stop-color="#68AEFF"/>
    </linearGradient>
    <linearGradient id="paint1_linear_5144_444" x1="243.938" y1="433.475" x2="77.1355" y2="317.89" gradientUnits="userSpaceOnUse">
      <stop stop-color="#6C63FF"/>
      <stop offset="1" stop-color="#69AEFF"/>
    </linearGradient>
    <linearGradient id="paint2_linear_5144_444" x1="19.6776" y1="157.677" x2="163.924" y2="271.946" gradientUnits="userSpaceOnUse">
      <stop stop-color="#4BFFDF"/>
      <stop offset="1" stop-color="#7AB7FE"/>
    </linearGradient>
    <linearGradient id="paint3_linear_5144_444" x1="63.5303" y1="103.024" x2="32.6107" y2="80.3484" gradientUnits="userSpaceOnUse">
      <stop stop-color="#564DE2"/>
      <stop offset="1" stop-color="#68AEFF"/>
    </linearGradient>
    <linearGradient id="paint4_linear_5144_444" x1="82.7329" y1="4.43377" x2="98.7337" y2="80.5147" gradientUnits="userSpaceOnUse">
      <stop stop-color="#4BFFDF"/>
      <stop offset="1" stop-color="#7AB7FE"/>
    </linearGradient>
    <linearGradient id="paint5_linear_5144_444" x1="203.83" y1="172.898" x2="95.2856" y2="112.035" gradientUnits="userSpaceOnUse">
      <stop stop-color="#4BFFDF"/>
      <stop offset="1" stop-color="#7AB7FE"/>
    </linearGradient>
    <linearGradient id="paint6_linear_5144_444" x1="107.846" y1="101.202" x2="86.2321" y2="91.7157" gradientUnits="userSpaceOnUse">
      <stop stop-color="#564DE2"/>
      <stop offset="1" stop-color="#68AEFF"/>
    </linearGradient>
    <clipPath id="clip0_5144_444">
      <rect width="294" height="250" fill="white"/>
    </clipPath>
  </defs>
</svg>
