<svg width="16" height="16" viewBox="0 0 16 16" fill="none" xmlns="http://www.w3.org/2000/svg">
  <path d="M7.76554 0.633626C7.84608 0.415971 8.15392 0.415972 8.23446 0.633627L10.0012 5.40803C10.1024 5.68175 10.3182 5.89756 10.592 5.99885L15.3664 7.76554C15.584 7.84608 15.584 8.15392 15.3664 8.23446L10.592 10.0012C10.3182 10.1024 10.1024 10.3182 10.0012 10.592L8.23446 15.3664C8.15392 15.584 7.84608 15.584 7.76554 15.3664L5.99885 10.592C5.89756 10.3182 5.68175 10.1024 5.40803 10.0012L0.633626 8.23446C0.415971 8.15392 0.415972 7.84608 0.633627 7.76554L5.40803 5.99885C5.68175 5.89756 5.89756 5.68175 5.99885 5.40803L7.76554 0.633626Z" fill="url(#paint0_linear_5144_946)"/>
  <defs>
    <linearGradient id="paint0_linear_5144_946" x1="12.8" y1="3.2" x2="2.13333" y2="14.4" gradientUnits="userSpaceOnUse">
      <stop offset="0.0001" stop-color="#E650FF"/>
      <stop offset="1" stop-color="#7F30FF"/>
    </linearGradient>
  </defs>
</svg>
