<svg xmlns="http://www.w3.org/2000/svg" width="16" height="16" viewBox="0 0 16 16">
  <g fill="none" fill-rule="evenodd">
    <path fill="#9AA7B0" d="M13,5 L11,5 L11,4 L4,4 L4,11 L5,11 L5,13 L2,13 L2,2 L13,2 L13,5 Z"/>
    <path fill="#9AA7B0" d="M10.5,6.5 L14,8.60000038 L14,12.3999996 L10.5,14.5 L7,12.3999996 L7,8.60000038 L10.5,6.5 Z M10.4999996,12.0999997 C11.3836553,12.0999997 12.0999997,11.3836553 12.0999997,10.4999996 C12.0999997,9.61634403 11.3836553,8.89999962 10.4999996,8.89999962 C9.61634403,8.89999962 8.89999962,9.61634403 8.89999962,10.4999996 C8.89999962,11.3836553 9.61634403,12.0999997 10.4999996,12.0999997 Z"/>
  </g>
</svg>
