<svg width="16" height="16" viewBox="0 0 16 16" fill="none" xmlns="http://www.w3.org/2000/svg">
<path fill-rule="evenodd" clip-rule="evenodd" d="M15.8612 14.546L13.4601 10.5443C13.0251 9.81923 11.9744 9.81923 11.5394 10.5443L9.13829 14.546C8.75437 15.1859 9.21528 15.9999 9.96148 15.9999H15.038C15.7842 15.9999 16.2451 15.1859 15.8612 14.546Z" fill="#FFAF0F"/>
<path d="M13.0001 11.5C13.0001 11.2239 12.7762 11 12.5 11V11C12.2239 11 12 11.2239 12 11.5V12.5C12 12.7761 12.2239 13 12.5 13V13C12.7762 13 13.0001 12.7761 13.0001 12.5V11.5Z" fill="white"/>
<path d="M12.5002 15C12.7763 15 13.0002 14.7762 13.0002 14.5001V14.5001C13.0002 14.2239 12.7763 14 12.5002 14V14C12.224 14 12.0002 14.2238 12.0001 14.4999V14.4999C12 14.7761 12.224 15 12.5002 15V15Z" fill="white"/>
</svg>
