<svg width="12" height="12" viewBox="0 0 12 12" fill="none" xmlns="http://www.w3.org/2000/svg">
<path fill-rule="evenodd" clip-rule="evenodd" d="M6 7C7.65685 7 9 5.65685 9 4C9 2.34315 7.65685 1 6 1C4.34315 1 3 2.34315 3 4C3 5.65685 4.34315 7 6 7ZM6 6C7.10457 6 8 5.10457 8 4C8 2.89543 7.10457 2 6 2C4.89543 2 4 2.89543 4 4C4 5.10457 4.89543 6 6 6Z" fill="#6E6E6E"/>
<path fill-rule="evenodd" clip-rule="evenodd" d="M1 11H2C2 8.79086 3.79086 7 6 7C8.20914 7 10 8.79086 10 11H11C11 8.23858 8.76142 6 6 6C3.23858 6 1 8.23858 1 11Z" fill="#6E6E6E"/>
</svg>
