<svg width="26" height="26" viewBox="0 0 26 26" fill="none" xmlns="http://www.w3.org/2000/svg">
<path fill-rule="evenodd" clip-rule="evenodd" d="M11.0001 6.5C11.0001 6.22386 10.7763 6 10.5001 6C10.224 6 10.0001 6.22386 10.0001 6.5V7H6.50013C6.22399 7 6.00013 7.22386 6.00013 7.5C6.00013 7.77614 6.22399 8 6.50013 8H10.5001H11.9645C11.8266 9.00455 11.2916 10.1762 10.424 11.2479C10.2951 11.4071 10.1596 11.5632 10.0179 11.7154C9.51816 11.0373 9.16017 10.2507 8.99042 9.40195C8.93627 9.13117 8.67286 8.95556 8.40208 9.00971C8.1313 9.06387 7.95569 9.32728 8.00984 9.59806C8.21767 10.6372 8.66509 11.5957 9.29086 12.4124C8.44966 13.1319 7.45475 13.7072 6.36277 14.0192C6.09725 14.0951 5.9435 14.3718 6.01937 14.6374C6.09523 14.9029 6.37197 15.0566 6.63749 14.9808C7.88886 14.6232 9.01311 13.9688 9.95438 13.1607C10.8893 14.0741 12.0805 14.726 13.4021 14.9903C13.6729 15.0445 13.9363 14.8688 13.9904 14.5981C14.0446 14.3273 13.869 14.0639 13.5982 14.0097C12.483 13.7867 11.475 13.2387 10.6797 12.4711C10.8633 12.2781 11.0373 12.0796 11.2013 11.8771C12.1801 10.6679 12.8326 9.27323 12.9721 8H14.5001C14.7763 8 15.0001 7.77614 15.0001 7.5C15.0001 7.22386 14.7763 7 14.5001 7H12.5001H11.0001V6.5ZM16.9597 12.303C16.8809 12.1192 16.7001 12 16.5001 12C16.3001 12 16.1193 12.1192 16.0406 12.303L13.8977 17.303L13.0406 19.303C12.9318 19.5569 13.0494 19.8508 13.3032 19.9596C13.557 20.0683 13.8509 19.9508 13.9597 19.697L14.687 18H18.3133L19.0406 19.697C19.1493 19.9508 19.4433 20.0683 19.6971 19.9596C19.9509 19.8508 20.0685 19.5569 19.9597 19.303L19.1026 17.303L16.9597 12.303ZM16.5001 13.7693L17.8847 17H15.1155L16.5001 13.7693Z" fill="#CED0D6"/>
</svg>
