<svg width="24" height="24" viewBox="0 0 24 24" fill="none" xmlns="http://www.w3.org/2000/svg">
  <path fill-rule="evenodd" clip-rule="evenodd"
        d="M21.5287 14.6888L17.3847 11.0708L21.5287 5.16186V14.6888ZM8.80827 18.2341L3.07825 13.6565L6.55731 11.7759L8.80827 18.2341ZM4.62565 6.23257L6.09441 10.446L2.89924 12.1724L4.62565 6.23257ZM20.1001 4.89645L16.1906 10.4691L9.48548 10.1945L11.2119 9.26262L20.1001 4.89645ZM22.8 3.10526V3.10372C22.8 2.96641 22.7568 2.8399 22.692 2.72727C22.6843 2.71184 22.6812 2.69796 22.6704 2.68253C22.6673 2.67944 22.6689 2.67327 22.6673 2.66864C22.5948 2.56373 22.4976 2.49431 22.3927 2.44802C22.385 2.44339 22.3804 2.43568 22.3727 2.43105C22.3665 2.42951 22.3619 2.43259 22.3557 2.43105C22.3217 2.41716 22.2847 2.41254 22.2477 2.40636C22.2261 2.40328 22.2076 2.40174 22.1875 2.40019C22.132 2.39865 22.0749 2.40636 22.0193 2.42179C22.0024 2.42642 21.9854 2.42951 21.9653 2.43722C21.9468 2.44339 21.9283 2.44339 21.9098 2.45111L11.0114 7.80622L4.90951 3.51565C4.81077 3.44622 4.69969 3.42 4.58707 3.41691C4.57472 3.41691 4.56547 3.40765 4.55312 3.40765C4.52844 3.40765 4.51301 3.42771 4.48833 3.43079C4.44358 3.43851 4.3973 3.43234 4.35564 3.44931C4.31553 3.46628 4.28776 3.50022 4.25227 3.52491C4.22142 3.54342 4.19365 3.55885 4.16742 3.58662C4.07794 3.66839 4.00542 3.77176 3.96685 3.89827L1.2299 13.3156C1.22373 13.3403 1.23453 13.3634 1.2299 13.385C1.22373 13.4174 1.20367 13.4421 1.20058 13.4761C1.19596 13.5424 1.22064 13.6026 1.23144 13.6658C1.23915 13.7075 1.23607 13.7492 1.24841 13.7893C1.2947 13.9173 1.36258 14.0346 1.46595 14.1179L9.80641 20.7813C9.81721 20.7906 9.8311 20.7875 9.8419 20.7952C9.94218 20.8662 10.0548 20.914 10.1751 20.914C10.2384 20.914 10.2986 20.9047 10.3587 20.8847L22.348 16.8286C22.3619 16.824 22.368 16.807 22.3804 16.8024C22.4004 16.7931 22.4236 16.7962 22.4436 16.7854C22.5069 16.7515 22.5454 16.6882 22.5933 16.6342C22.6226 16.6018 22.6581 16.5833 22.6812 16.5447C22.7537 16.429 22.8 16.2933 22.8 16.1451V3.10835V3.10526Z"
        fill="#7F8B91" fill-opacity="0.9"/>
  <path fill-rule="evenodd" clip-rule="evenodd" d="M16.6003 12.1923L20.8061 15.8627L11.9194 18.8681L16.6003 12.1923Z" fill="#40B6E0"/>
  <path fill-rule="evenodd" clip-rule="evenodd" d="M10.3629 18.7838L7.84344 11.5526L15.2197 11.8565L10.3629 18.7838Z" fill="#40B6E0"/>
  <path fill-rule="evenodd" clip-rule="evenodd" d="M7.24258 9.82685L5.86176 5.86798L9.64628 8.52779L7.24258 9.82685Z" fill="#40B6E0"/>
</svg>
