<?xml version="1.0" encoding="UTF-8"?>
<svg xmlns="http://www.w3.org/2000/svg" width="24" height="24" viewBox="0 0 24 24" version="1.1">
  <g id="surface1">
    <path style=" stroke:none;fill-rule:nonzero;fill:#428bca;fill-opacity:1;" d="M 17.820312 5.84375 L 16.929688 5.804688 C 14.242188 5.804688 12.507812 7.28125 11.542969 9.007812 L 9.207031 13.28125 C 8.585938 14.300781 7.757812 14.742188 6.636719 14.742188 C 5.03125 14.742188 3.71875 13.480469 3.71875 11.945312 C 3.71875 10.398438 5.03125 9.144531 6.636719 9.144531 C 7.582031 9.144531 8.273438 9.40625 8.835938 10.042969 L 10.554688 7.105469 C 9.398438 6.25 8.019531 5.789062 6.601562 5.789062 C 3.0625 5.789062 0.179688 8.523438 0.179688 11.925781 C 0.179688 14.78125 2.230469 17.179688 5.011719 17.863281 C 5.511719 17.980469 6.050781 18.0625 6.59375 18.0625 L 6.730469 18.0625 C 8.835938 18.019531 10.84375 17.320312 11.824219 15.480469 L 14.417969 10.664062 C 14.898438 9.882812 15.34375 9.542969 16.019531 9.324219 C 16.324219 9.226562 16.65625 9.164062 17 9.164062 C 18.605469 9.164062 19.917969 10.425781 19.917969 11.960938 C 19.917969 13.507812 18.605469 14.769531 17.007812 14.769531 C 15.695312 14.769531 14.882812 14.425781 14.113281 13.425781 L 12.449219 16.25 C 13.605469 17.386719 15.25 18.113281 17.042969 18.113281 C 20.582031 18.113281 23.457031 15.367188 23.457031 11.976562 C 23.476562 8.8125 21.007812 6.210938 17.820312 5.855469 Z M 17.820312 5.84375 "/>
  </g>
</svg>
