<svg xmlns="http://www.w3.org/2000/svg" width="16" height="16" viewBox="0 0 16 16">
  <g fill="none" fill-rule="evenodd" transform="translate(3 1)">
    <path fill="#77BBE2" d="M9.09330769,7.91203846 C9.06753846,7.60742308 9.04792308,7.2755 9.04792308,6.92319231 C9.04792308,5.64088462 9.28561538,3.5555 9.28561538,3.5555 C9.28561538,1.59973077 7.49984615,0.000115384615 4.99984615,0.000115384615 C2.49984615,0.000115384615 0.714461538,1.59973077 0.714461538,3.5555 C0.714461538,3.5555 0.952153846,5.38434615 0.952153846,6.92319231 C0.952153846,7.29973077 0.936,7.62242308 0.914461538,7.91203846 L0.924076923,7.91203846 C0.861384615,9.14934615 0.714461538,10.2905 0.714461538,10.2905 C0.714461538,12.2462692 2.49984615,13.8462692 4.99984615,13.8462692 C7.49984615,13.8462692 9.28561538,12.2462692 9.28561538,10.2905 C9.28561538,10.2905 9.146,9.06280769 9.081,7.91203846 L9.09330769,7.91203846 Z"/>
    <path fill="#77BBE2" d="M10 2.17942308C10 2.67519231 9.62692308 3.07673077 9.16653846 3.07673077 8.70653846 3.07673077 8.33346154 2.67519231 8.33346154 2.17942308 8.33346154 1.68365385 8.70653846 1.28211538 9.16653846 1.28211538 9.62692308 1.28211538 10 1.68365385 10 2.17942308M0 2.17942308C0 2.67519231.373076923 3.07673077.833461538 3.07673077 1.29346154 3.07673077 1.66653846 2.67519231 1.66653846 2.17942308 1.66653846 1.68365385 1.29346154 1.28211538.833461538 1.28211538.373076923 1.28211538 0 1.68365385 0 2.17942308"/>
    <path fill="#FFF" d="M4.74346154,4.07788462 C4.74346154,4.91403846 4.05461538,5.59173077 3.205,5.59173077 C2.35538462,5.59173077 1.66653846,4.91403846 1.66653846,4.07788462 C1.66653846,3.24173077 2.35538462,2.56403846 3.205,2.56403846 C4.05461538,2.56403846 4.74346154,3.24173077 4.74346154,4.07788462"/>
    <path fill="#FFF" d="M4.74346154,4.07788462 C4.74346154,4.91403846 4.05461538,5.59173077 3.205,5.59173077 C2.35538462,5.59173077 1.66653846,4.91403846 1.66653846,4.07788462 C1.66653846,3.24173077 2.35538462,2.56403846 3.205,2.56403846 C4.05461538,2.56403846 4.74346154,3.24173077 4.74346154,4.07788462"/>
    <path fill="#000" d="M3.99338462,4.07338462 C3.99338462,4.48184615 3.68569231,4.81338462 3.30607692,4.81338462 C2.92684615,4.81338462 2.61915385,4.48184615 2.61915385,4.07338462 C2.61915385,3.66492308 2.92684615,3.33338462 3.30607692,3.33338462 C3.68569231,3.33338462 3.99338462,3.66492308 3.99338462,4.07338462"/>
    <path fill="#FFF" d="M8.13738462,4.07788462 C8.13738462,4.91403846 7.44853846,5.59173077 6.59892308,5.59173077 C5.74892308,5.59173077 5.06046154,4.91403846 5.06046154,4.07788462 C5.06046154,3.24173077 5.74892308,2.56403846 6.59892308,2.56403846 C7.44853846,2.56403846 8.13738462,3.24173077 8.13738462,4.07788462"/>
    <path fill="#000" d="M7.38696154,4.07338462 C7.38696154,4.48184615 7.07926923,4.81338462 6.70003846,4.81338462 C6.32042308,4.81338462 6.01273077,4.48184615 6.01273077,4.07338462 C6.01273077,3.66492308 6.32042308,3.33338462 6.70003846,3.33338462 C7.07926923,3.33338462 7.38696154,3.66492308 7.38696154,4.07338462"/>
    <polygon fill="#FFF" points="4.523 6.923 5.476 6.923 5.476 6.154 4.523 6.154"/>
    <path fill="#B7937F" d="M5.95253846,5.8975 C5.95253846,6.18057692 5.526,6.41019231 4.99984615,6.41019231 C4.47407692,6.41019231 4.04753846,6.18057692 4.04753846,5.8975 C4.04753846,5.61442308 4.47407692,5.38480769 4.99984615,5.38480769 C5.526,5.38480769 5.95253846,5.61442308 5.95253846,5.8975"/>
    <path fill="#000" d="M5.47626923,5.6325 C5.47626923,5.92057692 5.25973077,5.8975 4.99203846,5.8975 C4.72473077,5.8975 4.50780769,5.92057692 4.50780769,5.6325 C4.50780769,5.34442308 4.72473077,5.11134615 4.99203846,5.11134615 C5.25973077,5.11134615 5.47626923,5.34442308 5.47626923,5.6325"/>
    <path fill="#B7937F" fill-rule="nonzero" d="M10,1.27107692 C10,1.62492308 9.73346154,1.91223077 9.40461538,1.91223077 C9.07615385,1.91223077 8.80923077,1.62492308 8.80923077,1.27107692 C8.80923077,0.917230769 9.07615385,0.629923077 9.40461538,0.629923077 C9.73346154,0.629923077 10,0.917230769 10,1.27107692 M1.19065385,1.27107692 C1.19065385,1.62492308 0.924115385,1.91223077 0.595269231,1.91223077 C0.266807692,1.91223077 -0.000115384615,1.62492308 -0.000115384615,1.27107692 C-0.000115384615,0.917230769 0.266807692,0.629923077 0.595269231,0.629923077 C0.924115385,0.629923077 1.19065385,0.917230769 1.19065385,1.27107692 M9.00015385,7.205 C9.00015385,7.55923077 8.73361538,7.84615385 8.40476923,7.84615385 C8.07630769,7.84615385 7.80938462,7.55923077 7.80938462,7.205 C7.80938462,6.85115385 8.07630769,6.56423077 8.40476923,6.56423077 C8.73361538,6.56423077 9.00015385,6.85115385 9.00015385,7.205 M2.1905,7.205 C2.1905,7.55923077 1.92396154,7.84615385 1.59511538,7.84615385 C1.26665385,7.84615385 0.999730769,7.55923077 0.999730769,7.205 C0.999730769,6.85115385 1.26665385,6.56423077 1.59511538,6.56423077 C1.92396154,6.56423077 2.1905,6.85115385 2.1905,7.205" transform="translate(0 6)"/>
  </g>
</svg>
