<?xml version="1.0" encoding="UTF-8"?>
<svg xmlns="http://www.w3.org/2000/svg" width="16" height="16" viewBox="0 0 16 16" version="1.1">
  <g id="surface1">
    <path style=" stroke:none;fill-rule:nonzero;fill:rgb(32.54902%,50.980392%,63.137255%);fill-opacity:1;"
          d="M 6.144531 12.375 C 6.144531 12.375 5.542969 12.730469 6.574219 12.847656 C 7.824219 12.996094 8.460938 12.972656 9.839844 12.710938 C 9.839844 12.710938 10.199219 12.9375 10.707031 13.140625 C 7.621094 14.480469 3.722656 13.0625 6.144531 12.375 Z M 6.144531 12.375 "/>
    <path style=" stroke:none;fill-rule:nonzero;fill:rgb(32.54902%,50.980392%,63.137255%);fill-opacity:1;"
          d="M 5.769531 10.621094 C 5.769531 10.621094 5.09375 11.128906 6.125 11.238281 C 7.457031 11.378906 8.511719 11.390625 10.335938 11.03125 C 10.335938 11.03125 10.589844 11.292969 10.984375 11.433594 C 7.253906 12.542969 3.097656 11.519531 5.769531 10.621094 Z M 5.769531 10.621094 "/>
    <path style=" stroke:none;fill-rule:nonzero;fill:rgb(90.588235%,43.529412%,0%);fill-opacity:1;"
          d="M 8.949219 7.652344 C 9.707031 8.539062 8.746094 9.339844 8.746094 9.339844 C 8.746094 9.339844 10.679688 8.328125 9.792969 7.058594 C 8.964844 5.878906 8.328125 5.292969 11.765625 3.269531 C 11.765625 3.269531 6.371094 4.636719 8.949219 7.652344 Z M 8.949219 7.652344 "/>
    <path style=" stroke:none;fill-rule:nonzero;fill:rgb(32.54902%,50.980392%,63.137255%);fill-opacity:1;"
          d="M 13.03125 13.667969 C 13.03125 13.667969 13.476562 14.042969 12.539062 14.332031 C 10.757812 14.878906 5.125 15.042969 3.558594 14.351562 C 2.996094 14.105469 4.050781 13.757812 4.382812 13.6875 C 4.730469 13.609375 4.925781 13.625 4.925781 13.625 C 4.300781 13.179688 0.882812 14.503906 3.191406 14.882812 C 9.484375 15.917969 14.660156 14.417969 13.03125 13.667969 Z M 13.03125 13.667969 "/>
    <path style=" stroke:none;fill-rule:nonzero;fill:rgb(32.54902%,50.980392%,63.137255%);fill-opacity:1;"
          d="M 6.433594 8.808594 C 6.433594 8.808594 3.570312 9.496094 5.421875 9.75 C 6.203125 9.855469 7.757812 9.832031 9.210938 9.707031 C 10.394531 9.605469 11.585938 9.390625 11.585938 9.390625 C 11.585938 9.390625 11.167969 9.570312 10.867188 9.78125 C 7.957031 10.558594 2.335938 10.195312 3.953125 9.402344 C 5.320312 8.730469 6.433594 8.808594 6.433594 8.808594 Z M 6.433594 8.808594 "/>
    <path style=" stroke:none;fill-rule:nonzero;fill:rgb(32.54902%,50.980392%,63.137255%);fill-opacity:1;"
          d="M 11.574219 11.722656 C 14.535156 10.164062 13.164062 8.664062 12.210938 8.867188 C 11.976562 8.914062 11.871094 8.957031 11.871094 8.957031 C 11.871094 8.957031 11.960938 8.820312 12.125 8.761719 C 14.015625 8.085938 15.464844 10.746094 11.515625 11.800781 C 11.515625 11.800781 11.5625 11.761719 11.574219 11.722656 Z M 11.574219 11.722656 "/>
    <path style=" stroke:none;fill-rule:nonzero;fill:rgb(90.588235%,43.529412%,0%);fill-opacity:1;"
          d="M 9.792969 0 C 9.792969 0 11.429688 1.664062 8.238281 4.21875 C 5.679688 6.273438 7.65625 7.441406 8.238281 8.777344 C 6.742188 7.410156 5.644531 6.207031 6.382812 5.085938 C 7.460938 3.4375 10.453125 2.640625 9.792969 0 Z M 9.792969 0 "/>
    <path style=" stroke:none;fill-rule:nonzero;fill:rgb(32.54902%,50.980392%,63.137255%);fill-opacity:1;"
          d="M 6.726562 15.949219 C 9.566406 16.132812 13.925781 15.847656 14.027344 14.484375 C 14.027344 14.484375 13.828125 15 11.679688 15.410156 C 9.257812 15.875 6.269531 15.820312 4.496094 15.523438 C 4.496094 15.523438 4.859375 15.828125 6.726562 15.949219 Z M 6.726562 15.949219 "/>
  </g>
</svg>
