<svg xmlns="http://www.w3.org/2000/svg" width="16" height="16" viewBox="0 0 16 16">
  <g fill="none" fill-rule="evenodd" transform="translate(1 2)">
    <path fill="#AFB1B3" d="M13.1761,7.9648 L10.4901,5.6198 L13.1761,1.7898 L13.1761,7.9648 Z M3.9161,4.8138 L3.0221,2.2468 L5.4741,3.9718 L3.9161,4.8138 Z M5.9391,10.6188 L4.3061,5.9328 L9.0871,6.1278 L5.9391,10.6188 Z M9.9821,6.3468 L12.7071,8.7258 L6.9471,10.6738 L9.9821,6.3468 Z M14.0001,0.4568 L14.0001,0.4558 C14.0001,0.3668 13.9721,0.2848 13.9301,0.2118 C13.9251,0.2018 13.9231,0.1918 13.9161,0.1828 C13.9141,0.1798 13.9151,0.1768 13.9141,0.1738 C13.8671,0.1058 13.8041,0.0608 13.7361,0.0308 C13.7311,0.0278 13.7281,0.0218 13.7231,0.0198 C13.7191,0.0188 13.7161,0.0208 13.7121,0.0198 C13.6901,0.0108 13.6661,0.0078 13.6421,0.0038 C13.6281,0.0018 13.6161,0.0008 13.6031,-0.0002 C13.5671,-0.0012 13.5301,0.0028 13.4941,0.0138 C13.4831,0.0168 13.4721,0.0188 13.4591,0.0238 C13.4471,0.0278 13.4351,0.0278 13.4231,0.0328 L6.3591,3.5038 L2.4041,0.7228 C2.3401,0.6778 2.2681,0.6608 2.1951,0.6588 C2.1871,0.6578 2.1811,0.6528 2.1731,0.6518 C2.1571,0.6528 2.1471,0.6658 2.1311,0.6678 C2.1021,0.6728 2.0721,0.6688 2.0451,0.6798 C2.0191,0.6908 2.0011,0.7128 1.9781,0.7288 C1.9581,0.7408 1.9401,0.7508 1.9231,0.7688 C1.8651,0.8218 1.8181,0.8878 1.7931,0.9698 L0.0191,7.0748 C0.0151,7.0898 0.0221,7.1058 0.0191,7.1198 C0.0151,7.1408 0.0021,7.1568 0.0001,7.1788 C-0.0029,7.2218 0.0131,7.2608 0.0201,7.3018 C0.0251,7.3288 0.0231,7.3548 0.0311,7.3818 C0.0611,7.4648 0.1051,7.5408 0.1721,7.5948 L5.5781,11.9138 C5.5851,11.9198 5.5941,11.9168 5.6011,11.9228 C5.6661,11.9688 5.7391,11.9998 5.8171,11.9998 C5.8581,11.9998 5.8971,11.9938 5.9361,11.9808 L13.7071,9.3518 C13.7161,9.3488 13.7201,9.3378 13.7281,9.3348 C13.7411,9.3288 13.7561,9.3308 13.7691,9.3238 C13.8101,9.3018 13.8351,9.2608 13.8661,9.2258 C13.8851,9.2048 13.9081,9.1928 13.9231,9.1678 C13.9701,9.0928 14.0001,9.0048 14.0001,8.9088 L14.0001,0.4578 L14.0001,0.4568 Z"/>
    <polygon fill="#62B543" points="2.22 2.483 3.172 5.214 1.101 6.334"/>
    <polygon fill="#62B543" points="4.931 10.263 1.217 7.296 3.472 6.077"/>
    <polygon fill="#62B543" points="12.25 1.618 9.716 5.229 5.37 5.052 6.488 4.448"/>
  </g>
</svg>
