<svg xmlns="http://www.w3.org/2000/svg" width="16" height="16" viewBox="0 0 40 40">
  <g fill="none" fill-rule="evenodd" transform="translate(1 10)">
    <path fill="#8993BE" d="M19,-0.0002 C29.493,-0.0002 38,4.4278 38,9.8908 C38,15.3528 29.493,19.7808 19,19.7808 C8.507,19.7808 0,15.3528 0,9.8908 C0,4.4278 8.507,-0.0002 19,-0.0002"/>
    <path fill="#232531" d="M10.5264 10.9724L9.0364 10.9724 9.6574 7.2464 11.2714 7.2464C12.1404 7.2464 12.7614 7.6194 12.7614 8.3644 12.6374 10.4754 11.6434 10.8474 10.5264 10.9724M12.2644 5.3844L7.6714 5.3844 5.6834 15.4424 8.0434 15.4424 8.5404 12.8344 10.7744 12.8344C12.8854 12.9584 15.2454 11.2204 15.2454 8.2404 15.2454 6.5014 14.2514 5.5084 12.2644 5.3844M15.0645 12.8347L17.0505 2.7767 19.4105 2.7767 18.9145 5.3847 21.1485 5.3847C23.1355 5.5087 23.8805 6.5017 23.6315 7.7437L22.7625 12.8347 20.2795 12.8347 21.1485 8.2407C21.2725 7.6197 21.2725 7.2467 20.4045 7.2467L18.5415 7.2467 17.4235 12.8347 15.0645 12.8347zM28.0088 10.9724L26.5188 10.9724 27.1398 7.2464 28.7538 7.2464C29.6228 7.2464 30.2438 7.6194 30.2438 8.3644 30.1198 10.4754 29.1268 10.8474 28.0088 10.9724M29.7468 5.3844L25.1538 5.3844 23.1658 15.4424 25.5258 15.4424 26.0228 12.8344 28.2578 12.8344C30.3678 12.9584 32.7278 11.2204 32.7278 8.2404 32.7278 6.5014 31.7348 5.5084 29.7468 5.3844"/>
  </g>
</svg>
