<svg xmlns="http://www.w3.org/2000/svg" width="16" height="16" viewBox="0 0 16 16">
  <g fill="none" fill-rule="evenodd" transform="translate(1 2)">
    <path fill="#AFB1B3" d="M13.1761,7.9647 L10.4901,5.6197 L13.1761,1.7897 L13.1761,7.9647 Z M4.9311,10.2627 L1.2171,7.2957 L3.4721,6.0767 L4.9311,10.2627 Z M2.2201,2.4837 L3.1721,5.2147 L1.1011,6.3337 L2.2201,2.4837 Z M12.2501,1.6177 L9.7161,5.2297 L5.3701,5.0517 L6.4891,4.4477 L12.2501,1.6177 Z M14.0001,0.4567 L14.0001,0.4557 C14.0001,0.3667 13.9721,0.2847 13.9301,0.2117 C13.9251,0.2017 13.9231,0.1927 13.9161,0.1827 C13.9141,0.1807 13.9151,0.1767 13.9141,0.1737 C13.8671,0.1057 13.8041,0.0607 13.7361,0.0307 C13.7311,0.0277 13.7281,0.0227 13.7231,0.0197 C13.7191,0.0187 13.7161,0.0207 13.7121,0.0197 C13.6901,0.0107 13.6661,0.0077 13.6421,0.0037 C13.6281,0.0017 13.6161,0.0007 13.6031,-0.0003 C13.5671,-0.0013 13.5301,0.0037 13.4941,0.0137 C13.4831,0.0167 13.4721,0.0187 13.4591,0.0237 C13.4471,0.0277 13.4351,0.0277 13.4231,0.0327 L6.3591,3.5037 L2.4041,0.7227 C2.3401,0.6777 2.2681,0.6607 2.1951,0.6587 C2.1871,0.6587 2.1811,0.6527 2.1731,0.6527 C2.1571,0.6527 2.1471,0.6657 2.1311,0.6677 C2.1021,0.6727 2.0721,0.6687 2.0451,0.6797 C2.0191,0.6907 2.0011,0.7127 1.9781,0.7287 C1.9581,0.7407 1.9401,0.7507 1.9231,0.7687 C1.8651,0.8217 1.8181,0.8887 1.7931,0.9707 L0.0191,7.0747 C0.0151,7.0907 0.0221,7.1057 0.0191,7.1197 C0.0151,7.1407 0.0021,7.1567 0.0001,7.1787 C-0.0029,7.2217 0.0131,7.2607 0.0201,7.3017 C0.0251,7.3287 0.0231,7.3557 0.0311,7.3817 C0.0611,7.4647 0.1051,7.5407 0.1721,7.5947 L5.5781,11.9137 C5.5851,11.9197 5.5941,11.9177 5.6011,11.9227 C5.6661,11.9687 5.7391,11.9997 5.8171,11.9997 C5.8581,11.9997 5.8971,11.9937 5.9361,11.9807 L13.7071,9.3517 C13.7161,9.3487 13.7201,9.3377 13.7281,9.3347 C13.7411,9.3287 13.7561,9.3307 13.7691,9.3237 C13.8101,9.3017 13.8351,9.2607 13.8661,9.2257 C13.8851,9.2047 13.9081,9.1927 13.9231,9.1677 C13.9701,9.0927 14.0001,9.0047 14.0001,8.9087 L14.0001,0.4587 L14.0001,0.4567 Z"/>
    <polygon fill="#40B6E0" points="9.982 6.347 12.708 8.726 6.948 10.674"/>
    <polygon fill="#40B6E0" points="5.939 10.619 4.306 5.932 9.087 6.129"/>
    <polygon fill="#40B6E0" points="3.916 4.813 3.021 2.247 5.474 3.971"/>
  </g>
</svg>
