<svg width="24" height="24" viewBox="0 0 24 24" fill="none" xmlns="http://www.w3.org/2000/svg">
  <path opacity="0.9"
        d="M20.4315 7.0125L16.977 3.558C15.654 2.235 13.8795 1.5 12 1.5C10.1205 1.5 8.346 2.235 7.0125 3.5685L3.5685 7.0125C2.235 8.346 1.5 10.1205 1.5 12C1.5 13.8795 2.235 15.654 3.5685 16.9875L7.023 20.442C8.346 21.765 10.1205 22.5 12 22.5C13.827 22.5 15.57 21.7965 16.893 20.526L16.9035 20.5155L16.914 20.505L20.442 16.977C21.765 15.654 22.5 13.8795 22.5 12C22.5 10.1205 21.765 8.346 20.4315 7.0125Z"
        fill="white"/>
  <path
      d="M14.52 18.0795C13.869 18.7095 12.9765 19.098 11.9895 19.098C10.9815 19.098 10.0785 18.6885 9.41698 18.027L11.118 16.326C11.3385 16.5465 11.6535 16.6935 11.9895 16.6935C12.336 16.6935 12.6405 16.557 12.861 16.326L16.3155 12.8715C16.536 12.651 16.683 12.336 16.683 12C16.683 11.6535 16.5465 11.349 16.3155 11.1285C16.095 10.908 15.78 10.761 15.444 10.761C15.0975 10.761 14.793 10.8975 14.5725 11.1285L11.118 14.583C10.4565 15.2445 9.54298 15.654 8.54548 15.654C7.53748 15.654 6.63448 15.2445 5.97298 14.583C5.31148 13.9215 4.90198 13.008 4.90198 12.0105C4.90198 11.0025 5.31148 10.0995 5.97298 9.438L9.42748 5.9835C10.089 5.322 11.0025 4.9125 12 4.9125C13.008 4.9125 13.911 5.322 14.5725 5.9835L12.8715 7.6845C12.651 7.464 12.336 7.317 12 7.317C11.6535 7.317 11.349 7.4535 11.1285 7.6845L7.67398 11.139C7.45348 11.3595 7.30648 11.6745 7.30648 12.0105C7.30648 12.357 7.44298 12.6615 7.67398 12.882C7.89448 13.1025 8.20948 13.2495 8.54548 13.2495C8.89198 13.2495 9.19648 13.113 9.41698 12.882L12.8715 9.4275C13.533 8.766 14.4465 8.3565 15.444 8.3565C16.4415 8.3565 17.355 8.766 18.0165 9.4275C18.678 10.089 19.0875 11.0025 19.0875 12C19.0875 13.008 18.678 13.911 18.0165 14.5725L14.52 18.0795Z"
      fill="black"/>
</svg>
