<svg width="24" height="24" viewBox="0 0 20 20" fill="none" xmlns="http://www.w3.org/2000/svg">
  <path d="M17.227 5.725L14.266 2.764C13.132 1.63 11.611 1 10 1C8.389 1 6.868 1.63 5.725 2.773L2.773 5.725C1.63 6.868 1 8.389 1 10C1 11.611 1.63 13.132 2.773 14.275L5.734 17.236C6.868 18.37 8.389 19 10 19C11.566 19 13.06 18.397 14.194 17.308L14.203 17.299L14.212 17.29L17.236 14.266C18.37 13.132 19 11.611 19 10C19 8.389 18.37 6.868 17.227 5.725Z" fill="black"/>
  <path d="M12.16 15.211C11.602 15.751 10.837 16.084 9.99095 16.084C9.12695 16.084 8.35295 15.733 7.78595 15.166L9.24395 13.708C9.43295 13.897 9.70295 14.023 9.99095 14.023C10.288 14.023 10.549 13.906 10.738 13.708L13.699 10.747C13.888 10.558 14.014 10.288 14.014 9.99999C14.014 9.70299 13.897 9.44199 13.699 9.25299C13.51 9.06399 13.24 8.93799 12.952 8.93799C12.655 8.93799 12.394 9.05499 12.205 9.25299L9.24395 12.214C8.67695 12.781 7.89395 13.132 7.03895 13.132C6.17495 13.132 5.40095 12.781 4.83395 12.214C4.26695 11.647 3.91595 10.864 3.91595 10.009C3.91595 9.14499 4.26695 8.37099 4.83395 7.80399L7.79495 4.84299C8.36195 4.27599 9.14495 3.92499 9.99995 3.92499C10.864 3.92499 11.638 4.27599 12.205 4.84299L10.747 6.30099C10.558 6.11199 10.288 5.98599 9.99995 5.98599C9.70295 5.98599 9.44195 6.10299 9.25295 6.30099L6.29195 9.26199C6.10295 9.45099 5.97695 9.72099 5.97695 10.009C5.97695 10.306 6.09395 10.567 6.29195 10.756C6.48095 10.945 6.75095 11.071 7.03895 11.071C7.33595 11.071 7.59695 10.954 7.78595 10.756L10.747 7.79499C11.314 7.22799 12.097 6.87699 12.952 6.87699C13.807 6.87699 14.59 7.22799 15.157 7.79499C15.724 8.36199 16.075 9.14499 16.075 9.99999C16.075 10.864 15.724 11.638 15.157 12.205L12.16 15.211Z" fill="white"/>
</svg>
