<svg width="16" height="16" viewBox="0 0 16 16" fill="none" xmlns="http://www.w3.org/2000/svg">
  <path
      d="M4.99109 14.7076L5.4568 13.901C5.53169 13.7712 5.48725 13.6054 5.35752 13.5305L4.70819 13.1556C4.54629 13.0621 4.33926 13.1176 4.24579 13.2795L3.81372 14.0278C3.62601 14.353 3.7374 14.7687 4.06253 14.9564C4.38765 15.1441 4.80338 15.0327 4.99109 14.7076Z"
      fill="#CCA18A"/>
  <path
      d="M4.41504 12.9863L3.81372 14.0278C3.62601 14.353 3.7374 14.7687 4.06253 14.9564V14.9564C4.38765 15.1441 4.80338 15.0327 4.99109 14.7076L5.59241 13.6661"
      stroke="black" stroke-width="0.2"/>
  <path
      d="M12.3703 14.0651L11.8628 13.186C11.7879 13.0563 11.622 13.0118 11.4923 13.0867L10.843 13.4616C10.6811 13.5551 10.6256 13.7621 10.7191 13.924L11.193 14.7448C11.3807 15.07 11.7964 15.1813 12.1215 14.9936C12.4466 14.8059 12.558 14.3902 12.3703 14.0651Z"
      fill="#CCA18A"/>
  <path
      d="M10.5498 13.6309L11.193 14.7448C11.3807 15.07 11.7964 15.1813 12.1215 14.9936V14.9936C12.4466 14.8059 12.558 14.3902 12.3703 14.0651L11.7272 12.9511"
      stroke="black" stroke-width="0.2"/>
  <path
      d="M3.51896 2.34563L4.13287 2.58765C4.35452 2.67503 4.42858 2.95182 4.28018 3.13821L3.96642 3.54806C3.80865 3.74966 3.5029 3.74771 3.34772 3.5441L2.97871 3.05993C2.85512 2.89778 2.85161 2.67402 2.97005 2.50807C3.09403 2.33434 3.32039 2.26735 3.51896 2.34563Z"
      fill="#99D6FA"/>
  <path
      d="M3.62277 3.86282L2.96516 3.0174C2.83973 2.85613 2.84204 2.62968 2.97075 2.47101V2.47101C3.09209 2.32144 3.29671 2.26836 3.47545 2.3401L4.56672 2.77807"
      stroke="black" stroke-width="0.2"/>
  <path
      d="M12.4572 2.34555L11.8451 2.59217C11.6242 2.68122 11.5522 2.95856 11.702 3.14383L12.0188 3.55131C12.1781 3.75172 12.4838 3.74746 12.6375 3.5427L13.0028 3.05577C13.1252 2.89269 13.127 2.66891 13.0073 2.50386C12.882 2.33106 12.6552 2.26578 12.4572 2.34555Z"
      fill="#99D6FA"/>
  <path
      d="M12.3651 3.8635L13.0163 3.01316C13.1405 2.85096 13.1365 2.62452 13.0066 2.46683V2.46683C12.8842 2.31818 12.6792 2.26664 12.501 2.33972L11.413 2.78588"
      stroke="black" stroke-width="0.2"/>
  <path
      d="M3.14018 5.78744C3.21489 3.36957 5.31294 1.51113 7.4249 1.51113H8.59871C10.6903 1.51113 12.7888 3.39123 12.8551 5.78712C12.8994 7.3886 12.8994 8.96138 12.8551 10.5629C12.8218 11.7642 12.3844 12.7122 11.699 13.36C11.013 14.0083 10.0723 14.3619 9.02216 14.3619H7.14392C5.02686 14.3619 3.21474 12.9195 3.14018 10.5066C3.09181 8.94135 3.09181 7.35266 3.14018 5.78744Z"
      fill="#99D6FA" stroke="black" stroke-width="0.2"/>
  <path fill-rule="evenodd" clip-rule="evenodd"
        d="M7.4249 1.41113C5.25974 1.41113 3.11664 3.31166 3.04023 5.78436C2.9918 7.35163 2.9918 8.94238 3.04023 10.5097C3.11454 12.9144 4.87781 14.3798 6.96623 14.4585C6.66799 13.7994 6.50195 13.0676 6.50195 12.297C6.50195 9.39798 8.85208 7.04785 11.7511 7.04785C12.1753 7.04785 12.5876 7.09816 12.9826 7.19312C12.9773 6.72504 12.9681 6.25594 12.955 5.78436C12.8872 3.33395 10.7441 1.41113 8.59871 1.41113H7.4249Z"
        fill="#99D6FA"/>
  <path fill-rule="evenodd" clip-rule="evenodd"
        d="M7.4249 1.61113H8.59871C10.6366 1.61113 12.6903 3.44851 12.7551 5.78989C12.7677 6.24483 12.7767 6.69745 12.7821 7.14907C12.8494 7.16247 12.9163 7.17717 12.9826 7.19312C12.9773 6.72504 12.9681 6.25594 12.955 5.78436C12.8872 3.33395 10.7441 1.41113 8.59871 1.41113H7.4249C5.25974 1.41113 3.11664 3.31166 3.04023 5.78436C2.9918 7.35163 2.9918 8.94238 3.04023 10.5097C3.11454 12.9144 4.87781 14.3798 6.96623 14.4585C6.93574 14.3911 6.90663 14.323 6.87894 14.2541C4.92661 14.1393 3.30972 12.7556 3.24013 10.5035C3.19183 8.94032 3.19183 7.35369 3.24013 5.79053C3.31315 3.42747 5.36615 1.61113 7.4249 1.61113Z"
        fill="black"/>
  <path fill-rule="evenodd" clip-rule="evenodd"
        d="M7.4249 1.41113C5.25974 1.41113 3.11664 3.31166 3.04023 5.78436C2.9918 7.35163 2.9918 8.94238 3.04023 10.5097C3.11664 12.9823 4.97876 14.4619 7.14392 14.4619H9.02216C9.05803 14.4619 9.09379 14.4615 9.12943 14.4607C9.04472 14.0864 9 13.6969 9 13.297C9 10.8326 10.6982 8.76491 12.9883 8.20027C12.9885 7.39736 12.9774 6.59452 12.955 5.78436C12.8872 3.33395 10.7441 1.41113 8.59871 1.41113H7.4249Z"
        fill="#99D6FA"/>
  <path fill-rule="evenodd" clip-rule="evenodd"
        d="M7.4249 1.61113H8.59871C10.6366 1.61113 12.6903 3.44851 12.7551 5.78989C12.778 6.61622 12.789 7.4349 12.7882 8.25383C12.8544 8.2347 12.9211 8.21684 12.9883 8.20027C12.9885 7.39736 12.9774 6.59452 12.955 5.78436C12.8872 3.33395 10.7441 1.41113 8.59871 1.41113H7.4249C5.25974 1.41113 3.11664 3.31166 3.04023 5.78436C2.9918 7.35163 2.9918 8.94238 3.04023 10.5097C3.11664 12.9823 4.97876 14.4619 7.14392 14.4619H9.02216C9.05803 14.4619 9.09379 14.4615 9.12943 14.4607C9.1145 14.3947 9.10082 14.3283 9.0884 14.2614C9.06637 14.2617 9.04429 14.2619 9.02216 14.2619H7.14392C5.07497 14.2619 3.31285 12.8567 3.24013 10.5035C3.19183 8.94032 3.19183 7.35369 3.24013 5.79053C3.31315 3.42747 5.36615 1.61113 7.4249 1.61113Z"
        fill="black"/>
  <path fill-rule="evenodd" clip-rule="evenodd"
        d="M7.4249 1.41113C5.25974 1.41113 3.11664 3.31166 3.04023 5.78436C2.9918 7.35163 2.9918 8.94238 3.04023 10.5097C3.10705 12.6721 4.53958 14.075 6.34617 14.393L5.7553 13.8017C5.32626 13.3724 5.37548 12.663 5.8597 12.297L10.7425 8.60694C11.0665 8.36211 11.5063 8.33749 11.8556 8.54465L12.982 9.21275C12.9958 8.07059 12.9868 6.93486 12.955 5.78436C12.8872 3.33395 10.7441 1.41113 8.59871 1.41113H7.4249Z"
        fill="#99D6FA"/>
  <path fill-rule="evenodd" clip-rule="evenodd"
        d="M7.4249 1.61113H8.59871C10.6366 1.61113 12.6903 3.44851 12.7551 5.78989C12.7858 6.89898 12.7952 7.99428 12.7833 9.09492L12.982 9.21275C12.9958 8.07059 12.9868 6.93486 12.955 5.78436C12.8872 3.33395 10.7441 1.41113 8.59871 1.41113H7.4249C5.25974 1.41113 3.11664 3.31166 3.04023 5.78436C2.9918 7.35163 2.9918 8.94238 3.04023 10.5097C3.10705 12.6721 4.53958 14.075 6.34617 14.393L6.08702 14.1336C4.50675 13.7376 3.30004 12.4423 3.24013 10.5035C3.19183 8.94032 3.19183 7.35369 3.24013 5.79053C3.31315 3.42747 5.36615 1.61113 7.4249 1.61113Z"
        fill="black"/>
  <path fill-rule="evenodd" clip-rule="evenodd"
        d="M7.30156 4.83828C7.30156 5.76247 6.56724 6.51152 5.66152 6.51152C4.75581 6.51152 4.02148 5.76247 4.02148 4.83828C4.02148 3.91409 4.75581 3.16504 5.66152 3.16504C6.56724 3.16504 7.30156 3.91409 7.30156 4.83828Z"
        fill="white"/>
  <path fill-rule="evenodd" clip-rule="evenodd"
        d="M5.93012 4.83735C5.93012 5.26451 5.59046 5.61122 5.17139 5.61122C4.75275 5.61122 4.41309 5.26451 4.41309 4.83735C4.41309 4.41019 4.75275 4.06348 5.17139 4.06348C5.59046 4.06348 5.93012 4.41019 5.93012 4.83735Z"
        fill="black"/>
  <path fill-rule="evenodd" clip-rule="evenodd"
        d="M11.9705 4.83828C11.9705 5.76247 11.2362 6.51152 10.3305 6.51152C9.42435 6.51152 8.69043 5.76247 8.69043 4.83828C8.69043 3.91409 9.42435 3.16504 10.3305 3.16504C11.2362 3.16504 11.9705 3.91409 11.9705 4.83828Z"
        fill="white"/>
  <path fill-rule="evenodd" clip-rule="evenodd"
        d="M11.5854 4.83735C11.5854 5.26451 11.2457 5.61122 10.8271 5.61122C10.408 5.61122 10.0684 5.26451 10.0684 4.83735C10.0684 4.41019 10.408 4.06348 10.8271 4.06348C11.2457 4.06348 11.5854 4.41019 11.5854 4.83735Z"
        fill="black"/>
  <path fill-rule="evenodd" clip-rule="evenodd" d="M7.63184 7.58374H8.60913V6.7793H7.63184V7.58374Z" fill="white"/>
  <path fill-rule="evenodd" clip-rule="evenodd"
        d="M9.0972 6.51175C9.0972 6.80778 8.65999 7.04791 8.12067 7.04791C7.58174 7.04791 7.14453 6.80778 7.14453 6.51175C7.14453 6.21571 7.58174 5.97559 8.12067 5.97559C8.65999 5.97559 9.0972 6.21571 9.0972 6.51175Z"
        fill="#CCA18A"/>
  <path fill-rule="evenodd" clip-rule="evenodd"
        d="M8.60968 6.23446C8.60968 6.53573 8.38755 6.51159 8.11295 6.51159C7.83874 6.51159 7.61621 6.53573 7.61621 6.23446C7.61621 5.9332 7.83874 5.68945 8.11295 5.68945C8.38755 5.68945 8.60968 5.9332 8.60968 6.23446Z"
        fill="black"/>
  <path
      d="M13.7107 9.68248L13.0226 8.99436C12.933 8.90474 12.7876 8.90474 12.698 8.99436L12.2494 9.44297C12.1376 9.55483 12.1376 9.73618 12.2494 9.84804L12.8973 10.4959C13.1219 10.7205 13.4861 10.7205 13.7107 10.4959C13.9353 10.2713 13.9353 9.9071 13.7107 9.68248Z"
      fill="#CCA18A"/>
  <path
      d="M12.0469 9.64551L12.8973 10.4959C13.1219 10.7205 13.4861 10.7205 13.7107 10.4959V10.4959C13.9353 10.2713 13.9353 9.9071 13.7107 9.68248L12.8603 8.83209"
      stroke="black" stroke-width="0.2"/>
  <path
      d="M3.09682 10.4958L3.78493 9.80773C3.87456 9.71811 3.87456 9.5728 3.78493 9.48318L3.33632 9.03456C3.22447 8.92271 3.04311 8.92271 2.93126 9.03456L2.28339 9.68243C2.05877 9.90705 2.05877 10.2712 2.28339 10.4958C2.50801 10.7205 2.8722 10.7205 3.09682 10.4958Z"
      fill="#CCA18A"/>
  <path
      d="M3.13379 8.83203L2.28339 9.68243C2.05877 9.90705 2.05877 10.2712 2.28339 10.4958V10.4958C2.50801 10.7205 2.8722 10.7205 3.09682 10.4958L3.94721 9.64545"
      stroke="black" stroke-width="0.2"/>
</svg>
