<svg width="24" height="24" viewBox="0 0 24 24" fill="none" xmlns="http://www.w3.org/2000/svg">
<rect x="3" y="8" width="3" height="8" rx="1.5" fill="url(#paint0_linear_15972_18065)"/>
<path d="M10 14.5C10 13.6716 10.6716 13 11.5 13C12.3284 13 13 13.6716 13 14.5V17.5C13 18.3284 12.3284 19 11.5 19C10.6716 19 10 18.3284 10 17.5V14.5Z" fill="url(#paint1_linear_15972_18065)"/>
<path d="M10 6.5C10 5.67157 10.6716 5 11.5 5C12.3284 5 13 5.67157 13 6.5V9.5C13 10.3284 12.3284 11 11.5 11C10.6716 11 10 10.3284 10 9.5V6.5Z" fill="url(#paint2_linear_15972_18065)"/>
<path d="M17 3.5C17 2.67157 17.6716 2 18.5 2C19.3284 2 20 2.67157 20 3.5V20.5C20 21.3284 19.3284 22 18.5 22C17.6716 22 17 21.3284 17 20.5V3.5Z" fill="url(#paint3_linear_15972_18065)"/>
<defs>
<linearGradient id="paint0_linear_15972_18065" x1="5.17366" y1="17.4536" x2="-0.138989" y2="12.5387" gradientUnits="userSpaceOnUse">
<stop stop-color="#4BFFDF"/>
<stop offset="1" stop-color="#7AB7FE"/>
</linearGradient>
<linearGradient id="paint1_linear_15972_18065" x1="10" y1="9.95477" x2="15.1392" y2="14.1646" gradientUnits="userSpaceOnUse">
<stop stop-color="#6C63FF"/>
<stop offset="1" stop-color="#7AB7FE"/>
</linearGradient>
<linearGradient id="paint2_linear_15972_18065" x1="10" y1="1.95477" x2="15.1392" y2="6.16458" gradientUnits="userSpaceOnUse">
<stop stop-color="#6C63FF"/>
<stop offset="1" stop-color="#7AB7FE"/>
</linearGradient>
<linearGradient id="paint3_linear_15972_18065" x1="19.0389" y1="6.63725" x2="24.8863" y2="11.4661" gradientUnits="userSpaceOnUse">
<stop stop-color="#564DE2"/>
<stop offset="1" stop-color="#68AEFF"/>
</linearGradient>
</defs>
</svg>
