<svg width="16" height="16" viewBox="0 0 16 16" fill="none" xmlns="http://www.w3.org/2000/svg">
<path fill-rule="evenodd" clip-rule="evenodd" d="M16 13.5C16 14.8807 14.8807 16 13.5 16C12.1193 16 11 14.8807 11 13.5C11 12.1193 12.1193 11 13.5 11C14.8807 11 16 12.1193 16 13.5Z" fill="#55A76A"/>
<path d="M7.99951 7C9.65637 7 10.9995 5.65685 10.9995 4C10.9995 2.34315 9.65637 1 7.99951 1C6.34266 1 4.99951 2.34315 4.99951 4C4.99951 5.65685 6.34266 7 7.99951 7Z" fill="#EBECF0"/>
<path d="M2.10272 13.008C2.39906 11.3034 3.54766 8 7.99969 8C10.3873 8 11.8248 8.9501 12.6902 10.0941C11.1477 10.4595 10 11.8457 10 13.5C10 13.6698 10.0121 13.8367 10.0354 14H2.99969C2.4474 14 2.00813 13.5521 2.10272 13.008Z" fill="#EBECF0"/>
<path fill-rule="evenodd" clip-rule="evenodd" d="M10.9995 4C10.9995 5.65685 9.65637 7 7.99951 7C6.34266 7 4.99951 5.65685 4.99951 4C4.99951 2.34315 6.34266 1 7.99951 1C9.65637 1 10.9995 2.34315 10.9995 4ZM9.99951 4C9.99951 5.10457 9.10408 6 7.99951 6C6.89494 6 5.99951 5.10457 5.99951 4C5.99951 2.89543 6.89494 2 7.99951 2C9.10408 2 9.99951 2.89543 9.99951 4Z" fill="#6C707E"/>
<path d="M7.99969 8C3.54766 8 2.39906 11.3034 2.10272 13.008C2.00813 13.5521 2.4474 14 2.99969 14H10.0354C10.0121 13.8367 10 13.6698 10 13.5C10 13.3302 10.0121 13.1633 10.0354 13H3.12154C3.27126 12.2552 3.59131 11.2951 4.25563 10.5114C4.94028 9.70375 6.05804 9 7.99969 9C9.9202 9 11.0347 9.68851 11.7212 10.4851C12.0188 10.3091 12.3446 10.176 12.6902 10.0941C11.8248 8.9501 10.3873 8 7.99969 8Z" fill="#6C707E"/>
</svg>
