<svg width="16" height="16" viewBox="0 0 16 16" fill="none" xmlns="http://www.w3.org/2000/svg">
<path d="M14 4C14 2.89543 13.1046 2 12 2H4C2.89543 2 2 2.89543 2 4V12C2 13.1046 2.89543 14 4 14H12C13.1046 14 14 13.1046 14 12V4Z" fill="#F2C55C"/>
<path d="M9.55434 11.8597C9.88209 12.0136 10.2583 12.0906 10.6829 12.0906C11.1047 12.0906 11.4795 12.0122 11.8073 11.8555C12.135 11.6987 12.3901 11.4835 12.5725 11.2099C12.7549 10.9335 12.8461 10.6243 12.8461 10.2823C12.8461 10.0001 12.7834 9.73364 12.658 9.48284C12.5326 9.23204 12.3545 9.02257 12.1236 8.85442C11.8956 8.68627 11.6348 8.57654 11.3413 8.52524L10.3452 8.36279C10.1429 8.32859 9.97899 8.24167 9.85359 8.10202C9.72819 7.95952 9.66549 7.79137 9.66549 7.59757C9.66549 7.43227 9.70824 7.28692 9.79374 7.16152C9.87924 7.03612 9.99894 6.93922 10.1528 6.87082C10.3067 6.80242 10.4849 6.76822 10.6872 6.76822C10.8896 6.76822 11.0677 6.80384 11.2216 6.87509C11.3755 6.94634 11.4952 7.04752 11.5807 7.17862C11.6662 7.30687 11.7089 7.45222 11.7089 7.61467H12.7221C12.7193 7.28122 12.6309 6.98482 12.4571 6.72547C12.2832 6.46612 12.041 6.26377 11.7303 6.11842C11.4225 5.97307 11.0705 5.90039 10.6744 5.90039C10.2868 5.90039 9.93909 5.97592 9.63129 6.12697C9.32349 6.27517 9.08266 6.48179 8.90881 6.74684C8.73781 7.00904 8.65231 7.30544 8.65231 7.63604C8.65231 7.91249 8.70931 8.16757 8.82331 8.40127C8.94016 8.63212 9.10546 8.82449 9.31921 8.97839C9.53296 9.13229 9.78519 9.23489 10.0759 9.28619L11.0891 9.45719C11.3114 9.49424 11.4895 9.59399 11.6234 9.75644C11.7574 9.91604 11.8244 10.107 11.8244 10.3293C11.8244 10.506 11.7773 10.6627 11.6833 10.7995C11.5921 10.9335 11.461 11.0375 11.29 11.1116C11.119 11.1857 10.9209 11.2228 10.6958 11.2228C10.4649 11.2228 10.2597 11.1829 10.0802 11.1031C9.90346 11.0204 9.76524 10.905 9.66549 10.7568C9.56574 10.6086 9.51586 10.4404 9.51586 10.2523H8.50269C8.50554 10.6114 8.59959 10.9306 8.78484 11.2099C8.97009 11.4864 9.22659 11.703 9.55434 11.8597Z" fill="#1E1F22"/>
<path d="M5.22179 11.0005H4.21289V12.0005H5.32012C5.64787 12.0005 5.93857 11.9321 6.19222 11.7953C6.44587 11.6556 6.64394 11.4618 6.78644 11.2139C6.92894 10.9659 7.00019 10.6809 7.00019 10.3589L7.00024 6.00049H5.99989L5.99984 10.2224C5.99984 10.3763 5.96707 10.5131 5.90152 10.6328C5.83882 10.7497 5.74762 10.8409 5.62792 10.9064C5.51107 10.9691 5.37569 11.0005 5.22179 11.0005Z" fill="#1E1F22"/>
</svg>
