<svg width="16" height="16" viewBox="0 0 16 16" fill="none" xmlns="http://www.w3.org/2000/svg">
<path d="M1.26612 5.69141H3.63899C4.33545 5.69725 4.84013 5.89806 5.15303 6.29348C5.46593 6.6889 5.56917 7.229 5.46292 7.91376C5.42166 8.22666 5.33011 8.53354 5.18845 8.83458C5.05263 9.13561 4.86385 9.40708 4.62179 9.64914C4.3266 9.95603 4.01086 10.1508 3.67441 10.2335C3.33796 10.3162 2.98965 10.3575 2.62964 10.3575H1.56716L1.23071 12.0397H0L1.26612 5.69141ZM2.30204 6.70076L1.7708 9.35696C1.80622 9.36281 1.84163 9.36582 1.87705 9.36582C1.91831 9.36582 1.95974 9.36582 2.001 9.36582C2.56766 9.37166 3.03993 9.3157 3.41764 9.19759C3.79536 9.07363 4.04929 8.6428 4.17909 7.90491C4.28534 7.28513 4.17909 6.92796 3.86034 6.83357C3.54745 6.73919 3.15503 6.69492 2.68276 6.70076C2.61193 6.70661 2.54411 6.70962 2.47912 6.70962C2.42015 6.70962 2.35817 6.70962 2.29319 6.70962L2.30204 6.70076Z" fill="#548AF7"/>
<path d="M6.86482 4H8.08667L7.74137 5.69111H8.83926C9.44133 5.70298 9.88988 5.82693 10.1851 6.06298C10.4861 6.29903 10.5746 6.74775 10.4507 7.40879L9.85747 10.3572H8.61791L9.18457 7.5416C9.24354 7.24641 9.22583 7.03692 9.13144 6.91297C9.03706 6.78901 8.83342 6.72703 8.52052 6.72703L7.53772 6.71818L6.8117 10.3572H5.58984L6.86482 4Z" fill="#548AF7"/>
<path d="M11.7622 5.69141H14.1351C14.8315 5.69725 15.3362 5.89806 15.6491 6.29348C15.962 6.6889 16.0653 7.229 15.959 7.91376C15.9177 8.22666 15.8262 8.53354 15.6845 8.83458C15.5487 9.13561 15.3599 9.40708 15.1179 9.64914C14.8227 9.95603 14.507 10.1508 14.1705 10.2335C13.8341 10.3162 13.4857 10.3575 13.1257 10.3575H12.0633L11.7268 12.0397H10.4961L11.7622 5.69141ZM12.7981 6.70076L12.2669 9.35696C12.3023 9.36281 12.3377 9.36582 12.3731 9.36582C12.4144 9.36582 12.4558 9.36582 12.4971 9.36582C13.0638 9.37166 13.536 9.3157 13.9137 9.19759C14.2915 9.07363 14.5454 8.6428 14.6752 7.90491C14.7814 7.28513 14.6752 6.92796 14.3564 6.83357C14.0435 6.73919 13.6511 6.69492 13.1789 6.70076C13.108 6.70661 13.0402 6.70962 12.9752 6.70962C12.9162 6.70962 12.8543 6.70962 12.7893 6.70962L12.7981 6.70076Z" fill="#548AF7"/>
</svg>
