<svg width="16" height="16" viewBox="0 0 16 16" fill="none" xmlns="http://www.w3.org/2000/svg">
<path fill-rule="evenodd" clip-rule="evenodd" d="M2.93421 1.25202C2.7972 1.01226 2.49177 0.928959 2.25202 1.06596C2.01226 1.20297 1.92896 1.5084 2.06596 1.74816L3.14687 3.63973C1.71222 4.73608 0.65943 6.30682 0.222701 8.11774C0.0771252 8.72139 0 9.35172 0 10.0001H16C16 9.30945 15.9125 8.63928 15.748 8.00006C15.2947 6.23884 14.2567 4.71235 12.8533 3.63982L13.9342 1.74816C14.0712 1.5084 13.9879 1.20297 13.7482 1.06596C13.5084 0.928959 13.203 1.01226 13.066 1.25202L12.0202 3.08206C10.839 2.39412 9.46551 2.00006 8 2.00006C6.53455 2.00006 5.16113 2.39409 3.9799 3.08198L2.93421 1.25202ZM11 8.00006C11.5523 8.00006 12 7.55235 12 7.00006C12 6.44778 11.5523 6.00006 11 6.00006C10.4477 6.00006 10 6.44778 10 7.00006C10 7.55235 10.4477 8.00006 11 8.00006ZM5 8.00006C5.55228 8.00006 6 7.55235 6 7.00006C6 6.44778 5.55228 6.00006 5 6.00006C4.44772 6.00006 4 6.44778 4 7.00006C4 7.55235 4.44772 8.00006 5 8.00006Z" fill="#55A76A"/>
</svg>
