<svg width="24" height="24" viewBox="0 0 24 24" fill="none" xmlns="http://www.w3.org/2000/svg">
<path fill-rule="evenodd" clip-rule="evenodd" d="M2 4.38743C2 3.70487 2.6687 3.2229 3.31623 3.43874L10.3162 5.77208C10.7246 5.90819 11 6.29033 11 6.72076V19.6126C11 20.2951 10.3313 20.7771 9.68377 20.5613L2.68377 18.2279C2.27543 18.0918 2 17.7097 2 17.2792V4.38743Z" fill="#57965C"/>
<path fill-rule="evenodd" clip-rule="evenodd" d="M22 4.38743C22 3.70487 21.3313 3.2229 20.6838 3.43874L13.6838 5.77208C13.2754 5.90819 13 6.29033 13 6.72076V19.6126C13 20.2951 13.6687 20.7771 14.3162 20.5613L21.3162 18.2279C21.7246 18.0918 22 17.7097 22 17.2792V4.38743Z" fill="#CED0D6"/>
</svg>
