<svg width="16" height="16" viewBox="0 0 16 16" fill="none" xmlns="http://www.w3.org/2000/svg">
<path fill-rule="evenodd" clip-rule="evenodd" d="M11.8536 9.85356C12.0488 9.6583 12.0488 9.34172 11.8536 9.14645C11.6583 8.95119 11.3417 8.95119 11.1464 9.14645L8 12.2929L8 2.5C8 2.22386 7.77614 2 7.5 2C7.22386 2 7 2.22386 7 2.5L7 12.2929L3.85355 9.14645C3.65829 8.95119 3.34171 8.95119 3.14645 9.14645C2.95118 9.34172 2.95118 9.6583 3.14645 9.85356L7.14645 13.8536C7.24021 13.9473 7.36739 14 7.5 14C7.63261 14 7.75979 13.9473 7.85355 13.8536L11.8536 9.85356Z" fill="#6C707E"/>
</svg>
