<svg width="16" height="16" viewBox="0 0 16 16" fill="none" xmlns="http://www.w3.org/2000/svg">
<path fill-rule="evenodd" clip-rule="evenodd" d="M8.00045 2.79949L6.79495 5.69784C6.57924 6.21648 6.0915 6.57084 5.53159 6.61573L2.40258 6.86658L4.78656 8.90871C5.21315 9.27413 5.39945 9.84751 5.26912 10.3939L4.54077 13.4473L7.21965 11.811C7.69901 11.5182 8.30189 11.5182 8.78125 11.811L11.4601 13.4473L10.7318 10.3939C10.6014 9.84751 10.7877 9.27413 11.2143 8.90871L13.5983 6.86658L10.4693 6.61573C9.90939 6.57084 9.42165 6.21648 9.20594 5.69784L8.00045 2.79949ZM8.46147 1.30756C8.29091 0.897479 7.70998 0.897481 7.53942 1.30756L5.87291 5.31434C5.801 5.48722 5.63842 5.60534 5.45179 5.6203L1.12613 5.96709C0.683415 6.00258 0.503901 6.55507 0.841203 6.84401L4.1369 9.66712C4.27909 9.78893 4.34119 9.98005 4.29775 10.1622L3.29086 14.3833C3.18781 14.8153 3.65779 15.1568 4.03681 14.9253L7.74018 12.6632C7.89997 12.5657 8.10093 12.5657 8.26071 12.6632L11.9641 14.9253C12.3431 15.1568 12.8131 14.8153 12.71 14.3833L11.7031 10.1622C11.6597 9.98005 11.7218 9.78893 11.864 9.66712L15.1597 6.84401C15.497 6.55507 15.3175 6.00258 14.8748 5.96709L10.5491 5.6203C10.3625 5.60534 10.1999 5.48722 10.128 5.31434L8.46147 1.30756Z" fill="#6C707E"/>
</svg>
