<svg width="16" height="16" viewBox="0 0 16 16" fill="none" xmlns="http://www.w3.org/2000/svg">
<path fill-rule="evenodd" clip-rule="evenodd" d="M7.99996 2.79949L6.79447 5.69784C6.57875 6.21648 6.09101 6.57084 5.5311 6.61573L2.40209 6.86658L4.78607 8.90871C5.21266 9.27413 5.39896 9.84751 5.26863 10.3939L4.54028 13.4473L7.21916 11.811C7.69852 11.5182 8.3014 11.5182 8.78076 11.811L11.4596 13.4473L10.7313 10.3939C10.601 9.84751 10.7873 9.27413 11.2138 8.90871L13.5978 6.86658L10.4688 6.61573C9.9089 6.57084 9.42116 6.21648 9.20545 5.69784L7.99996 2.79949ZM8.46098 1.30756C8.29042 0.897479 7.7095 0.897481 7.53893 1.30756L5.87242 5.31434C5.80052 5.48722 5.63794 5.60534 5.4513 5.6203L1.12564 5.96709C0.682927 6.00258 0.503413 6.55507 0.840715 6.84401L4.13641 9.66712C4.27861 9.78893 4.34071 9.98005 4.29726 10.1622L3.29037 14.3833C3.18732 14.8153 3.6573 15.1568 4.03633 14.9253L7.73969 12.6632C7.89948 12.5657 8.10044 12.5657 8.26023 12.6632L11.9636 14.9253C12.3426 15.1568 12.8126 14.8153 12.7095 14.3833L11.7027 10.1622C11.6592 9.98005 11.7213 9.78893 11.8635 9.66712L15.1592 6.84401C15.4965 6.55507 15.317 6.00258 14.8743 5.96709L10.5486 5.6203C10.362 5.60534 10.1994 5.48722 10.1275 5.31434L8.46098 1.30756Z" fill="#6C707E"/>
</svg>
