<svg width="20" height="20" viewBox="0 0 20 20" fill="none" xmlns="http://www.w3.org/2000/svg">
<path d="M14.75 3C14.3358 3 14 3.33579 14 3.75C14 4.16421 14.3358 4.5 14.75 4.5H18.25C18.6642 4.5 19 4.16421 19 3.75C19 3.33579 18.6642 3 18.25 3H14.75Z" fill="#CED0D6"/>
<path d="M10.75 8.75C10.3358 8.75 10 9.08579 10 9.5C10 9.91421 10.3358 10.25 10.75 10.25H18.5C18.9142 10.25 19.25 9.91421 19.25 9.5C19.25 9.08579 18.9142 8.75 18.5 8.75H10.75Z" fill="#CED0D6"/>
<path d="M6 15.25C6 14.8358 6.33579 14.5 6.75 14.5H18.25C18.6642 14.5 19 14.8358 19 15.25C19 15.6642 18.6642 16 18.25 16H6.75C6.33579 16 6 15.6642 6 15.25Z" fill="#CED0D6"/>
<path d="M10.0303 6.03033C10.3232 5.73744 10.3232 5.26256 10.0303 4.96967C9.73744 4.67678 9.26256 4.67678 8.96967 4.96967L3.5 10.4393L1.28033 8.21967C0.987437 7.92678 0.512563 7.92678 0.21967 8.21967C-0.0732233 8.51256 -0.0732233 8.98744 0.21967 9.28033L2.96967 12.0303C3.26256 12.3232 3.73744 12.3232 4.03033 12.0303L10.0303 6.03033Z" fill="#CED0D6"/>
</svg>
