<svg width="499" height="832" viewBox="0 0 499 832" fill="none" xmlns="http://www.w3.org/2000/svg">
<g filter="url(#filter0_d_2_45)">
<g filter="url(#filter1_ii_2_45)">
<path fill-rule="evenodd" clip-rule="evenodd" d="M205.138 38.7797C232.774 23.603 263.827 20.4267 295.997 31.9359C325.995 42.6677 345.957 59.8316 356.442 83.165C366.552 105.665 366.585 131.197 362.861 156.425C359.124 181.74 351.176 209.247 343.082 236.609C342.514 238.532 341.944 240.456 341.373 242.38C333.69 268.309 325.958 294.403 320.601 320.562C308.537 379.461 315.332 430.907 321.011 473.897C321.973 481.185 322.904 488.23 323.705 495.027C326.303 517.07 328.089 540.089 321.071 558.357C317.24 568.329 310.813 576.988 301.115 583.321C291.738 589.444 280.432 592.661 267.822 593.963C243.306 596.495 224.015 585.995 210.308 569.549C197.25 553.881 188.977 532.689 183.652 511.207C172.948 468.023 172.418 416.36 175.925 383.008C177.003 372.754 186.19 365.315 196.444 366.393C206.699 367.471 214.138 376.658 213.06 386.913C209.876 417.194 210.498 464.315 219.895 502.223C224.62 521.286 231.136 536.217 238.992 545.643C246.199 554.291 253.948 557.858 263.987 556.821C272.847 555.906 277.852 553.916 280.698 552.057C283.223 550.408 284.93 548.31 286.215 544.966C289.429 536.6 289.374 522.746 286.622 499.398C285.896 493.236 285.015 486.636 284.079 479.63C278.35 436.732 270.591 378.635 284.02 313.07C289.716 285.261 297.891 257.684 305.487 232.06C306.087 230.033 306.684 228.019 307.277 226.018C315.491 198.247 322.633 173.249 325.922 150.972C329.223 128.607 328.219 111.458 322.383 98.4689C316.921 86.3138 306.029 75.1821 283.419 67.0933C261.447 59.2326 241.508 61.406 223.112 71.5088C204.108 81.9447 185.751 101.464 169.649 129.79C137.424 186.479 117.013 273.638 117.013 373.291C117.013 471.023 135.268 563.732 167.258 628.851C199.62 694.724 242.193 726.137 290.013 718.452C315.778 714.312 332.701 705.284 344.123 693.998C355.625 682.634 362.947 667.597 367.064 649.113C375.539 611.064 369.591 563.268 363.154 515.484C350.284 419.949 382.779 364.124 408.136 340.496C415.679 333.467 427.493 333.884 434.522 341.427C441.552 348.971 441.135 360.784 433.591 367.814C417.874 382.459 388.759 425.872 400.159 510.499C406.361 556.532 413.715 611.419 403.511 657.231C398.288 680.678 388.276 702.866 370.367 720.56C352.379 738.333 327.815 750.196 295.937 755.319C223.338 766.986 168.594 716.251 133.745 645.315C98.5245 573.623 79.6732 474.86 79.6732 373.291C79.6732 269.445 100.802 175.345 137.188 111.337C155.392 79.3129 178.109 53.6232 205.138 38.7797Z" fill="#A2A1A7"/>
</g>
<mask id="mask0_2_45" style="mask-type:alpha" maskUnits="userSpaceOnUse" x="80" y="25" width="360" height="733">
<path fill-rule="evenodd" clip-rule="evenodd" d="M205.605 39.0236C233.241 23.8469 264.293 20.6706 296.464 32.1798C326.461 42.9116 346.424 60.0755 356.909 83.4089C367.018 105.909 367.052 131.441 363.328 156.669C359.591 181.984 351.643 209.491 343.549 236.853C342.98 238.776 342.41 240.699 341.84 242.624C334.157 268.553 326.425 294.646 321.067 320.806C309.004 379.705 315.799 431.151 321.478 474.141C322.44 481.429 323.371 488.474 324.172 495.271C326.77 517.314 328.556 540.333 321.538 558.6C317.707 568.573 311.279 577.232 301.582 583.565C292.205 589.688 280.899 592.905 268.289 594.207C243.773 596.738 224.481 586.239 210.775 569.793C197.717 554.124 189.444 532.933 184.119 511.45C173.414 468.266 172.885 416.604 176.392 383.252C177.47 372.998 186.657 365.559 196.911 366.637C207.166 367.715 214.605 376.902 213.526 387.156C210.343 417.438 210.965 464.559 220.362 502.467C225.087 521.53 231.603 536.461 239.459 545.887C246.666 554.535 254.415 558.102 264.454 557.065C273.314 556.15 278.319 554.16 281.165 552.301C283.69 550.652 285.397 548.554 286.682 545.21C289.896 536.844 289.841 522.989 287.089 499.642C286.363 493.48 285.481 486.88 284.546 479.874C278.817 436.975 271.058 378.879 284.487 313.314C290.183 285.504 298.357 257.928 305.953 232.304C306.554 230.277 307.151 228.263 307.743 226.261C315.958 198.491 323.1 173.493 326.389 151.216C329.69 128.851 328.686 111.702 322.849 98.7128C317.388 86.5577 306.496 75.426 283.886 67.3371C261.914 59.4765 241.975 61.6499 223.578 71.7527C204.575 82.1886 186.218 101.708 170.116 130.033C137.891 186.723 117.48 273.881 117.48 373.535C117.48 471.267 135.734 563.976 167.725 629.095C200.087 694.968 242.659 726.381 290.479 718.696C316.245 714.556 333.168 705.528 344.59 694.242C356.092 682.878 363.414 667.841 367.531 649.357C376.006 611.308 370.058 563.512 363.621 515.728C350.751 420.193 383.245 364.368 408.602 340.74C416.146 333.71 427.96 334.127 434.989 341.671C442.018 349.215 441.601 361.028 434.058 368.058C418.341 382.703 389.226 426.116 400.626 510.743C406.827 556.775 414.182 611.662 403.978 657.475C398.755 680.922 388.743 703.11 370.834 720.804C352.845 738.577 328.282 750.44 296.404 755.563C223.805 767.23 169.061 716.495 134.212 645.559C98.9913 573.867 80.14 475.104 80.14 373.535C80.14 269.689 101.269 175.589 137.655 111.581C155.859 79.5568 178.575 53.8671 205.605 39.0236Z" fill="#A2A1A7"/>
</mask>
<g mask="url(#mask0_2_45)">
<g filter="url(#filter2_dii_2_45)">
<path fill-rule="evenodd" clip-rule="evenodd" d="M164.91 68.3009C180.592 69.1017 196.56 72.5647 208.905 78.4289C219.15 83.2954 223.51 95.5458 218.644 105.791C213.777 116.036 201.527 120.396 191.282 115.529C184.957 112.525 174.554 109.92 162.815 109.321C151.063 108.721 140.212 110.247 132.57 113.522C122.145 117.989 110.072 113.16 105.604 102.735C101.137 92.3098 105.966 80.2367 116.391 75.7689C131.62 69.2423 149.24 67.5008 164.91 68.3009ZM290.175 146.454C290.175 135.112 299.37 125.918 310.712 125.918C325.901 125.918 342.986 131.175 357.728 138.513C372.537 145.884 387.656 156.683 397.665 170.133C404.437 179.232 402.55 192.098 393.451 198.869C384.352 205.64 371.486 203.753 364.715 194.654C359.788 188.034 350.637 180.864 339.425 175.283C328.145 169.668 317.46 166.991 310.712 166.991C299.37 166.991 290.175 157.797 290.175 146.454Z" fill="#49383E"/>
</g>
</g>
<g filter="url(#filter3_ii_2_45)">
<path fill-rule="evenodd" clip-rule="evenodd" d="M164.91 68.3009C180.592 69.1017 196.56 72.5647 208.905 78.4288C219.15 83.2954 223.51 95.5458 218.644 105.791C213.777 116.036 201.527 120.396 191.282 115.529C184.957 112.525 174.554 109.92 162.815 109.321C151.063 108.721 140.212 110.247 132.57 113.522C122.145 117.989 110.072 113.16 105.604 102.735C101.137 92.3097 105.966 80.2367 116.391 75.7689C131.62 69.2423 149.24 67.5008 164.91 68.3009ZM290.175 146.454C290.175 135.112 299.37 125.918 310.712 125.918C325.901 125.918 342.986 131.175 357.728 138.513C372.537 145.884 387.656 156.683 397.665 170.133C404.437 179.232 402.55 192.098 393.451 198.869C384.352 205.64 371.486 203.753 364.715 194.654C359.788 188.034 350.637 180.864 339.425 175.283C328.146 169.668 317.46 166.991 310.712 166.991C299.37 166.991 290.175 157.796 290.175 146.454Z" fill="#49383E"/>
</g>
<mask id="mask1_2_45" style="mask-type:alpha" maskUnits="userSpaceOnUse" x="79" y="25" width="361" height="732">
<path fill-rule="evenodd" clip-rule="evenodd" d="M205.138 38.7797C232.774 23.6029 263.827 20.4267 295.997 31.9358C325.995 42.6676 345.957 59.8315 356.442 83.165C366.552 105.665 366.585 131.197 362.861 156.425C359.124 181.74 351.176 209.247 343.082 236.609C342.514 238.532 341.944 240.455 341.373 242.38C333.69 268.309 325.958 294.402 320.601 320.562C308.537 379.461 315.332 430.907 321.011 473.897C321.973 481.185 322.904 488.23 323.705 495.027C326.303 517.07 328.089 540.089 321.071 558.357C317.24 568.329 310.813 576.988 301.115 583.321C291.738 589.444 280.432 592.661 267.822 593.963C243.306 596.495 224.015 585.995 210.308 569.549C197.25 553.881 188.977 532.689 183.652 511.206C172.948 468.022 172.418 416.36 175.925 383.008C177.003 372.754 186.19 365.315 196.444 366.393C206.699 367.471 214.138 376.658 213.06 386.912C209.876 417.194 210.498 464.315 219.895 502.223C224.62 521.286 231.136 536.217 238.992 545.643C246.199 554.291 253.948 557.858 263.987 556.821C272.847 555.906 277.852 553.916 280.698 552.057C283.223 550.408 284.93 548.31 286.215 544.966C289.429 536.6 289.374 522.745 286.622 499.398C285.896 493.236 285.015 486.636 284.079 479.63C278.35 436.731 270.591 378.635 284.02 313.07C289.716 285.261 297.891 257.684 305.487 232.06C306.087 230.033 306.684 228.019 307.277 226.017C315.491 198.247 322.633 173.249 325.922 150.972C329.223 128.607 328.219 111.458 322.383 98.4689C316.921 86.3137 306.029 75.182 283.419 67.0932C261.447 59.2326 241.508 61.406 223.112 71.5087C204.108 81.9447 185.751 101.464 169.649 129.789C137.424 186.479 117.013 273.638 117.013 373.291C117.013 471.023 135.268 563.732 167.258 628.851C199.62 694.724 242.193 726.137 290.013 718.452C315.778 714.312 332.701 705.284 344.123 693.998C355.625 682.634 362.947 667.597 367.064 649.113C375.539 611.064 369.591 563.268 363.154 515.484C350.284 419.949 382.779 364.124 408.136 340.496C415.679 333.467 427.493 333.883 434.522 341.427C441.552 348.971 441.135 360.784 433.591 367.814C417.874 382.459 388.759 425.872 400.159 510.499C406.361 556.531 413.715 611.419 403.511 657.231C398.288 680.678 388.276 702.866 370.367 720.56C352.379 738.333 327.815 750.196 295.937 755.319C223.338 766.986 168.594 716.251 133.745 645.315C98.5245 573.623 79.6732 474.86 79.6732 373.291C79.6732 269.445 100.802 175.345 137.188 111.337C155.392 79.3129 178.109 53.6231 205.138 38.7797Z" fill="#A2A1A7"/>
</mask>
<g mask="url(#mask1_2_45)">
<g filter="url(#filter4_dii_2_45)">
<path d="M395.659 280.41C395.659 325.263 359.299 361.624 314.446 361.624C269.593 361.624 233.232 325.263 233.232 280.41C233.232 235.557 269.593 199.197 314.446 199.197C359.299 199.197 395.659 235.557 395.659 280.41Z" fill="#C4C4C4"/>
<path d="M202.427 230.002C202.427 274.855 166.066 311.215 121.214 311.215C76.3605 311.215 40 274.855 40 230.002C40 185.149 76.3605 148.788 121.214 148.788C166.066 148.788 202.427 185.149 202.427 230.002Z" fill="#C4C4C4"/>
</g>
</g>
<g filter="url(#filter5_ii_2_45)">
<path d="M395.659 280.41C395.659 325.263 359.299 361.623 314.446 361.623C269.593 361.623 233.232 325.263 233.232 280.41C233.232 235.557 269.593 199.196 314.446 199.196C359.299 199.196 395.659 235.557 395.659 280.41Z" fill="#E3E3E3"/>
<path d="M202.427 230.002C202.427 274.855 166.066 311.215 121.214 311.215C76.3605 311.215 40 274.855 40 230.002C40 185.149 76.3605 148.788 121.214 148.788C166.066 148.788 202.427 185.149 202.427 230.002Z" fill="#E3E3E3"/>
</g>
<g filter="url(#filter6_d_2_45)">
<path d="M187.491 230.935C187.491 261.353 162.833 286.011 132.415 286.011C101.998 286.011 77.3395 261.353 77.3395 230.935C77.3395 200.518 101.998 175.859 132.415 175.859C162.833 175.859 187.491 200.518 187.491 230.935Z" fill="#3D2A2C"/>
<path d="M361.12 280.41C361.12 310.828 336.462 335.486 306.044 335.486C275.627 335.486 250.968 310.828 250.968 280.41C250.968 249.992 275.627 225.334 306.044 225.334C336.462 225.334 361.12 249.992 361.12 280.41Z" fill="#3D2A2C"/>
</g>
</g>
<defs>
<filter id="filter0_d_2_45" x="0.35399" y="0.221304" width="498.648" height="831.106" filterUnits="userSpaceOnUse" color-interpolation-filters="sRGB">
<feFlood flood-opacity="0" result="BackgroundImageFix"/>
<feColorMatrix in="SourceAlpha" type="matrix" values="0 0 0 0 0 0 0 0 0 0 0 0 0 0 0 0 0 0 127 0" result="hardAlpha"/>
<feOffset dx="9.9115" dy="24.7788"/>
<feGaussianBlur stdDeviation="24.7788"/>
<feColorMatrix type="matrix" values="0 0 0 0 0 0 0 0 0 0 0 0 0 0 0 0 0 0 0.25 0"/>
<feBlend mode="normal" in2="BackgroundImageFix" result="effect1_dropShadow_2_45"/>
<feBlend mode="normal" in="SourceGraphic" in2="effect1_dropShadow_2_45" result="shape"/>
</filter>
<filter id="filter1_ii_2_45" x="73.7922" y="17.1588" width="369.662" height="755.515" filterUnits="userSpaceOnUse" color-interpolation-filters="sRGB">
<feFlood flood-opacity="0" result="BackgroundImageFix"/>
<feBlend mode="normal" in="SourceGraphic" in2="BackgroundImageFix" result="shape"/>
<feColorMatrix in="SourceAlpha" type="matrix" values="0 0 0 0 0 0 0 0 0 0 0 0 0 0 0 0 0 0 127 0" result="hardAlpha"/>
<feOffset dx="3.92065" dy="-7.8413"/>
<feGaussianBlur stdDeviation="19.6033"/>
<feComposite in2="hardAlpha" operator="arithmetic" k2="-1" k3="1"/>
<feColorMatrix type="matrix" values="0 0 0 0 0.075 0 0 0 0 0.1025 0 0 0 0 0.2 0 0 0 0.65 0"/>
<feBlend mode="normal" in2="shape" result="effect1_innerShadow_2_45"/>
<feColorMatrix in="SourceAlpha" type="matrix" values="0 0 0 0 0 0 0 0 0 0 0 0 0 0 0 0 0 0 127 0" result="hardAlpha"/>
<feOffset dx="-5.88098" dy="19.6033"/>
<feGaussianBlur stdDeviation="7.8413"/>
<feComposite in2="hardAlpha" operator="arithmetic" k2="-1" k3="1"/>
<feColorMatrix type="matrix" values="0 0 0 0 1 0 0 0 0 1 0 0 0 0 1 0 0 0 0.35 0"/>
<feBlend mode="normal" in2="effect1_innerShadow_2_45" result="effect2_innerShadow_2_45"/>
</filter>
<filter id="filter2_dii_2_45" x="84.3355" y="60.2787" width="336.996" height="182.84" filterUnits="userSpaceOnUse" color-interpolation-filters="sRGB">
<feFlood flood-opacity="0" result="BackgroundImageFix"/>
<feColorMatrix in="SourceAlpha" type="matrix" values="0 0 0 0 0 0 0 0 0 0 0 0 0 0 0 0 0 0 127 0" result="hardAlpha"/>
<feOffset dy="20.5834"/>
<feGaussianBlur stdDeviation="9.80163"/>
<feColorMatrix type="matrix" values="0 0 0 0 0 0 0 0 0 0 0 0 0 0 0 0 0 0 0.25 0"/>
<feBlend mode="normal" in2="BackgroundImageFix" result="effect1_dropShadow_2_45"/>
<feBlend mode="normal" in="SourceGraphic" in2="effect1_dropShadow_2_45" result="shape"/>
<feColorMatrix in="SourceAlpha" type="matrix" values="0 0 0 0 0 0 0 0 0 0 0 0 0 0 0 0 0 0 127 0" result="hardAlpha"/>
<feOffset dy="-7.8413"/>
<feGaussianBlur stdDeviation="19.6033"/>
<feComposite in2="hardAlpha" operator="arithmetic" k2="-1" k3="1"/>
<feColorMatrix type="matrix" values="0 0 0 0 0 0 0 0 0 0 0 0 0 0 0 0 0 0 0.5 0"/>
<feBlend mode="normal" in2="shape" result="effect2_innerShadow_2_45"/>
<feColorMatrix in="SourceAlpha" type="matrix" values="0 0 0 0 0 0 0 0 0 0 0 0 0 0 0 0 0 0 127 0" result="hardAlpha"/>
<feOffset dx="-3.92065" dy="11.762"/>
<feGaussianBlur stdDeviation="9.80163"/>
<feComposite in2="hardAlpha" operator="arithmetic" k2="-1" k3="1"/>
<feColorMatrix type="matrix" values="0 0 0 0 1 0 0 0 0 1 0 0 0 0 1 0 0 0 0.25 0"/>
<feBlend mode="normal" in2="effect2_innerShadow_2_45" result="effect3_innerShadow_2_45"/>
</filter>
<filter id="filter3_ii_2_45" x="100.018" y="60.2787" width="301.71" height="154.415" filterUnits="userSpaceOnUse" color-interpolation-filters="sRGB">
<feFlood flood-opacity="0" result="BackgroundImageFix"/>
<feBlend mode="normal" in="SourceGraphic" in2="BackgroundImageFix" result="shape"/>
<feColorMatrix in="SourceAlpha" type="matrix" values="0 0 0 0 0 0 0 0 0 0 0 0 0 0 0 0 0 0 127 0" result="hardAlpha"/>
<feOffset dy="-7.8413"/>
<feGaussianBlur stdDeviation="19.6033"/>
<feComposite in2="hardAlpha" operator="arithmetic" k2="-1" k3="1"/>
<feColorMatrix type="matrix" values="0 0 0 0 0 0 0 0 0 0 0 0 0 0 0 0 0 0 0.5 0"/>
<feBlend mode="normal" in2="shape" result="effect1_innerShadow_2_45"/>
<feColorMatrix in="SourceAlpha" type="matrix" values="0 0 0 0 0 0 0 0 0 0 0 0 0 0 0 0 0 0 127 0" result="hardAlpha"/>
<feOffset dx="-3.92065" dy="11.762"/>
<feGaussianBlur stdDeviation="9.80163"/>
<feComposite in2="hardAlpha" operator="arithmetic" k2="-1" k3="1"/>
<feColorMatrix type="matrix" values="0 0 0 0 1 0 0 0 0 1 0 0 0 0 1 0 0 0 0.25 0"/>
<feBlend mode="normal" in2="effect1_innerShadow_2_45" result="effect2_innerShadow_2_45"/>
</filter>
<filter id="filter4_dii_2_45" x="0.793484" y="140.947" width="414.469" height="260.863" filterUnits="userSpaceOnUse" color-interpolation-filters="sRGB">
<feFlood flood-opacity="0" result="BackgroundImageFix"/>
<feColorMatrix in="SourceAlpha" type="matrix" values="0 0 0 0 0 0 0 0 0 0 0 0 0 0 0 0 0 0 127 0" result="hardAlpha"/>
<feOffset dy="20.5834"/>
<feGaussianBlur stdDeviation="9.80163"/>
<feColorMatrix type="matrix" values="0 0 0 0 0 0 0 0 0 0 0 0 0 0 0 0 0 0 0.25 0"/>
<feBlend mode="normal" in2="BackgroundImageFix" result="effect1_dropShadow_2_45"/>
<feBlend mode="normal" in="SourceGraphic" in2="effect1_dropShadow_2_45" result="shape"/>
<feColorMatrix in="SourceAlpha" type="matrix" values="0 0 0 0 0 0 0 0 0 0 0 0 0 0 0 0 0 0 127 0" result="hardAlpha"/>
<feOffset dy="-7.8413"/>
<feGaussianBlur stdDeviation="9.80163"/>
<feComposite in2="hardAlpha" operator="arithmetic" k2="-1" k3="1"/>
<feColorMatrix type="matrix" values="0 0 0 0 0 0 0 0 0 0 0 0 0 0 0 0 0 0 0.25 0"/>
<feBlend mode="normal" in2="shape" result="effect2_innerShadow_2_45"/>
<feColorMatrix in="SourceAlpha" type="matrix" values="0 0 0 0 0 0 0 0 0 0 0 0 0 0 0 0 0 0 127 0" result="hardAlpha"/>
<feOffset dx="-39.2065" dy="3.92065"/>
<feGaussianBlur stdDeviation="19.6033"/>
<feComposite in2="hardAlpha" operator="arithmetic" k2="-1" k3="1"/>
<feColorMatrix type="matrix" values="0 0 0 0 1 0 0 0 0 1 0 0 0 0 1 0 0 0 0.25 0"/>
<feBlend mode="normal" in2="effect2_innerShadow_2_45" result="effect3_innerShadow_2_45"/>
</filter>
<filter id="filter5_ii_2_45" x="0.793484" y="140.947" width="394.866" height="224.597" filterUnits="userSpaceOnUse" color-interpolation-filters="sRGB">
<feFlood flood-opacity="0" result="BackgroundImageFix"/>
<feBlend mode="normal" in="SourceGraphic" in2="BackgroundImageFix" result="shape"/>
<feColorMatrix in="SourceAlpha" type="matrix" values="0 0 0 0 0 0 0 0 0 0 0 0 0 0 0 0 0 0 127 0" result="hardAlpha"/>
<feOffset dy="-7.8413"/>
<feGaussianBlur stdDeviation="9.80163"/>
<feComposite in2="hardAlpha" operator="arithmetic" k2="-1" k3="1"/>
<feColorMatrix type="matrix" values="0 0 0 0 0 0 0 0 0 0 0 0 0 0 0 0 0 0 0.25 0"/>
<feBlend mode="normal" in2="shape" result="effect1_innerShadow_2_45"/>
<feColorMatrix in="SourceAlpha" type="matrix" values="0 0 0 0 0 0 0 0 0 0 0 0 0 0 0 0 0 0 127 0" result="hardAlpha"/>
<feOffset dx="-39.2065" dy="3.92065"/>
<feGaussianBlur stdDeviation="19.6033"/>
<feComposite in2="hardAlpha" operator="arithmetic" k2="-1" k3="1"/>
<feColorMatrix type="matrix" values="0 0 0 0 1 0 0 0 0 1 0 0 0 0 1 0 0 0 0.25 0"/>
<feBlend mode="normal" in2="effect1_innerShadow_2_45" result="effect2_innerShadow_2_45"/>
</filter>
<filter id="filter6_d_2_45" x="57.7363" y="164.097" width="322.987" height="198.833" filterUnits="userSpaceOnUse" color-interpolation-filters="sRGB">
<feFlood flood-opacity="0" result="BackgroundImageFix"/>
<feColorMatrix in="SourceAlpha" type="matrix" values="0 0 0 0 0 0 0 0 0 0 0 0 0 0 0 0 0 0 127 0" result="hardAlpha"/>
<feOffset dy="7.8413"/>
<feGaussianBlur stdDeviation="9.80163"/>
<feColorMatrix type="matrix" values="0 0 0 0 0 0 0 0 0 0 0 0 0 0 0 0 0 0 0.25 0"/>
<feBlend mode="normal" in2="BackgroundImageFix" result="effect1_dropShadow_2_45"/>
<feBlend mode="normal" in="SourceGraphic" in2="effect1_dropShadow_2_45" result="shape"/>
</filter>
</defs>
</svg>
