<svg width="16" height="16" viewBox="0 0 16 16" fill="none" xmlns="http://www.w3.org/2000/svg">
<path d="M4.99011 14.7076L5.45582 13.901C5.53072 13.7712 5.48627 13.6054 5.35655 13.5305L4.70721 13.1556C4.54531 13.0621 4.33829 13.1176 4.24481 13.2795L3.81274 14.0278C3.62503 14.353 3.73643 14.7687 4.06155 14.9564C4.38667 15.1441 4.8024 15.0327 4.99011 14.7076Z" fill="#CCA18A"/>
<path d="M4.41406 12.9863L3.81274 14.0278C3.62503 14.353 3.73643 14.7687 4.06155 14.9564V14.9564C4.38667 15.1441 4.8024 15.0327 4.99011 14.7076L5.59143 13.6661" stroke="black" stroke-width="0.2"/>
<path d="M12.3713 14.0651L11.8638 13.186C11.7889 13.0563 11.623 13.0118 11.4933 13.0867L10.8439 13.4616C10.682 13.5551 10.6266 13.7621 10.72 13.924L11.1939 14.7448C11.3816 15.07 11.7974 15.1813 12.1225 14.9936C12.4476 14.8059 12.559 14.3902 12.3713 14.0651Z" fill="#CCA18A"/>
<path d="M10.5508 13.6309L11.1939 14.7448C11.3816 15.07 11.7974 15.1813 12.1225 14.9936V14.9936C12.4476 14.8059 12.559 14.3902 12.3713 14.0651L11.7281 12.9511" stroke="black" stroke-width="0.2"/>
<path d="M3.51896 2.34527L4.13287 2.58728C4.35452 2.67466 4.42858 2.95145 4.28018 3.13785L3.96642 3.54769C3.80865 3.7493 3.5029 3.74734 3.34772 3.54374L2.97871 3.05957C2.85512 2.89741 2.85161 2.67366 2.97005 2.50771C3.09403 2.33397 3.32039 2.26699 3.51896 2.34527Z" fill="#6FAFD4"/>
<path d="M3.62375 3.86221L2.96614 3.01679C2.8407 2.85552 2.84302 2.62907 2.97173 2.4704V2.4704C3.09307 2.32083 3.29769 2.26775 3.47643 2.33949L4.56769 2.77746" stroke="black" stroke-width="0.2"/>
<path d="M12.4572 2.34518L11.8451 2.59181C11.6242 2.68085 11.5522 2.95819 11.702 3.14347L12.0188 3.55094C12.1781 3.75135 12.4838 3.7471 12.6375 3.54233L13.0028 3.0554C13.1252 2.89232 13.127 2.66855 13.0073 2.50349C12.882 2.33069 12.6552 2.26541 12.4572 2.34518Z" fill="#6FAFD4"/>
<path d="M12.3661 3.86362L13.0173 3.01328C13.1415 2.85108 13.1375 2.62465 13.0076 2.46695V2.46695C12.8851 2.3183 12.6801 2.26676 12.5019 2.33984L11.414 2.786" stroke="black" stroke-width="0.2"/>
<path d="M3.14018 5.78744C3.21489 3.36957 5.31294 1.51113 7.4249 1.51113H8.59871C10.6903 1.51113 12.7888 3.39123 12.8551 5.78712C12.8994 7.3886 12.8994 8.96138 12.8551 10.5629C12.8218 11.7642 12.3844 12.7122 11.699 13.36C11.013 14.0083 10.0723 14.3619 9.02216 14.3619H7.14392C5.02686 14.3619 3.21474 12.9195 3.14018 10.5066C3.09181 8.94135 3.09181 7.35266 3.14018 5.78744Z" fill="#5DA8D3" stroke="black" stroke-width="0.2"/>
<path fill-rule="evenodd" clip-rule="evenodd" d="M7.4249 1.41113C5.25974 1.41113 3.11664 3.31166 3.04023 5.78436C2.9918 7.35163 2.9918 8.94238 3.04023 10.5097C3.11454 12.9144 4.87781 14.3798 6.96623 14.4585C6.66799 13.7994 6.50195 13.0676 6.50195 12.297C6.50195 9.39798 8.85208 7.04785 11.7511 7.04785C12.1753 7.04785 12.5876 7.09816 12.9826 7.19312C12.9773 6.72504 12.9681 6.25594 12.955 5.78436C12.8872 3.33395 10.7441 1.41113 8.59871 1.41113H7.4249Z" fill="#5DA8D3"/>
<path fill-rule="evenodd" clip-rule="evenodd" d="M7.4249 1.61113H8.59871C10.6366 1.61113 12.6903 3.44851 12.7551 5.78989C12.7677 6.24483 12.7767 6.69745 12.7821 7.14907C12.8494 7.16247 12.9163 7.17717 12.9826 7.19312C12.9773 6.72504 12.9681 6.25594 12.955 5.78436C12.8872 3.33395 10.7441 1.41113 8.59871 1.41113H7.4249C5.25974 1.41113 3.11664 3.31166 3.04023 5.78436C2.9918 7.35163 2.9918 8.94238 3.04023 10.5097C3.11454 12.9144 4.87781 14.3798 6.96623 14.4585C6.93574 14.3911 6.90663 14.323 6.87894 14.2541C4.92661 14.1393 3.30972 12.7556 3.24013 10.5035C3.19183 8.94032 3.19183 7.35369 3.24013 5.79053C3.31315 3.42747 5.36615 1.61113 7.4249 1.61113Z" fill="black"/>
<path fill-rule="evenodd" clip-rule="evenodd" d="M7.4249 1.41113C5.25974 1.41113 3.11664 3.31166 3.04023 5.78436C2.9918 7.35163 2.9918 8.94238 3.04023 10.5097C3.11664 12.9823 4.97876 14.4619 7.14392 14.4619H9.02216C9.05803 14.4619 9.09379 14.4615 9.12943 14.4607C9.04472 14.0864 9 13.6969 9 13.297C9 10.8326 10.6982 8.76491 12.9883 8.20027C12.9885 7.39736 12.9774 6.59452 12.955 5.78436C12.8872 3.33395 10.7441 1.41113 8.59871 1.41113H7.4249Z" fill="#5DA8D3"/>
<path fill-rule="evenodd" clip-rule="evenodd" d="M7.4249 1.61113H8.59871C10.6366 1.61113 12.6903 3.44851 12.7551 5.78989C12.778 6.61622 12.789 7.4349 12.7882 8.25383C12.8544 8.2347 12.9211 8.21684 12.9883 8.20027C12.9885 7.39736 12.9774 6.59452 12.955 5.78436C12.8872 3.33395 10.7441 1.41113 8.59871 1.41113H7.4249C5.25974 1.41113 3.11664 3.31166 3.04023 5.78436C2.9918 7.35163 2.9918 8.94238 3.04023 10.5097C3.11664 12.9823 4.97876 14.4619 7.14392 14.4619H9.02216C9.05803 14.4619 9.09379 14.4615 9.12943 14.4607C9.1145 14.3947 9.10082 14.3283 9.0884 14.2614C9.06637 14.2617 9.04429 14.2619 9.02216 14.2619H7.14392C5.07497 14.2619 3.31285 12.8567 3.24013 10.5035C3.19183 8.94032 3.19183 7.35369 3.24013 5.79053C3.31315 3.42747 5.36615 1.61113 7.4249 1.61113Z" fill="black"/>
<path fill-rule="evenodd" clip-rule="evenodd" d="M7.4249 1.41113C5.25974 1.41113 3.11664 3.31166 3.04023 5.78436C2.9918 7.35163 2.9918 8.94238 3.04023 10.5097C3.10705 12.6721 4.53958 14.075 6.34617 14.393L5.7553 13.8017C5.32626 13.3724 5.37548 12.663 5.8597 12.297L10.7425 8.60694C11.0665 8.36211 11.5063 8.33749 11.8556 8.54465L12.982 9.21275C12.9958 8.07059 12.9868 6.93486 12.955 5.78436C12.8872 3.33395 10.7441 1.41113 8.59871 1.41113H7.4249Z" fill="#5DA8D3"/>
<path fill-rule="evenodd" clip-rule="evenodd" d="M7.4249 1.61113H8.59871C10.6366 1.61113 12.6903 3.44851 12.7551 5.78989C12.7858 6.89898 12.7952 7.99428 12.7833 9.09492L12.982 9.21275C12.9958 8.07059 12.9868 6.93486 12.955 5.78436C12.8872 3.33395 10.7441 1.41113 8.59871 1.41113H7.4249C5.25974 1.41113 3.11664 3.31166 3.04023 5.78436C2.9918 7.35163 2.9918 8.94238 3.04023 10.5097C3.10705 12.6721 4.53958 14.075 6.34617 14.393L6.08702 14.1336C4.50675 13.7376 3.30004 12.4423 3.24013 10.5035C3.19183 8.94032 3.19183 7.35369 3.24013 5.79053C3.31315 3.42747 5.36615 1.61113 7.4249 1.61113Z" fill="black"/>
<path fill-rule="evenodd" clip-rule="evenodd" d="M7.30156 4.83828C7.30156 5.76247 6.56724 6.51152 5.66152 6.51152C4.75581 6.51152 4.02148 5.76247 4.02148 4.83828C4.02148 3.91409 4.75581 3.16504 5.66152 3.16504C6.56724 3.16504 7.30156 3.91409 7.30156 4.83828Z" fill="white"/>
<path fill-rule="evenodd" clip-rule="evenodd" d="M5.92915 4.83735C5.92915 5.26451 5.58948 5.61122 5.17042 5.61122C4.75178 5.61122 4.41211 5.26451 4.41211 4.83735C4.41211 4.41019 4.75178 4.06348 5.17042 4.06348C5.58948 4.06348 5.92915 4.41019 5.92915 4.83735Z" fill="black"/>
<path fill-rule="evenodd" clip-rule="evenodd" d="M11.9715 4.83828C11.9715 5.76247 11.2372 6.51152 10.3314 6.51152C9.42532 6.51152 8.69141 5.76247 8.69141 4.83828C8.69141 3.91409 9.42532 3.16504 10.3314 3.16504C11.2372 3.16504 11.9715 3.91409 11.9715 4.83828Z" fill="white"/>
<path fill-rule="evenodd" clip-rule="evenodd" d="M11.5854 4.83735C11.5854 5.26451 11.2457 5.61122 10.8271 5.61122C10.408 5.61122 10.0684 5.26451 10.0684 4.83735C10.0684 4.41019 10.408 4.06348 10.8271 4.06348C11.2457 4.06348 11.5854 4.41019 11.5854 4.83735Z" fill="black"/>
<path fill-rule="evenodd" clip-rule="evenodd" d="M7.63281 7.58374H8.61011V6.7793H7.63281V7.58374Z" fill="white"/>
<path fill-rule="evenodd" clip-rule="evenodd" d="M9.0972 6.51175C9.0972 6.80778 8.65999 7.04791 8.12067 7.04791C7.58174 7.04791 7.14453 6.80778 7.14453 6.51175C7.14453 6.21571 7.58174 5.97559 8.12067 5.97559C8.65999 5.97559 9.0972 6.21571 9.0972 6.51175Z" fill="#CCA18A"/>
<path fill-rule="evenodd" clip-rule="evenodd" d="M8.60871 6.23446C8.60871 6.53573 8.38658 6.51159 8.11197 6.51159C7.83776 6.51159 7.61523 6.53573 7.61523 6.23446C7.61523 5.9332 7.83776 5.68945 8.11197 5.68945C8.38658 5.68945 8.60871 5.9332 8.60871 6.23446Z" fill="black"/>
<path d="M13.7107 9.68248L13.0226 8.99436C12.933 8.90474 12.7876 8.90474 12.698 8.99436L12.2494 9.44297C12.1376 9.55483 12.1376 9.73618 12.2494 9.84804L12.8973 10.4959C13.1219 10.7205 13.4861 10.7205 13.7107 10.4959C13.9353 10.2713 13.9353 9.9071 13.7107 9.68248Z" fill="#CCA18A"/>
<path d="M12.0469 9.64551L12.8973 10.4959C13.1219 10.7205 13.4861 10.7205 13.7107 10.4959V10.4959C13.9353 10.2713 13.9353 9.9071 13.7107 9.68248L12.8603 8.83209" stroke="black" stroke-width="0.2"/>
<path d="M3.09584 10.4958L3.78396 9.80773C3.87358 9.71811 3.87358 9.5728 3.78396 9.48318L3.33535 9.03456C3.22349 8.92271 3.04214 8.92271 2.93028 9.03456L2.28242 9.68243C2.0578 9.90705 2.0578 10.2712 2.28242 10.4958C2.50704 10.7205 2.87122 10.7205 3.09584 10.4958Z" fill="#CCA18A"/>
<path d="M3.13281 8.83203L2.28242 9.68243C2.0578 9.90705 2.0578 10.2712 2.28242 10.4958V10.4958C2.50704 10.7205 2.87122 10.7205 3.09584 10.4958L3.94623 9.64545" stroke="black" stroke-width="0.2"/>
</svg>
