<svg width="16" height="16" viewBox="0 0 16 16" fill="none" xmlns="http://www.w3.org/2000/svg">
<path d="M11.2426 12.2426L10.5355 11.5355C9.63071 12.4404 8.38071 13 7 13C4.23858 13 2 10.7614 2 8C2 5.23858 4.23858 3 7 3C8.38071 3 9.63071 3.55964 10.5355 4.46447L11.2426 3.75736C10.1569 2.67157 8.65685 2 7 2C3.68629 2 1 4.68629 1 8C1 11.3137 3.68629 14 7 14C8.65685 14 10.1569 13.3284 11.2426 12.2426Z" fill="#3574F0"/>
<path d="M7 5C7.82843 5 8.57843 5.33579 9.12132 5.87868L8.41421 6.58579C8.05228 6.22386 7.55228 6 7 6C5.89543 6 5 6.89543 5 8C5 9.10457 5.89543 10 7 10C7.55228 10 8.05228 9.77614 8.41421 9.41421L9.12132 10.1213C8.57843 10.6642 7.82843 11 7 11C5.34315 11 4 9.65685 4 8C4 6.34315 5.34315 5 7 5Z" fill="#3574F0"/>
<path d="M15 9.5V8.5H16V7.5H15V6.5H14V7.5H13V8.5H14V9.5H15Z" fill="#3574F0"/>
<path d="M11 8.5V9.5H10V8.5H9V7.5H10V6.5H11V7.5H12V8.5H11Z" fill="#3574F0"/>
</svg>
