<svg width="16" height="16" viewBox="0 0 16 16" fill="none" xmlns="http://www.w3.org/2000/svg">
<path fill-rule="evenodd" clip-rule="evenodd" d="M13 9.54154V2.10459C13 1.51297 12.4892 1.05068 11.9005 1.10955L3.9005 1.90955C3.38929 1.96067 3 2.39084 3 2.90459V13.8946C3 14.4862 3.51082 14.9485 4.09951 14.8897L12.0995 14.0897C12.6107 14.0385 13 13.6084 13 13.0946V9.55885C13.0001 9.5531 13.0001 9.54733 13 9.54154ZM4 2.90459L4 5.89711L12 5.09711V2.10459L4 2.90459ZM12 6.1021L4 6.9021L4 9.89711L12 9.09711V6.1021ZM12 10.1021L4 10.9021L4 13.8946L12 13.0946V10.1021Z" fill="#DB3B4B"/>
<path d="M4 5.89799L4 2.90547L12 2.10547V5.09799L4 5.89799Z" fill="#FFF7F7"/>
<path d="M4 6.90297L12 6.10297V9.09799L4 9.89799L4 6.90297Z" fill="#FFF7F7"/>
<path d="M4 10.903L12 10.103V13.0955L4 13.8955L4 10.903Z" fill="#FFF7F7"/>
</svg>
